<?xml version="1.0" standalone="no"?>
<!DOCTYPE svg PUBLIC "-//W3C//DTD SVG 1.1//EN" "http://www.w3.org/Graphics/SVG/1.1/DTD/svg11.dtd" >
<svg>
<metadata>
Created by FontForge 20090914 at Fri Sep 26 21:23:28 2014
 By www-data
Copyright &#194;&#169; 2011 Nokia. All rights reserved.  Reproduction, transfer, distribution or storage of part or all of the contents in this document in any form without the prior written permission of Nokia is prohibited.
</metadata>
<defs>
<font id="NokiaPureText-Bold" horiz-adv-x="424" >
  <font-face 
    font-family="Nokia Pure Text"
    font-weight="700"
    font-stretch="normal"
    units-per-em="1000"
    panose-1="2 11 8 4 4 6 2 6 3 3"
    ascent="800"
    descent="-200"
    x-height="504"
    cap-height="703"
    bbox="-186 -295.002 1283 995.003"
    underline-thickness="90"
    underline-position="-10"
    unicode-range="U+0008-U+FB04"
  />
<missing-glyph horiz-adv-x="500" 
d="M50 0v750h400v-750h-400zM400 50v650h-300v-650h300z" />
    <glyph glyph-name="f_f" unicode="ff" horiz-adv-x="716" 
d="M240 391l-0.00195312 -391.002h-135v391h-88v113h88v38c0 28.667 3 56.334 9 83.001s16.333 50.167 31 70.5s34.5 36.5 59.5 48.5s56.833 18 95.5 18c30 0 54.667 -1.5 74 -4.5s33 -5.5 41 -7.5l-12 -105c-7.33301 1.33301 -16.666 2.5 -27.999 3.5s-25 1.5 -41 1.5
c-32 0 -55.667 -8.16699 -71 -24.5s-23 -45.5 -23 -87.5v-34h193v38c0 28.667 3 56.334 9 83.001s16.333 50.167 31 70.5s34.5 36.5 59.5 48.5s56.833 18 95.5 18c30 0 54.667 -1.5 74 -4.5s33 -5.5 41 -7.5l-12 -105c-7.33301 1.33301 -16.666 2.5 -27.999 3.5
s-25 1.5 -41 1.5c-32 0 -55.667 -8.16699 -71 -24.5s-23 -45.5 -23 -87.5v-34h133v-113h-133v-391h-135v391h-193z" />
    <glyph glyph-name="f_i" unicode="fi" horiz-adv-x="634" 
d="M17 391v112.999h88v38c0 28.667 2.83301 56.334 8.5 83.001s15.5 50.167 29.5 70.5s32.667 36.5 56 48.5s52.666 18 87.999 18c24.667 0 45.667 -1.5 63 -4.5s30 -5.5 38 -7.5l-13 -105c-3.33301 0.666992 -10.166 1.66699 -20.499 3s-21.833 2 -34.5 2
c-24 0 -43.333 -8.16699 -58 -24.5s-22 -45.5 -22 -87.5v-34h328v-504h-134v391h-194v-391h-135v391h-88zM576 675.999c0 -23.333 -6.83301 -42.6699 -20.5 -58.0029s-32.167 -23 -55.5 -23s-41.833 7.83301 -55.5 23.5s-20.5 34.834 -20.5 57.501
s6.83301 41.834 20.5 57.501s32.167 23.5 55.5 23.5s41.833 -7.66699 55.5 -23s20.5 -34.666 20.5 -57.999z" />
    <glyph glyph-name="f_l" unicode="fl" horiz-adv-x="642" 
d="M576 0h-134v750h134v-750zM17 391v112.999h88v38c0 28.667 2.83301 56.334 8.5 83.001s15.5 50.167 29.5 70.5s32.667 36.5 56 48.5s52.666 18 87.999 18c24.667 0 45.667 -1.5 63 -4.5s30 -5.5 38 -7.5l-13 -105c-3.33301 0.666992 -10.166 1.66699 -20.499 3
s-21.833 2 -34.5 2c-24 0 -43.333 -8.16699 -58 -24.5s-22 -45.5 -22 -87.5v-34h133v-113h-133v-391h-135v391h-88z" />
    <glyph glyph-name="f_f_i" unicode="ffi" horiz-adv-x="961" 
d="M240 391l-0.000976562 -391.002h-135v391h-88v113h88v38c0 28.667 3 56.334 9 83.001s16.333 50.167 31 70.5s34.5 36.5 59.5 48.5s56.833 18 95.5 18c30 0 54.667 -1.5 74 -4.5s33 -5.5 41 -7.5l-12 -105c-7.33301 1.33301 -16.666 2.5 -27.999 3.5s-25 1.5 -41 1.5
c-32 0 -55.667 -8.16699 -71 -24.5s-23 -45.5 -23 -87.5v-34h193v38c0 28.667 2.83301 56.334 8.5 83.001s15.5 50.167 29.5 70.5s32.667 36.5 56 48.5s52.666 18 87.999 18c24.667 0 45.667 -1.5 63 -4.5s30 -5.5 38 -7.5l-13 -105
c-3.33301 0.666992 -10.166 1.66699 -20.499 3s-21.833 2 -34.5 2c-24 0 -43.333 -8.16699 -58 -24.5s-22 -45.5 -22 -87.5v-34h327v-504h-134v391h-193v-391h-135v391h-193zM903.999 675.998c0 -23.333 -6.83301 -42.6699 -20.5 -58.0029s-32.167 -23 -55.5 -23
s-41.833 7.83301 -55.5 23.5s-20.5 34.834 -20.5 57.501s6.83301 41.834 20.5 57.501s32.167 23.5 55.5 23.5s41.833 -7.66699 55.5 -23s20.5 -34.666 20.5 -57.999z" />
    <glyph glyph-name="f_f_l" unicode="ffl" horiz-adv-x="970" 
d="M905 0h-134v750h134v-750zM240 391l-0.000976562 -391.002h-135v391h-88v113h88v38c0 28.667 3 56.334 9 83.001s16.333 50.167 31 70.5s34.5 36.5 59.5 48.5s56.833 18 95.5 18c30 0 54.667 -1.5 74 -4.5s33 -5.5 41 -7.5l-12 -105
c-7.33301 1.33301 -16.666 2.5 -27.999 3.5s-25 1.5 -41 1.5c-32 0 -55.667 -8.16699 -71 -24.5s-23 -45.5 -23 -87.5v-34h193v38c0 28.667 2.83301 56.334 8.5 83.001s15.5 50.167 29.5 70.5s32.667 36.5 56 48.5s52.666 18 87.999 18c24.667 0 45.667 -1.5 63 -4.5
s30 -5.5 38 -7.5l-13 -105c-3.33301 0.666992 -10.166 1.66699 -20.499 3s-21.833 2 -34.5 2c-24 0 -43.333 -8.16699 -58 -24.5s-22 -45.5 -22 -87.5v-34h133v-113h-133v-391h-135v391h-193z" />
    <glyph glyph-name=".notdef" horiz-adv-x="500" 
d="M50 0v750h400v-750h-400zM400 50v650h-300v-650h300z" />
    <glyph glyph-name=".null" horiz-adv-x="0" 
 />
    <glyph glyph-name=".null" horiz-adv-x="0" 
 />
    <glyph glyph-name=".null" horiz-adv-x="0" 
 />
    <glyph glyph-name="nonmarkingreturn" unicode="&#x9;" horiz-adv-x="245" 
 />
    <glyph glyph-name="nonmarkingreturn" unicode="&#xd;" horiz-adv-x="245" 
 />
    <glyph glyph-name="space" unicode=" " horiz-adv-x="245" 
 />
    <glyph glyph-name="exclam" unicode="!" horiz-adv-x="322" 
d="M230 224h-141v479h141v-479zM238 74c0 -24.667 -7 -44.667 -21 -60s-33 -23 -57 -23s-43 8 -57 24s-21 35.667 -21 59s7 43 21 59s33 24 57 24s43 -7.66699 57 -23s21 -35.333 21 -60z" />
    <glyph glyph-name="quotedbl" unicode="&#x22;" horiz-adv-x="420" 
d="M51 703h129l-14 -267h-100zM240 703h129l-14 -267h-100z" />
    <glyph glyph-name="numbersign" unicode="#" horiz-adv-x="658" 
d="M89 535h111l32 155h115l-31 -155h101l32 155h115l-32 -155h96l-19 -109h-97l-31 -149h108l-19 -109h-108l-34 -168h-115l33 168h-102l-34 -168h-115l33 168h-98l20 109h99l30 149h-109zM265 277h101l29 149h-101z" />
    <glyph glyph-name="dollar" unicode="$" horiz-adv-x="592" 
d="M343 699c38 -3.33301 72.165 -10.499 102.498 -21.499s54.5 -22.167 72.5 -33.5l-50 -100c-11.333 6.66699 -28 13.834 -50 21.501s-47.333 13.167 -76 16.5v-175l21 -6c27.333 -8.66699 52.5 -18.834 75.5 -30.501s42.667 -25.5 59 -41.5s29 -34.167 38 -54.5
s13.5 -43.5 13.5 -69.5c0 -28.667 -5.16699 -55 -15.5 -79s-24.833 -45 -43.5 -63s-40.667 -32.833 -66 -44.5s-53 -19.5 -83 -23.5v-104h-74v103c-28 1.33301 -54.167 4.5 -78.5 9.5s-45.666 10.5 -63.999 16.5s-33.666 12 -45.999 18s-20.833 10.667 -25.5 14l53 108
c14 -8 34.833 -17.333 62.5 -28s60.5 -17.667 98.5 -21v186c-27.333 8 -53.333 17.5 -78 28.5s-46.5 24.667 -65.5 41s-34.167 36 -45.5 59s-17 50.167 -17 81.5c0 58 17.833 103.167 53.5 135.5s86.5 51.166 152.5 56.499v91h76v-91zM408.998 189.001
c0 18 -4.33301 33.833 -13 47.5s-26.667 26.167 -54 37.5v-159c20.667 4.66699 37 13 49 25s18 28.333 18 49zM197.998 508.001c0 -15.333 4.66797 -29.1689 14.001 -41.502s27.666 -23.833 54.999 -34.5v150c-20 -3.33301 -36.5 -10.666 -49.5 -21.999
s-19.5 -28.666 -19.5 -51.999z" />
    <glyph glyph-name="percent" unicode="%" horiz-adv-x="934" 
d="M591 690h127l-374 -690h-126zM44 499c0 66.667 14.166 117.334 42.499 152.001s70.833 52 127.5 52s98.834 -17.333 126.501 -52s41.5 -85.334 41.5 -152.001s-14.5 -117 -43.5 -151s-70.5 -51 -124.5 -51c-113.333 0 -170 67.333 -170 202zM158.999 499
c0 -34 4.16699 -59.333 12.5 -76s22.5 -25 42.5 -25c19.333 0 33.166 8.83301 41.499 26.5s12.5 42.5 12.5 74.5c0 34 -4.16699 59.833 -12.5 77.5s-22.166 26.5 -41.499 26.5c-20 0 -34.167 -8.83301 -42.5 -26.5s-12.5 -43.5 -12.5 -77.5zM551.999 189
c0 66.667 14.166 117.334 42.499 152.001s70.833 52 127.5 52s98.834 -17.333 126.501 -52s41.5 -85.334 41.5 -152.001s-14.5 -117 -43.5 -151s-70.5 -51 -124.5 -51c-113.333 0 -170 67.333 -170 202zM666.998 189c0 -34 4.16699 -59.333 12.5 -76s22.5 -25 42.5 -25
c19.333 0 33.166 8.83301 41.499 26.5s12.5 42.5 12.5 74.5c0 34 -4.16699 59.833 -12.5 77.5s-22.166 26.5 -41.499 26.5c-20 0 -34.167 -8.83301 -42.5 -26.5s-12.5 -43.5 -12.5 -77.5z" />
    <glyph glyph-name="ampersand" unicode="&#x26;" horiz-adv-x="716" 
d="M202 395c-23.333 27.333 -40.666 52.9971 -51.999 76.9971s-17 51 -17 81c0 24.667 4.83301 47.334 14.5 68.001s23.167 38.167 40.5 52.5s38 25.5 62 33.5s50.333 12 79 12c26 0 50.5 -3.83301 73.5 -11.5s43.167 -18.667 60.5 -33s31.166 -31.833 41.499 -52.5
s15.5 -43.667 15.5 -69c0 -43.333 -13.333 -79.666 -40 -108.999s-64 -55.666 -112 -78.999l142 -165c15.333 13.333 29.833 30.333 43.5 51s26.167 42.667 37.5 66l96 -49c-12.667 -32 -28.5 -61.5 -47.5 -88.5s-37.167 -49.167 -54.5 -66.5l96 -113h-145l-38 45
c-26.667 -18.667 -56 -33 -88 -43s-68 -15 -108 -15s-75.833 5.33301 -107.5 16s-58.667 25 -81 43s-39.333 39 -51 63s-17.5 49.667 -17.5 77c0 50 14.167 92 42.5 126s66.5 61.667 114.5 83zM264 315.997c-11.333 -6 -22.166 -12.667 -32.499 -20
s-19.666 -15.666 -27.999 -24.999s-15 -20 -20 -32s-7.5 -25.667 -7.5 -41c0 -18.667 3.83301 -34.334 11.5 -47.001s17.667 -23 30 -31s26.166 -13.667 41.499 -17s30.666 -5 45.999 -5c26 0 49 3 69 9s36.667 14 50 24zM307 442.997
c12.667 6 24.999 12.3291 36.999 18.9961s22.5 14.334 31.5 23.001s16.333 18.334 22 29.001s8.5 22.667 8.5 36c0 22.667 -7.16699 40.5 -21.5 53.5s-32.166 19.5 -53.499 19.5c-24 0 -44.167 -5.83301 -60.5 -17.5s-24.5 -29.167 -24.5 -52.5
c0 -21.333 6.66699 -41.666 20 -60.999s27 -35.666 41 -48.999z" />
    <glyph glyph-name="quotesingle" unicode="'" horiz-adv-x="231" 
d="M51 703h129l-14 -267h-100z" />
    <glyph glyph-name="parenleft" unicode="(" horiz-adv-x="302" 
d="M53 327c0 52 3.5 100.333 10.5 145s15.667 85 26 121s21.5 67.333 33.5 94s22.667 47.667 32 63h123c-11.333 -20 -22.5 -44.5 -33.5 -73.5s-21 -61.5 -30 -97.5s-16.333 -75.333 -22 -118s-8.5 -87.334 -8.5 -134.001c0 -47.333 2.83301 -92.166 8.5 -134.499
s13 -81.5 22 -117.5s19 -68.5 30 -97.5s22.167 -53.5 33.5 -73.5h-123c-9.33301 15.333 -20 36.333 -32 63s-23.167 58 -33.5 94s-19 76.333 -26 121s-10.5 93 -10.5 145z" />
    <glyph glyph-name="parenright" unicode=")" horiz-adv-x="301" 
d="M249 327c0 -52 -3.5 -100.331 -10.5 -144.998s-15.667 -85 -26 -121s-21.5 -67.333 -33.5 -94s-22.667 -47.667 -32 -63h-123c11.333 20 22.5 44.5 33.5 73.5s21 61.5 30 97.5s16.167 75.167 21.5 117.5s8 87.166 8 134.499s-2.66699 92.166 -8 134.499
s-12.5 81.5 -21.5 117.5s-19 68.5 -30 97.5s-22.167 53.5 -33.5 73.5h123c9.33301 -15.333 20 -36.333 32 -63s23.167 -58 33.5 -94s19 -76.333 26 -121s10.5 -93 10.5 -145z" />
    <glyph glyph-name="asterisk" unicode="*" horiz-adv-x="482" 
d="M292 750l-8 -121l117 49l31 -94l-119 -33l84 -104l-82 -56l-70 109l-72 -111l-83 57l85 104l-126 35l34 92l116 -48l-9 121h102z" />
    <glyph glyph-name="plus" unicode="+" horiz-adv-x="592" 
d="M55 403h181v196h120v-196h181v-116h-181v-196h-120v196h-181v116z" />
    <glyph glyph-name="comma" unicode="," horiz-adv-x="279" 
d="M51 71c0 25.333 7.16602 45.334 21.499 60.001s33.833 22 58.5 22c24 0 43.333 -7.83301 58 -23.5s22 -37.834 22 -66.501c0 -23.333 -5.16699 -47.666 -15.5 -72.999s-22.333 -49.333 -36 -72s-27.5 -42.834 -41.5 -60.501l-32 -39.5l-60 38
c4.66699 7.33301 10.334 16.833 17.001 28.5s13.334 24 20.001 37s13 26.167 19 39.5s10.667 26 14 38c-12.667 6.66699 -23.334 16 -32.001 28s-13 26.667 -13 44z" />
    <glyph glyph-name="hyphen" unicode="-" horiz-adv-x="430" 
d="M52 344h326v-128h-326v128z" />
    <glyph glyph-name="period" unicode="." horiz-adv-x="278" 
d="M213 74c0 -24.667 -7 -44.667 -21 -60s-33 -23 -57 -23s-43 8 -57 24s-21 35.667 -21 59s7 43 21 59s33 24 57 24s43 -7.66699 57 -23s21 -35.333 21 -60z" />
    <glyph glyph-name="slash" unicode="/" horiz-adv-x="466" 
d="M11 -47l312 797h131l-312 -797h-131z" />
    <glyph glyph-name="zero" unicode="0" horiz-adv-x="616" 
d="M42 345c0 115.333 21.667 203.833 65 265.5s110.333 92.5 201 92.5s157.667 -30.667 201 -92s65 -150 65 -266c0 -118 -21.5 -207.167 -64.5 -267.5s-110.167 -90.5 -201.5 -90.5c-92 0 -159.333 30 -202 90s-64 149.333 -64 268zM184 345c0 -84 9.5 -145.333 28.5 -184
s50.833 -58 95.5 -58c44 0 75.667 19.333 95 58s29 100 29 184s-9.66699 145.167 -29 183.5s-51 57.5 -95 57.5s-75.667 -19.167 -95 -57.5s-29 -99.5 -29 -183.5z" />
    <glyph glyph-name="zero" unicode="&#xf800;" horiz-adv-x="616" 
d="M42 345c0 115.333 21.667 203.833 65 265.5s110.333 92.5 201 92.5s157.667 -30.667 201 -92s65 -150 65 -266c0 -118 -21.5 -207.167 -64.5 -267.5s-110.167 -90.5 -201.5 -90.5c-92 0 -159.333 30 -202 90s-64 149.333 -64 268zM184 345c0 -84 9.5 -145.333 28.5 -184
s50.833 -58 95.5 -58c44 0 75.667 19.333 95 58s29 100 29 184s-9.66699 145.167 -29 183.5s-51 57.5 -95 57.5s-75.667 -19.167 -95 -57.5s-29 -99.5 -29 -183.5z" />
    <glyph glyph-name="one" unicode="1" horiz-adv-x="525" 
d="M259 537l-171 -97l-52 105l247 145h117v-690h-141v537z" />
    <glyph glyph-name="one" unicode="&#xf801;" horiz-adv-x="525" 
d="M259 537l-171 -97l-52 105l247 145h117v-690h-141v537z" />
    <glyph glyph-name="two" unicode="2" horiz-adv-x="546" 
d="M232 350c38.667 28 68.168 53.998 88.501 77.998s30.5 50.667 30.5 80c0 10 -1.66699 19.833 -5 29.5s-8.83301 18.167 -16.5 25.5s-17.5 13.333 -29.5 18s-26.667 7 -44 7c-20 0 -37.333 -2.66699 -52 -8s-27.5 -12.166 -38.5 -20.499s-20.667 -17.333 -29 -27
s-15.5 -18.5 -21.5 -26.5l-84 70c6.66699 10.667 16 23.334 28 38.001s27.333 28.5 46 41.5s41 24.167 67 33.5s56 14 90 14c40 0 74.167 -5.33301 102.5 -16s51.5 -24.834 69.5 -42.501s31.333 -37.834 40 -60.501s13 -45.667 13 -69c0 -28 -3.83301 -53 -11.5 -75
s-18.334 -42.167 -32.001 -60.5s-29.667 -35.666 -48 -51.999s-38.166 -32.5 -59.499 -48.5c-96.667 -72 -145.667 -126.667 -147 -164h305v-115h-456v13c0 38 3.83301 72.667 11.5 104s19.5 60.333 35.5 87s36.167 51.834 60.5 75.501s53.166 47.167 86.499 70.5z" />
    <glyph glyph-name="two" unicode="&#xf802;" horiz-adv-x="546" 
d="M232 350c38.667 28 68.168 53.998 88.501 77.998s30.5 50.667 30.5 80c0 10 -1.66699 19.833 -5 29.5s-8.83301 18.167 -16.5 25.5s-17.5 13.333 -29.5 18s-26.667 7 -44 7c-20 0 -37.333 -2.66699 -52 -8s-27.5 -12.166 -38.5 -20.499s-20.667 -17.333 -29 -27
s-15.5 -18.5 -21.5 -26.5l-84 70c6.66699 10.667 16 23.334 28 38.001s27.333 28.5 46 41.5s41 24.167 67 33.5s56 14 90 14c40 0 74.167 -5.33301 102.5 -16s51.5 -24.834 69.5 -42.501s31.333 -37.834 40 -60.501s13 -45.667 13 -69c0 -28 -3.83301 -53 -11.5 -75
s-18.334 -42.167 -32.001 -60.5s-29.667 -35.666 -48 -51.999s-38.166 -32.5 -59.499 -48.5c-96.667 -72 -145.667 -126.667 -147 -164h305v-115h-456v13c0 38 3.83301 72.667 11.5 104s19.5 60.333 35.5 87s36.167 51.834 60.5 75.501s53.166 47.167 86.499 70.5z" />
    <glyph glyph-name="three" unicode="3" horiz-adv-x="537" 
d="M143 408l85.998 0.00292969c40 0 69.5 8.5 88.5 25.5s28.5 39.5 28.5 67.5c0 25.333 -8 46.333 -24 63s-41.333 25 -76 25c-18.667 0 -35.334 -1.83301 -50.001 -5.5s-27.667 -8.16699 -39 -13.5s-21.166 -11.5 -29.499 -18.5s-15.5 -13.833 -21.5 -20.5l-72 75
c5.33301 7.33301 13.833 16.5 25.5 27.5s26.834 21.667 45.501 32s40.5 19.166 65.5 26.499s53.5 11 85.5 11c40 0 74.167 -5.33301 102.5 -16s51.333 -24.5 69 -41.5s30.667 -36.333 39 -58s12.5 -43.834 12.5 -66.501s-3.16699 -42.834 -9.5 -60.501
s-14.5 -33.167 -24.5 -46.5s-21.5 -24.666 -34.5 -33.999s-26.5 -17 -40.5 -23c14 -4 28.167 -10 42.5 -18s27.333 -18.167 39 -30.5s21.167 -27.333 28.5 -45s11 -38.5 11 -62.5c0 -35.333 -6.5 -66.333 -19.5 -93s-31.333 -49 -55 -67s-51.667 -31.667 -84 -41
s-67.5 -14 -105.5 -14c-50 0 -91.667 4 -125 12s-57.666 15.667 -72.999 23l28 107c13.333 -5.33301 32.5 -11 57.5 -17s59.5 -9 103.5 -9c19.333 0 37.333 2 54 6s31.167 10 43.5 18s22 18.167 29 30.5s10.5 27.166 10.5 44.499c0 28 -9.83301 50.667 -29.5 68
s-51.5 26 -95.5 26h-87v113z" />
    <glyph glyph-name="three" unicode="&#xf803;" horiz-adv-x="537" 
d="M143 408l85.998 0.00292969c40 0 69.5 8.5 88.5 25.5s28.5 39.5 28.5 67.5c0 25.333 -8 46.333 -24 63s-41.333 25 -76 25c-18.667 0 -35.334 -1.83301 -50.001 -5.5s-27.667 -8.16699 -39 -13.5s-21.166 -11.5 -29.499 -18.5s-15.5 -13.833 -21.5 -20.5l-72 75
c5.33301 7.33301 13.833 16.5 25.5 27.5s26.834 21.667 45.501 32s40.5 19.166 65.5 26.499s53.5 11 85.5 11c40 0 74.167 -5.33301 102.5 -16s51.333 -24.5 69 -41.5s30.667 -36.333 39 -58s12.5 -43.834 12.5 -66.501s-3.16699 -42.834 -9.5 -60.501
s-14.5 -33.167 -24.5 -46.5s-21.5 -24.666 -34.5 -33.999s-26.5 -17 -40.5 -23c14 -4 28.167 -10 42.5 -18s27.333 -18.167 39 -30.5s21.167 -27.333 28.5 -45s11 -38.5 11 -62.5c0 -35.333 -6.5 -66.333 -19.5 -93s-31.333 -49 -55 -67s-51.667 -31.667 -84 -41
s-67.5 -14 -105.5 -14c-50 0 -91.667 4 -125 12s-57.666 15.667 -72.999 23l28 107c13.333 -5.33301 32.5 -11 57.5 -17s59.5 -9 103.5 -9c19.333 0 37.333 2 54 6s31.167 10 43.5 18s22 18.167 29 30.5s10.5 27.166 10.5 44.499c0 28 -9.83301 50.667 -29.5 68
s-51.5 26 -95.5 26h-87v113z" />
    <glyph glyph-name="four" unicode="4" horiz-adv-x="560" 
d="M463 421v-155h75v-113h-75v-153h-131v153h-302v88l232 449h141l-217 -424h146v155h131z" />
    <glyph glyph-name="four" unicode="&#xf804;" horiz-adv-x="560" 
d="M463 421v-155h75v-113h-75v-153h-131v153h-302v88l232 449h141l-217 -424h146v155h131z" />
    <glyph glyph-name="five" unicode="5" horiz-adv-x="552" 
d="M208 102c20 0 39 2.50293 57 7.50293s34 12.5 48 22.5s25.167 23 33.5 39s12.5 35 12.5 57c0 12 -1.66699 24.5 -5 37.5s-9.16602 24.833 -17.499 35.5s-19.5 19.334 -33.5 26.001s-31.667 10 -53 10c-31.333 0 -56.166 -4.33301 -74.499 -13
s-32.5 -16.334 -42.5 -23.001l-72 52l41 337h364v-115h-269l-17 -151c6.66699 3.33301 18.667 7.5 36 12.5s37 7.5 59 7.5c32 0 61.5 -4.16699 88.5 -12.5s50.333 -21.333 70 -39s35 -40.334 46 -68.001s16.5 -60.5 16.5 -98.5c0 -33.333 -5.83301 -64.5 -17.5 -93.5
s-29.334 -54.333 -53.001 -76s-53 -38.834 -88 -51.501s-75.833 -19 -122.5 -19c-50 0 -90.667 3.83301 -122 11.5s-54.666 15.167 -69.999 22.5l27 106c13.333 -4.66699 32.166 -9.83398 56.499 -15.501s58.166 -8.5 101.499 -8.5z" />
    <glyph glyph-name="five" unicode="&#xf805;" horiz-adv-x="552" 
d="M208 102c20 0 39 2.50293 57 7.50293s34 12.5 48 22.5s25.167 23 33.5 39s12.5 35 12.5 57c0 12 -1.66699 24.5 -5 37.5s-9.16602 24.833 -17.499 35.5s-19.5 19.334 -33.5 26.001s-31.667 10 -53 10c-31.333 0 -56.166 -4.33301 -74.499 -13
s-32.5 -16.334 -42.5 -23.001l-72 52l41 337h364v-115h-269l-17 -151c6.66699 3.33301 18.667 7.5 36 12.5s37 7.5 59 7.5c32 0 61.5 -4.16699 88.5 -12.5s50.333 -21.333 70 -39s35 -40.334 46 -68.001s16.5 -60.5 16.5 -98.5c0 -33.333 -5.83301 -64.5 -17.5 -93.5
s-29.334 -54.333 -53.001 -76s-53 -38.834 -88 -51.501s-75.833 -19 -122.5 -19c-50 0 -90.667 3.83301 -122 11.5s-54.666 15.167 -69.999 22.5l27 106c13.333 -4.66699 32.166 -9.83398 56.499 -15.501s58.166 -8.5 101.499 -8.5z" />
    <glyph glyph-name="six" unicode="6" horiz-adv-x="567" 
d="M350 588c-50 0 -89.668 -15.832 -119.001 -47.499s-46.333 -82.5 -51 -152.5c13.333 25.333 33.5 45 60.5 59s56.5 21 88.5 21c25.333 0 50.333 -4.66699 75 -14s46.5 -23.5 65.5 -42.5s34.333 -43 46 -72s17.5 -62.833 17.5 -101.5c0 -40.667 -6.5 -76.5 -19.5 -107.5
s-30.667 -57.167 -53 -78.5s-48.333 -37.5 -78 -48.5s-60.834 -16.5 -93.501 -16.5c-77.333 0 -137.666 25.667 -180.999 77s-65 129.333 -65 234c0 134 26.167 235 78.5 303s128.5 102 228.5 102c28 0 56.167 -3.83301 84.5 -11.5s52.5 -16.834 72.5 -27.501l-31 -101
c-14 6 -32.167 11.667 -54.5 17s-46.166 8 -71.499 8zM288.999 98.001c19.333 0 35.832 3.16895 49.499 9.50195s24.667 15.166 33 26.499s14.5 24.333 18.5 39s6 30.667 6 48c0 44 -8.83301 77.5 -26.5 100.5s-42.5 34.5 -74.5 34.5c-17.333 0 -32.833 -3.33301 -46.5 -10
s-25.167 -15.5 -34.5 -26.5s-16.666 -23.833 -21.999 -38.5s-8 -30.334 -8 -47.001s2 -33.167 6 -49.5s10.333 -30.833 19 -43.5s19.667 -23 33 -31s29 -12 47 -12z" />
    <glyph glyph-name="six" unicode="&#xf806;" horiz-adv-x="567" 
d="M350 588c-50 0 -89.668 -15.832 -119.001 -47.499s-46.333 -82.5 -51 -152.5c13.333 25.333 33.5 45 60.5 59s56.5 21 88.5 21c25.333 0 50.333 -4.66699 75 -14s46.5 -23.5 65.5 -42.5s34.333 -43 46 -72s17.5 -62.833 17.5 -101.5c0 -40.667 -6.5 -76.5 -19.5 -107.5
s-30.667 -57.167 -53 -78.5s-48.333 -37.5 -78 -48.5s-60.834 -16.5 -93.501 -16.5c-77.333 0 -137.666 25.667 -180.999 77s-65 129.333 -65 234c0 134 26.167 235 78.5 303s128.5 102 228.5 102c28 0 56.167 -3.83301 84.5 -11.5s52.5 -16.834 72.5 -27.501l-31 -101
c-14 6 -32.167 11.667 -54.5 17s-46.166 8 -71.499 8zM288.999 98.001c19.333 0 35.832 3.16895 49.499 9.50195s24.667 15.166 33 26.499s14.5 24.333 18.5 39s6 30.667 6 48c0 44 -8.83301 77.5 -26.5 100.5s-42.5 34.5 -74.5 34.5c-17.333 0 -32.833 -3.33301 -46.5 -10
s-25.167 -15.5 -34.5 -26.5s-16.666 -23.833 -21.999 -38.5s-8 -30.334 -8 -47.001s2 -33.167 6 -49.5s10.333 -30.833 19 -43.5s19.667 -23 33 -31s29 -12 47 -12z" />
    <glyph glyph-name="seven" unicode="7" horiz-adv-x="522" 
d="M93 0l252 575h-326v115h466v-108l-249 -582h-143z" />
    <glyph glyph-name="seven" unicode="&#xf807;" horiz-adv-x="522" 
d="M93 0l252 575h-326v115h466v-108l-249 -582h-143z" />
    <glyph glyph-name="eight" unicode="8" horiz-adv-x="566" 
d="M510 530c0 -40.667 -10.832 -74.6719 -32.499 -102.005s-47.5 -49.666 -77.5 -66.999c41.333 -20 72.166 -44.167 92.499 -72.5s30.5 -66.166 30.5 -113.499c0 -30 -6.33301 -56.667 -19 -80s-29.834 -43 -51.501 -59s-47.167 -28.167 -76.5 -36.5
s-60.666 -12.5 -93.999 -12.5s-64.5 4 -93.5 12s-54.333 19.5 -76 34.5s-38.667 33.167 -51 54.5s-18.5 45.333 -18.5 72c0 49.333 11.5 88.833 34.5 118.5s55.167 54.5 96.5 74.5c-34 16.667 -61.333 38.667 -82 66s-31 63.333 -31 108
c0 24.667 5.83301 47.834 17.5 69.501s27.5 40.334 47.5 56.001s43.5 28 70.5 37s55.833 13.5 86.5 13.5c32.667 0 63 -4.33301 91 -13s52 -20.667 72 -36s35.667 -33.666 47 -54.999s17 -44.333 17 -69zM388.001 183.995c0 27.333 -8.16797 50.332 -24.501 68.999
s-46.166 36 -89.499 52c-37.333 -19.333 -62.833 -38.5 -76.5 -57.5s-20.5 -42.167 -20.5 -69.5c0 -22 8.66699 -41 26 -57s44 -24 80 -24c34 0 60 7.83301 78 23.5s27 36.834 27 63.501zM373 517.994c0 19.333 -7.33203 36.998 -21.999 52.998s-37.334 24 -68.001 24
c-30 0 -52.5 -8.16699 -67.5 -24.5s-22.5 -34.166 -22.5 -53.499c0 -24 8.33301 -45.333 25 -64s43 -33.667 79 -45c16 8.66699 29 17.167 39 25.5s17.667 16.833 23 25.5s9 17.834 11 27.501s3 20.167 3 31.5z" />
    <glyph glyph-name="eight" unicode="&#xf808;" horiz-adv-x="566" 
d="M510 530c0 -40.667 -10.832 -74.6719 -32.499 -102.005s-47.5 -49.666 -77.5 -66.999c41.333 -20 72.166 -44.167 92.499 -72.5s30.5 -66.166 30.5 -113.499c0 -30 -6.33301 -56.667 -19 -80s-29.834 -43 -51.501 -59s-47.167 -28.167 -76.5 -36.5
s-60.666 -12.5 -93.999 -12.5s-64.5 4 -93.5 12s-54.333 19.5 -76 34.5s-38.667 33.167 -51 54.5s-18.5 45.333 -18.5 72c0 49.333 11.5 88.833 34.5 118.5s55.167 54.5 96.5 74.5c-34 16.667 -61.333 38.667 -82 66s-31 63.333 -31 108
c0 24.667 5.83301 47.834 17.5 69.501s27.5 40.334 47.5 56.001s43.5 28 70.5 37s55.833 13.5 86.5 13.5c32.667 0 63 -4.33301 91 -13s52 -20.667 72 -36s35.667 -33.666 47 -54.999s17 -44.333 17 -69zM388.001 183.995c0 27.333 -8.16797 50.332 -24.501 68.999
s-46.166 36 -89.499 52c-37.333 -19.333 -62.833 -38.5 -76.5 -57.5s-20.5 -42.167 -20.5 -69.5c0 -22 8.66699 -41 26 -57s44 -24 80 -24c34 0 60 7.83301 78 23.5s27 36.834 27 63.501zM373 517.994c0 19.333 -7.33203 36.998 -21.999 52.998s-37.334 24 -68.001 24
c-30 0 -52.5 -8.16699 -67.5 -24.5s-22.5 -34.166 -22.5 -53.499c0 -24 8.33301 -45.333 25 -64s43 -33.667 79 -45c16 8.66699 29 17.167 39 25.5s17.667 16.833 23 25.5s9 17.834 11 27.501s3 20.167 3 31.5z" />
    <glyph glyph-name="nine" unicode="9" horiz-adv-x="567" 
d="M205 101c60.667 0 104.668 17.5 132.001 52.5s44 84.167 50 147.5c-13.333 -26.667 -33 -46.5 -59 -59.5s-55 -19.5 -87 -19.5c-24.667 0 -49.334 4.66699 -74.001 14s-46.834 23.5 -66.501 42.5s-35.667 42.833 -48 71.5s-18.5 62.667 -18.5 102
c0 40.667 6.5 76.5 19.5 107.5s30.667 57.167 53 78.5s48.166 37.5 77.499 48.5s60.333 16.5 93 16.5c78.667 0 139.334 -25.333 182.001 -76s64 -128.667 64 -234c0 -130.667 -25 -231 -75 -301s-125.667 -105 -227 -105c-12 0 -25.667 0.666992 -41 2s-30.666 3 -45.999 5
s-30 4.66699 -44 8s-26 7 -36 11l23 105c16.667 -5.33301 37 -9.5 61 -12.5s46.333 -4.5 67 -4.5zM277.001 592c-38 0 -65.167 -12.001 -81.5 -36.001s-24.5 -53 -24.5 -87c0 -44 8.66699 -77.5 26 -100.5s42 -34.5 74 -34.5c16.667 0 32 3.33301 46 10
s25.833 15.5 35.5 26.5s17.167 23.833 22.5 38.5s8 30.334 8 47.001s-2 33.167 -6 49.5s-10.333 31 -19 44s-19.667 23.333 -33 31s-29.333 11.5 -48 11.5z" />
    <glyph glyph-name="nine" unicode="&#xf809;" horiz-adv-x="567" 
d="M205 101c60.667 0 104.668 17.5 132.001 52.5s44 84.167 50 147.5c-13.333 -26.667 -33 -46.5 -59 -59.5s-55 -19.5 -87 -19.5c-24.667 0 -49.334 4.66699 -74.001 14s-46.834 23.5 -66.501 42.5s-35.667 42.833 -48 71.5s-18.5 62.667 -18.5 102
c0 40.667 6.5 76.5 19.5 107.5s30.667 57.167 53 78.5s48.166 37.5 77.499 48.5s60.333 16.5 93 16.5c78.667 0 139.334 -25.333 182.001 -76s64 -128.667 64 -234c0 -130.667 -25 -231 -75 -301s-125.667 -105 -227 -105c-12 0 -25.667 0.666992 -41 2s-30.666 3 -45.999 5
s-30 4.66699 -44 8s-26 7 -36 11l23 105c16.667 -5.33301 37 -9.5 61 -12.5s46.333 -4.5 67 -4.5zM277.001 592c-38 0 -65.167 -12.001 -81.5 -36.001s-24.5 -53 -24.5 -87c0 -44 8.66699 -77.5 26 -100.5s42 -34.5 74 -34.5c16.667 0 32 3.33301 46 10
s25.833 15.5 35.5 26.5s17.167 23.833 22.5 38.5s8 30.334 8 47.001s-2 33.167 -6 49.5s-10.333 31 -19 44s-19.667 23.333 -33 31s-29.333 11.5 -48 11.5z" />
    <glyph glyph-name="colon" unicode=":" horiz-adv-x="292" 
d="M213 74c0 -24.667 -7 -44.667 -21 -60s-33 -23 -57 -23s-43 8 -57 24s-21 35.667 -21 59s7 43 21 59s33 24 57 24s43 -7.66699 57 -23s21 -35.333 21 -60zM213 430c0 -24.667 -7 -44.667 -21 -60s-33 -23 -57 -23s-43 8 -57 24s-21 35.667 -21 59s7 43 21 59s33 24 57 24
s43 -7.66699 57 -23s21 -35.333 21 -60z" />
    <glyph glyph-name="semicolon" unicode=";" horiz-adv-x="282" 
d="M52 71c0 25.333 7.16602 45.334 21.499 60.001s33.833 22 58.5 22c24 0 43.333 -7.83301 58 -23.5s22 -37.834 22 -66.501c0 -23.333 -5.16699 -47.666 -15.5 -72.999s-22.333 -49.333 -36 -72s-27.5 -42.834 -41.5 -60.501l-32 -39.5l-60 38
c4.66699 7.33301 10.334 16.833 17.001 28.5s13.334 24 20.001 37s13 26.167 19 39.5s10.667 26 14 38c-12.667 6.66699 -23.334 16 -32.001 28s-13 26.667 -13 44zM206.999 430.001c0 -24.667 -7 -44.667 -21 -60s-33 -23 -57 -23s-43 8 -57 24s-21 35.667 -21 59
s7 43 21 59s33 24 57 24s43 -7.66699 57 -23s21 -35.333 21 -60z" />
    <glyph glyph-name="less" unicode="&#x3c;" horiz-adv-x="592" 
d="M514 209l-41 -104l-395 184v112l395 184l41 -103l-308 -136z" />
    <glyph glyph-name="equal" unicode="=" horiz-adv-x="592" 
d="M89 503h442v-116h-442v116zM89 283h442v-116h-442v116z" />
    <glyph glyph-name="greater" unicode="&#x3e;" horiz-adv-x="592" 
d="M78 482l41 103l395 -184v-112l-395 -184l-41 104l308 136z" />
    <glyph glyph-name="question" unicode="?" horiz-adv-x="566" 
d="M185 222c0 25.333 2.33105 47.667 6.99805 67s11.334 36.833 20.001 52.5s19.5 30.167 32.5 43.5s28.167 27 45.5 41c16 13.333 31.667 27.666 47 42.999s23 33.666 23 54.999c0 19.333 -7.83301 37 -23.5 53s-38.834 24 -69.501 24s-60 -6.66699 -88 -20
s-53 -30.666 -75 -51.999l-68 86c10 12 22.667 24.167 38 36.5s33 23.5 53 33.5s42.333 18.167 67 24.5s51.334 9.5 80.001 9.5c43.333 0 79.666 -6 108.999 -18s52.833 -27.333 70.5 -46s30.334 -39.5 38.001 -62.5s11.5 -45.833 11.5 -68.5c0 -18 -3 -35.167 -9 -51.5
s-13.833 -31.333 -23.5 -45s-20.334 -26 -32.001 -37s-23.167 -20.5 -34.5 -28.5c-11.333 -7.33301 -22.166 -15.166 -32.499 -23.499s-19.666 -18 -27.999 -29s-15 -23.667 -20 -38s-7.5 -30.833 -7.5 -49.5h-131zM331.998 74.001c0 -24.667 -7 -44.667 -21 -60
s-33 -23 -57 -23s-43 8 -57 24s-21 35.667 -21 59s7 43 21 59s33 24 57 24s43 -7.66699 57 -23s21 -35.333 21 -60z" />
    <glyph glyph-name="at" unicode="@" horiz-adv-x="1045" 
d="M962 -131c-26 -18 -54.4961 -33.8291 -85.4961 -47.4961s-63.667 -25.334 -98 -35.001s-69.833 -17 -106.5 -22s-73.667 -7.5 -111 -7.5c-88 0 -164.333 11.333 -229 34s-118.167 54.5 -160.5 95.5s-73.833 90.333 -94.5 148s-31 121.5 -31 191.5
c0 74.667 13.167 143.667 39.5 207s62.666 118 108.999 164s101.666 82 165.999 108s134.5 39 210.5 39c67.333 0 127.666 -9.5 180.999 -28.5s98.666 -45.5 135.999 -79.5s65.833 -74.167 85.5 -120.5s29.5 -96.5 29.5 -150.5c0 -54.667 -7.66699 -103.667 -23 -147
s-36.333 -80.166 -63 -110.499s-58 -53.5 -94 -69.5s-74.333 -24 -115 -24c-25.333 0 -46.333 5.83301 -63 17.5s-28 24.167 -34 37.5c-18 -15.333 -39.5 -28.333 -64.5 -39s-52.5 -16 -82.5 -16c-24 0 -46.167 4.33301 -66.5 13s-38 21.167 -53 37.5
s-26.833 36.166 -35.5 59.499s-13 49.666 -13 78.999c0 44.667 6 85 18 121s28.5 66.5 49.5 91.5s46 44.167 75 57.5s60.5 20 94.5 20c22 0 40.667 -2.83301 56 -8.5s27.833 -12.5 37.5 -20.5s17.167 -16 22.5 -24s9 -14 11 -18l16 60h95l-53 -277l-5.5 -26.5
c-1.66699 -8.33301 -2.5 -15.166 -2.5 -20.499c0 -8 2.5 -15 7.5 -21s13.167 -9 24.5 -9c16 0 32 5.66699 48 17s30.5 27.333 43.5 48s23.667 45.167 32 73.5s12.5 59.166 12.5 92.499c0 88.667 -27.5 156 -82.5 202s-131.833 69 -230.5 69c-58 0 -110.667 -10 -158 -30
s-87.833 -47.667 -121.5 -83s-59.834 -77.833 -78.501 -127.5s-28 -103.834 -28 -162.501c0 -54 6.83301 -102.667 20.5 -146s35.667 -80.333 66 -111s69.5 -54.334 117.5 -71.001s106 -25 174 -25c68.667 0 131.334 7.5 188.001 22.5s110 38.5 160 70.5zM496.004 113.004
c10 0 19.668 1.6709 29.001 5.00391s17.833 7.16602 25.5 11.499s14.5 9.16602 20.5 14.499s10.667 10 14 14l15 85c2 11.333 3.66699 22.666 5 33.999s2 20.666 2 27.999c0 57.333 -23.667 86 -71 86c-32 0 -58.167 -15.667 -78.5 -47s-30.5 -75.333 -30.5 -132
c0 -36 6.16699 -61.5 18.5 -76.5s29.166 -22.5 50.499 -22.5z" />
    <glyph glyph-name="A" unicode="A" horiz-adv-x="619" 
d="M424 146h-240l-44 -146h-130l230 703h140l229 -703h-141zM220 263h169l-83 277z" />
    <glyph glyph-name="B" unicode="B" horiz-adv-x="625" 
d="M316 703c42.667 0 78.1689 -5.49707 106.502 -16.4971s51 -25.167 68 -42.5s29 -36.833 36 -58.5s10.5 -42.834 10.5 -63.501c0 -24.667 -3.83301 -45.834 -11.5 -63.501s-17.167 -32.5 -28.5 -44.5s-23.833 -21.333 -37.5 -28s-26.834 -11.334 -39.501 -14.001
c15.333 -2 32 -6.33301 50 -13s34.667 -16.667 50 -30s28.166 -31 38.499 -53s15.5 -49 15.5 -81c0 -28 -5.16699 -54 -15.5 -78s-25.833 -44.667 -46.5 -62s-46.5 -30.833 -77.5 -40.5s-67.167 -14.5 -108.5 -14.5h-252v703h242zM302.002 421.003
c36 0 60.999 8.33301 74.999 25s21 37.667 21 63c0 24 -8.16699 42.667 -24.5 56s-37.166 20 -62.499 20h-101v-164h92zM329.001 118.003c20 0 36.667 2.33301 50 7s24 11.167 32 19.5s13.667 18 17 29s5 22.833 5 35.5c0 64 -41.667 96 -125 96h-98v-187h119z" />
    <glyph glyph-name="C" unicode="C" horiz-adv-x="636" 
d="M386 595c-32 0 -59.6689 -6.50098 -83.002 -19.501s-42.666 -30.667 -57.999 -53s-26.666 -48.166 -33.999 -77.499s-11 -60.333 -11 -93c0 -33.333 3.16699 -64.5 9.5 -93.5s16.666 -54.167 30.999 -75.5s32.666 -38 54.999 -50s49.5 -18 81.5 -18
c16.667 0 33.334 1.5 50.001 4.5s32.5 7 47.5 12s28.333 10.333 40 16s20.834 11.167 27.501 16.5l54 -98c-28 -22 -62.333 -40 -103 -54s-85.334 -21 -134.001 -21c-50 0 -94.167 8.33301 -132.5 25s-70.166 40.5 -95.499 71.5s-44.5 68.833 -57.5 113.5
s-19.5 95 -19.5 151c0 52.667 6.83301 101.167 20.5 145.5s34 82.5 61 114.5s60.5 57 100.5 75s86 27 138 27c48 0 90.5 -6.83301 127.5 -20.5s69.5 -32.5 97.5 -56.5l-62 -98c-14 13.333 -33.667 26 -59 38s-56 18 -92 18z" />
    <glyph glyph-name="D" unicode="D" horiz-adv-x="713" 
d="M318 703c58 0 108.333 -8.50195 151 -25.502s78 -41 106 -72s49 -68 63 -111s21 -90.833 21 -143.5c0 -53.333 -7 -101.666 -21 -144.999s-35.167 -80.166 -63.5 -110.499s-63.833 -53.833 -106.5 -70.5s-92.667 -25 -150 -25h-244v703h244zM318 120.998
c30 0 57.166 5.50098 81.499 16.501s44.833 26.667 61.5 47s29.5 44.666 38.5 72.999s13.5 59.833 13.5 94.5c0 78 -17.667 135.833 -53 173.5s-82.666 56.5 -141.999 56.5h-103v-461h103z" />
    <glyph glyph-name="E" unicode="E" horiz-adv-x="547" 
d="M74 703h438v-124h-298v-153h228v-124h-228v-178h308v-124h-448v703z" />
    <glyph glyph-name="F" unicode="F" horiz-adv-x="550" 
d="M86 703h433v-124h-293v-153h224v-124h-224v-302h-140v703z" />
    <glyph glyph-name="G" unicode="G" horiz-adv-x="665" 
d="M390 600c-32.667 0 -60.9961 -6.33594 -84.9961 -19.0029s-43.667 -30.167 -59 -52.5s-26.833 -48.666 -34.5 -78.999s-11.5 -63.166 -11.5 -98.499s3.5 -67.833 10.5 -97.5s18.167 -55.167 33.5 -76.5s35 -38.166 59 -50.499s52.667 -18.5 86 -18.5
c19.333 0 37 1.33301 53 4s30.667 5.66699 44 9v175h-129v116h254v-384c-7.33301 -3.33301 -17.666 -7.5 -30.999 -12.5s-29.833 -9.83301 -49.5 -14.5s-42.834 -8.66699 -69.501 -12s-57 -5 -91 -5c-51.333 0 -96.666 8.33301 -135.999 25s-72.333 40.667 -99 72
s-46.834 69.666 -60.501 114.999s-20.5 97 -20.5 155c0 54 7 103.5 21 148.5s34.667 83.833 62 116.5s61.166 58 101.499 76s87.166 27 140.499 27c46 0 87.333 -6.33301 124 -19s69 -30 97 -52l-59 -99c-14.667 10.667 -34.834 21.834 -60.501 33.501
s-55.834 17.5 -90.501 17.5z" />
    <glyph glyph-name="H" unicode="H" horiz-adv-x="689" 
d="M475 703h140v-703h-140v310h-260v-310h-141v703h141v-267h260v267z" />
    <glyph glyph-name="I" unicode="I" horiz-adv-x="289" 
d="M215 0h-141v703h141v-703z" />
    <glyph glyph-name="J" unicode="J" horiz-adv-x="518" 
d="M312 703l140.999 0.000976562v-472c0 -86 -20 -148.667 -60 -188s-101.667 -59 -185 -59c-25.333 0 -49.333 2.5 -72 7.5s-42.667 10.667 -60 17s-31.666 12.5 -42.999 18.5s-18 10 -20 12l44 101l19.5 -9.5c9 -4.33301 19.833 -8.5 32.5 -12.5s26.667 -7.66699 42 -11
s31.333 -5 48 -5c16 0 31 1.83301 45 5.5s26 10.5 36 20.5s17.833 24.167 23.5 42.5s8.5 42.166 8.5 71.499v461z" />
    <glyph glyph-name="K" unicode="K" horiz-adv-x="668" 
d="M215 0h-141v703h141v-325l261 325h153l-263 -323l292 -380h-168l-275 368v-368z" />
    <glyph glyph-name="L" unicode="L" horiz-adv-x="557" 
d="M227 124h296v-124h-437v703h141v-579z" />
    <glyph glyph-name="M" unicode="M" horiz-adv-x="816" 
d="M742 703v-703h-133v475l-153 -308h-104l-145 296v-463h-133v703h150l184 -387l183 387h151z" />
    <glyph glyph-name="N" unicode="N" horiz-adv-x="698" 
d="M207 490v-490h-133v703h141l276 -480v480h133v-703h-130z" />
    <glyph glyph-name="O" unicode="O" horiz-adv-x="747" 
d="M54 352c0 53.333 6.33301 102.5 19 147.5s32.167 83.667 58.5 116s59.5 57.666 99.5 75.999s87.333 27.5 142 27.5s102.167 -9.16699 142.5 -27.5s73.666 -43.666 99.999 -75.999s45.833 -71 58.5 -116s19 -94.167 19 -147.5s-6.33301 -102.5 -19 -147.5
s-32.167 -83.833 -58.5 -116.5s-59.666 -58.167 -99.999 -76.5s-87.833 -27.5 -142.5 -27.5s-102 9.16699 -142 27.5s-73.167 43.833 -99.5 76.5s-45.833 71.5 -58.5 116.5s-19 94.167 -19 147.5zM200 352c0 -74.667 14.167 -133.334 42.5 -176.001s71.833 -64 130.5 -64
s102.167 21.333 130.5 64s42.5 101.334 42.5 176.001s-14.167 133.167 -42.5 175.5s-71.833 63.5 -130.5 63.5s-102.167 -21.167 -130.5 -63.5s-42.5 -100.833 -42.5 -175.5z" />
    <glyph glyph-name="P" unicode="P" horiz-adv-x="596" 
d="M425 474c0 20.667 -3.33203 38.165 -9.99902 52.498s-15.667 25.833 -27 34.5s-24.333 14.834 -39 18.501s-30.334 5.5 -47.001 5.5h-87v-222h78c18.667 0 36 1.83301 52 5.5s30 9.83398 42 18.501s21.333 20 28 34s10 31.667 10 53zM564.001 473.998
c0 -27.333 -4.33008 -54.666 -12.9971 -81.999s-23.334 -51.833 -44.001 -73.5s-48.334 -39.334 -83.001 -53.001s-77.667 -20.5 -129 -20.5h-80v-245h-141v703h230c49.333 0 90.666 -6.83301 123.999 -20.5s60 -31.334 80 -53.001s34.333 -46.167 43 -73.5
s13 -54.666 13 -81.999z" />
    <glyph glyph-name="Q" unicode="Q" horiz-adv-x="752" 
d="M693 352c0 -78.667 -13.167 -146.834 -39.5 -204.501s-66.5 -100.5 -120.5 -128.5c21.333 -21.333 46.833 -37.5 76.5 -48.5s64.5 -19.5 104.5 -25.5l-28 -109c-62 5.33301 -119.167 21.333 -171.5 48s-95.5 60.334 -129.5 101.001h-11c-54 0 -101 8.66699 -141 26
s-73.167 42 -99.5 74s-46.166 70.5 -59.499 115.5s-20 95.5 -20 151.5c0 53.333 6.33301 102.5 19 147.5s32.167 83.667 58.5 116s59.5 57.666 99.5 75.999s87.333 27.5 142 27.5s102.167 -9.16699 142.5 -27.5s73.666 -43.666 99.999 -75.999s45.833 -71 58.5 -116
s19 -94.167 19 -147.5zM546 352c0 74.667 -14.167 133.167 -42.5 175.5s-71.833 63.5 -130.5 63.5s-102.167 -21.167 -130.5 -63.5s-42.5 -100.833 -42.5 -175.5s14.167 -133.334 42.5 -176.001s71.833 -64 130.5 -64s102.167 21.333 130.5 64s42.5 101.334 42.5 176.001z
" />
    <glyph glyph-name="R" unicode="R" horiz-adv-x="628" 
d="M610 0l-160.002 0.00195312l-155 262h-82v-262h-139v703h242c50.667 0 92.334 -6.83301 125.001 -20.5s58.334 -30.834 77.001 -51.501s31.667 -43.334 39 -68.001s11 -48 11 -70c0 -50 -12.667 -91.5 -38 -124.5s-60 -56.833 -104 -71.5zM428.998 483.002
c0 39.333 -11.833 66.167 -35.5 80.5s-58.5 21.5 -104.5 21.5h-76v-205h70c48.667 0 85.167 8.16699 109.5 24.5s36.5 42.5 36.5 78.5z" />
    <glyph glyph-name="S" unicode="S" horiz-adv-x="577" 
d="M226 304c-25.333 7.33301 -49.1631 17 -71.4961 29s-41.833 26.167 -58.5 42.5s-29.834 35.333 -39.501 57s-14.5 45.5 -14.5 71.5c0 70 20.667 123.333 62 160s101.333 55 180 55c22 0 43.667 -1.66699 65 -5s41.333 -7.66602 60 -12.999s35.667 -11.333 51 -18
s28.666 -13.334 39.999 -20.001l-51 -106c-13.333 8 -34.5 17 -63.5 27s-63.5 15 -103.5 15c-11.333 0 -22.833 -1.33301 -34.5 -4s-22.334 -7.16699 -32.001 -13.5s-17.5 -14.666 -23.5 -24.999s-9 -22.833 -9 -37.5c0 -9.33301 1.33301 -18.166 4 -26.499
s7.83398 -16.5 15.501 -24.5s18 -15.5 31 -22.5s29.833 -13.5 50.5 -19.5l64 -18c58 -16 102.833 -40.167 134.5 -72.5s47.5 -76.833 47.5 -133.5c0 -33.333 -6.5 -63.333 -19.5 -90s-30.833 -49.5 -53.5 -68.5s-49.334 -33.667 -80.001 -44s-63.667 -15.5 -99 -15.5
c-32.667 0 -62.834 2.5 -90.501 7.5s-52 10.833 -73 17.5s-38.333 13.334 -52 20.001s-22.834 11.667 -27.501 15l51 111c8 -4.66699 18.5 -9.66699 31.5 -15s27.667 -10.5 44 -15.5s34.5 -9.16699 54.5 -12.5s41 -5 63 -5c12 0 24.5 1.5 37.5 4.5s24.667 8 35 15
s18.833 15.667 25.5 26s10 23.166 10 38.499c0 8.66699 -1.33301 17.5 -4 26.5s-7.66699 17.667 -15 26s-17.166 16.166 -29.499 23.499s-28.5 13.666 -48.5 18.999z" />
    <glyph glyph-name="T" unicode="T" horiz-adv-x="607" 
d="M234 576h-203v127h545v-127h-201v-576h-141v576z" />
    <glyph glyph-name="U" unicode="U" horiz-adv-x="682" 
d="M341 -16c-51.333 0 -94.501 6.50195 -129.501 19.502s-63.333 32.167 -85 57.5s-37.334 56.666 -47.001 93.999s-14.5 80.666 -14.5 129.999v418h141v-404c0 -36 2.33301 -66.333 7 -91s12.334 -44.667 23.001 -60s24.5 -26.333 41.5 -33s38.167 -10 63.5 -10
c24.667 0 45.667 3.33301 63 10s31.333 17.667 42 33s18.334 35.166 23.001 59.499s7 54.5 7 90.5v405h141v-419c0 -49.333 -4.83301 -92.666 -14.5 -129.999s-25.5 -68.5 -47.5 -93.5s-50.5 -44 -85.5 -57s-77.833 -19.5 -128.5 -19.5z" />
    <glyph glyph-name="V" unicode="V" horiz-adv-x="623" 
d="M318 164l156 539h142l-230 -703h-140l-239 703h150z" />
    <glyph glyph-name="W" unicode="W" horiz-adv-x="854" 
d="M319 0h-157l-152 703h149l92 -508l104 492h144l103 -492l93 508h149l-153 -703h-157l-107 487z" />
    <glyph glyph-name="X" unicode="X" horiz-adv-x="650" 
d="M19 0l229 370l-199 333h159l121 -216l124 216h149l-201 -325l230 -378h-161l-148 260l-151 -260h-152z" />
    <glyph glyph-name="Y" unicode="Y" horiz-adv-x="606" 
d="M232 308l-222 395h150l147 -273l146 273h143l-223 -395v-308h-141v308z" />
    <glyph glyph-name="Z" unicode="Z" horiz-adv-x="615" 
d="M40 108l353 471h-335v124h508v-108l-359 -471h376v-124h-543v108z" />
    <glyph glyph-name="bracketleft" unicode="[" horiz-adv-x="372" 
d="M80 750h263v-113h-133v-661h133v-112h-263v886z" />
    <glyph glyph-name="backslash" unicode="\" horiz-adv-x="466" 
d="M324 -47l-312 797h131l312 -797h-131z" />
    <glyph glyph-name="bracketright" unicode="]" horiz-adv-x="404" 
d="M324 -136h-263v112h133v661h-133v113h263v-886z" />
    <glyph glyph-name="asciicircum" unicode="^" horiz-adv-x="591" 
d="M541 316h-127l-119 264l-119 -264h-126l178 374h135z" />
    <glyph glyph-name="underscore" unicode="_" horiz-adv-x="514" 
d="M0 -84h514v-119h-514v119z" />
    <glyph glyph-name="grave" unicode="`" horiz-adv-x="506" 
d="M356 570l-246 111l50 101l236 -131z" />
    <glyph glyph-name="a" unicode="a" horiz-adv-x="534" 
d="M345 223c-12.667 2 -27 4.00195 -43 6.00195s-34.667 3 -56 3c-34 0 -57.333 -6.66699 -70 -20s-19 -33 -19 -59c0 -21.333 7.33301 -37.833 22 -49.5s33.667 -17.5 57 -17.5c14 0 27.667 1.83301 41 5.5s25 9.16699 35 16.5s18 16.166 24 26.499s9 22.166 9 35.499v53z
M208 -12.998c-22 0 -43.167 2.66602 -63.5 7.99902s-38.5 14.333 -54.5 27s-28.833 29.334 -38.5 50.001s-14.5 46.667 -14.5 78c0 56.667 16.833 99.334 50.5 128.001s85.5 43 155.5 43c9.33301 0 19.5 -0.333008 30.5 -1s21.5 -1.5 31.5 -2.5s18.667 -1.83301 26 -2.5
s12 -1.33398 14 -2.00098v18c0 26.667 -8.66699 46.5 -26 59.5s-41 19.5 -71 19.5c-40 0 -72.667 -4 -98 -12s-43 -15.333 -53 -22l-39 89c4.66699 3.33301 12.334 8 23.001 14s24.5 11.833 41.5 17.5s36.833 10.667 59.5 15s48.667 6.5 78 6.5
c75.333 0 129.666 -16.167 162.999 -48.5s50 -76.833 50 -133.5v-336h-116l-4 51c-12.667 -15.333 -31 -29.833 -55 -43.5s-54 -20.5 -90 -20.5z" />
    <glyph glyph-name="b" unicode="b" horiz-adv-x="587" 
d="M306 402c-36 0 -63.334 -13.667 -82.001 -41s-28 -67 -28 -119v-94c8.66699 -10.667 21.834 -20.167 39.501 -28.5s38.167 -12.5 61.5 -12.5c38 0 66.167 11.667 84.5 35s27.5 61.333 27.5 114c0 42.667 -8.33301 77.667 -25 105s-42.667 41 -78 41zM176.999 0
l-115.002 -0.00195312v750h134v-305c4 8 10 16.333 18 25s17.833 16.5 29.5 23.5s24.834 12.667 39.501 17s31 6.5 49 6.5c36.667 0 68.334 -6.5 95.001 -19.5s48.667 -31.167 66 -54.5s30.333 -51 39 -83s13 -66.667 13 -104c0 -49.333 -6.16699 -90.666 -18.5 -123.999
s-29 -60.166 -50 -80.499s-45 -35 -72 -44s-54.833 -13.5 -83.5 -13.5c-33.333 0 -62.333 6.33301 -87 19s-42.667 25 -54 37z" />
    <glyph glyph-name="c" unicode="c" horiz-adv-x="480" 
d="M177 252c0 -52 11.168 -89.999 33.501 -113.999s54.5 -36 96.5 -36c28 0 50.667 3.66699 68 11s30.666 14 39.999 20l51 -91l-24 -15.5c-10 -6.33301 -22.167 -12.5 -36.5 -18.5s-30.833 -11.167 -49.5 -15.5s-39.334 -6.5 -62.001 -6.5
c-83.333 0 -146.166 23.833 -188.499 71.5s-63.5 112.5 -63.5 194.5c0 39.333 5.83301 75.333 17.5 108s28.334 60.667 50.001 84s48 41.333 79 54s65.833 19 104.5 19c24.667 0 47.334 -2.83301 68.001 -8.5s38.667 -12.167 54 -19.5s27.666 -14.5 36.999 -21.5
s15.333 -11.833 18 -14.5l-60 -92c-3.33301 2 -8.33301 5.33301 -15 10s-14.667 9.16699 -24 13.5s-19.833 8.16602 -31.5 11.499s-23.834 5 -36.501 5c-38 0 -68.5 -12.333 -91.5 -37s-34.5 -62 -34.5 -112z" />
    <glyph glyph-name="d" unicode="d" horiz-adv-x="587" 
d="M281 402c-18 0 -33.3359 -3.83398 -46.0029 -11.501s-23.334 -18.167 -32.001 -31.5s-15 -29.166 -19 -47.499s-6 -38.166 -6 -59.499c0 -52.667 9.16699 -90 27.5 -112s46.5 -33 84.5 -33c24.667 0 45.834 4.66699 63.501 14s30.167 18.333 37.5 27v87
c0 23.333 -1.66699 45.166 -5 65.499s-9.16602 38 -17.499 53s-19.666 26.833 -33.999 35.5s-32.166 13 -53.499 13zM406.997 49.999c-10.667 -12.667 -27.9951 -25.167 -51.9951 -37.5s-54 -18.5 -90 -18.5c-29.333 0 -57.333 4 -84 12s-50.334 22 -71.001 42
s-37 46.5 -49 79.5s-18 74.5 -18 124.5c0 36.667 4.16699 71 12.5 103s21.166 60 38.499 84s39.166 43 65.499 57s57.5 21 93.5 21c18 0 34.667 -2.16699 50 -6.5s28.666 -10 39.999 -17s21.166 -14.5 29.499 -22.5s14.5 -15.333 18.5 -22v301h134v-750h-115z" />
    <glyph glyph-name="e" unicode="e" horiz-adv-x="548" 
d="M315 99c32.667 0 60 2.5 82 7.5s38.667 9.16699 50 12.5l32 -94c-13.333 -7.33301 -35.166 -15.666 -65.499 -24.999s-68.833 -14 -115.5 -14c-84 0 -147.667 24 -191 72s-65 113.667 -65 197c0 39.333 5.16699 75.166 15.5 107.499s25.666 60 45.999 83
s45.5 40.667 75.5 53s64.667 18.5 104 18.5c35.333 0 66.833 -5.16699 94.5 -15.5s51 -26.5 70 -48.5s33.333 -50.667 43 -86s14.5 -78 14.5 -128v-27h-332c3.33301 -32 16 -58.833 38 -80.5s56.667 -32.5 104 -32.5zM379 305c-2.66699 34.667 -11 60.833 -25 78.5
s-38 26.5 -72 26.5s-59.833 -9.5 -77.5 -28.5s-28.167 -44.5 -31.5 -76.5h206z" />
    <glyph glyph-name="f" unicode="f" horiz-adv-x="388" 
d="M17 391l-0.000976562 112.999h88v38c0 28.667 3 56.334 9 83.001s16.333 50.167 31 70.5s34.5 36.5 59.5 48.5s56.833 18 95.5 18c30 0 54.667 -1.5 74 -4.5s33 -5.5 41 -7.5l-12 -105c-7.33301 1.33301 -16.666 2.5 -27.999 3.5s-25 1.5 -41 1.5
c-32 0 -55.667 -8.16699 -71 -24.5s-23 -45.5 -23 -87.5v-34h133v-113h-133v-391h-135v391h-88z" />
    <glyph glyph-name="g" unicode="g" horiz-adv-x="555" 
d="M463 417c13.333 -11.333 23.834 -25.498 31.501 -42.498s11.5 -33.167 11.5 -48.5c0 -32 -7.33301 -58.833 -22 -80.5s-33 -39 -55 -52s-45.5 -22.333 -70.5 -28s-47.833 -8.5 -68.5 -8.5c-12 0 -28.833 1.33301 -50.5 4s-42.834 8.33398 -63.501 17.001
c-4 -4.66699 -7 -10.834 -9 -18.501s-3 -14.5 -3 -20.5c0 -15.333 5.33301 -27.5 16 -36.5s32.334 -14.167 65.001 -15.5l104 -4c30 -1.33301 57.167 -4.5 81.5 -9.5s45 -13 62 -24s30.167 -25.333 39.5 -43s14 -39.5 14 -65.5c0 -25.333 -5.66699 -48.833 -17 -70.5
s-28.833 -40.5 -52.5 -56.5s-53.834 -28.5 -90.501 -37.5s-80.334 -13.5 -131.001 -13.5c-21.333 0 -44.833 1.83301 -70.5 5.5s-50 10.834 -73 21.501s-42.167 25.5 -57.5 44.5s-23 43.5 -23 73.5c0 26 5.83301 49.5 17.5 70.5s25.834 37.833 42.501 50.5
c-13.333 10.667 -23 22.5 -29 35.5s-9 27.833 -9 44.5c0 23.333 5.66699 44.666 17 63.999s24 35.666 38 48.999c-18.667 15.333 -32.167 33.166 -40.5 53.499s-12.5 40.833 -12.5 61.5c0 33.333 7 61.5 21 84.5s32 41.5 54 55.5s46.167 24.167 72.5 30.5
s51.833 9.5 76.5 9.5c18 0 33.5 -0.666992 46.5 -2s24.833 -2.83301 35.5 -4.5l29.5 -4.5c9 -1.33301 18.167 -2 27.5 -2h127v-92h-15c-10 0 -21 0.5 -33 1.5s-23.333 2.16699 -34 3.5zM259.001 -19.998c-14 0.666992 -30.334 1.66797 -49.001 3.00098s-34 4.33301 -46 9
c-5.33301 -8 -9.83301 -16.5 -13.5 -25.5s-5.5 -19.5 -5.5 -31.5c0 -15.333 3.33301 -27.833 10 -37.5s15.667 -17.167 27 -22.5s24.333 -9 39 -11s29.667 -3 45 -3c54.667 0 92.834 6 114.501 18s32.5 28.667 32.5 50c0 17.333 -6 29.666 -18 36.999s-28.667 11.333 -50 12
zM376 337.003c0 16 -2.66699 29.501 -8 40.501s-12.5 19.833 -21.5 26.5s-19.167 11.5 -30.5 14.5s-23 4.5 -35 4.5s-23.667 -1.5 -35 -4.5s-21.5 -7.83301 -30.5 -14.5s-16.167 -15.5 -21.5 -26.5s-8 -24.5 -8 -40.5s2.66699 -29.5 8 -40.5s12.5 -19.833 21.5 -26.5
s19.167 -11.334 30.5 -14.001s23 -4 35 -4s23.667 1.33301 35 4s21.5 7.16699 30.5 13.5s16.167 15 21.5 26s8 24.833 8 41.5z" />
    <glyph glyph-name="h" unicode="h" horiz-adv-x="573" 
d="M196 438c4.66699 9.33301 11.001 18.666 19.001 27.999s18 17.833 30 25.5s25.667 13.834 41 18.501s33 7 53 7c61.333 0 105.666 -17.5 132.999 -52.5s41 -83.167 41 -144.5v-320h-134v312c0 34 -7.5 57.5 -22.5 70.5s-32.833 19.5 -53.5 19.5c-22 0 -40 -4.5 -54 -13.5
s-24.833 -21.167 -32.5 -36.5s-13 -33 -16 -53s-4.5 -41.333 -4.5 -64v-235h-134v750h134v-312z" />
    <glyph glyph-name="i" unicode="i" horiz-adv-x="266" 
d="M66 504h134v-504h-134v504zM209 676c0 -23.333 -6.83301 -42.6699 -20.5 -58.0029s-32.167 -23 -55.5 -23s-41.833 7.83301 -55.5 23.5s-20.5 34.834 -20.5 57.501s6.83301 41.834 20.5 57.501s32.167 23.5 55.5 23.5s41.833 -7.66699 55.5 -23
s20.5 -34.666 20.5 -57.999z" />
    <glyph glyph-name="j" unicode="j" horiz-adv-x="266" 
d="M200 -11c0 -73.333 -15.668 -128.333 -47.001 -165s-82 -55 -152 -55c-15.333 0 -31.666 1.33301 -48.999 4s-32.333 5.66699 -45 9l13 108l27 -5c10.667 -2 21.667 -3 33 -3c18 0 32.667 3 44 9s20 14.5 26 25.5s10.167 24.667 12.5 41s3.5 34.833 3.5 55.5v491h134
v-515zM208.999 676c0 -23.333 -6.83301 -42.6699 -20.5 -58.0029s-32.167 -23 -55.5 -23s-41.833 7.83301 -55.5 23.5s-20.5 34.834 -20.5 57.501s6.83301 41.834 20.5 57.501s32.167 23.5 55.5 23.5s41.833 -7.66699 55.5 -23s20.5 -34.666 20.5 -57.999z" />
    <glyph glyph-name="k" unicode="k" horiz-adv-x="559" 
d="M196 271l181 233h152l-186 -223l208 -281h-161l-194 268v-268h-134v750h134v-479z" />
    <glyph glyph-name="l" unicode="l" horiz-adv-x="266" 
d="M200 0h-134v750h134v-750z" />
    <glyph glyph-name="m" unicode="m" horiz-adv-x="866" 
d="M604 402c-21.333 0 -38.8379 -4.83203 -52.5049 -14.499s-24.167 -22.334 -31.5 -38.001s-12.333 -33.334 -15 -53.001s-4 -39.834 -4 -60.501v-236h-134v314c0 32 -6.16699 54.667 -18.5 68s-29.166 20 -50.499 20s-38.666 -4.83301 -51.999 -14.5
s-23.666 -22.334 -30.999 -38.001s-12.333 -33.5 -15 -53.5s-4 -40.333 -4 -61v-235h-134v504h122l5 -67c4.66699 8.66699 11.334 17.834 20.001 27.501s18.834 18.334 30.501 26.001s24.834 14 39.501 19s30.667 7.5 48 7.5c70 0 117.667 -26 143 -78
c14 20.667 32.667 38.834 56 54.501s54.666 23.5 93.999 23.5c64 0 111 -17.333 141 -52s45 -83 45 -145v-320h-134v314c0 32 -6 54.667 -18 68s-28.667 20 -50 20z" />
    <glyph glyph-name="n" unicode="n" horiz-adv-x="573" 
d="M196 0l-134 -0.00195312v504h122l5 -67c4.66699 8.66699 11.167 17.667 19.5 27s18.5 18 30.5 26s26 14.5 42 19.5s34 7.5 54 7.5c64 0 109.667 -17.5 137 -52.5s41 -83.167 41 -144.5v-320h-134v312c0 34.667 -7.33301 58.334 -22 71.001s-32.667 19 -54 19
c-22 0 -40 -4.33301 -54 -13s-24.833 -20.667 -32.5 -36s-13 -33.166 -16 -53.499s-4.5 -41.833 -4.5 -64.5v-235z" />
    <glyph glyph-name="o" unicode="o" horiz-adv-x="584" 
d="M292 101c41.333 0 70.667 13.5 88 40.5s26 63.833 26 110.5c0 46 -9.5 82.5 -28.5 109.5s-47.5 40.5 -85.5 40.5s-66.667 -13.5 -86 -40.5s-29 -63.5 -29 -109.5c0 -46.667 8.66699 -83.5 26 -110.5s47 -40.5 89 -40.5zM292.001 517
c38.667 0 73.3291 -6.16699 103.996 -18.5s56.834 -30 78.501 -53s38.167 -50.833 49.5 -83.5s17 -69.334 17 -110.001c0 -86 -22 -151.833 -66 -197.5s-105 -68.5 -183 -68.5s-139.167 23 -183.5 69s-66.5 111.667 -66.5 197c0 40.667 5.83301 77.334 17.5 110.001
s28.334 60.5 50.001 83.5s47.834 40.667 78.501 53s65.334 18.5 104.001 18.5z" />
    <glyph glyph-name="p" unicode="p" horiz-adv-x="587" 
d="M305 402c-22 0 -40.001 -4.50195 -54.001 -13.502s-25.167 -21.167 -33.5 -36.5s-14 -33.166 -17 -53.499s-4.5 -41.833 -4.5 -64.5v-103c7.33301 -5.33301 19.333 -11.333 36 -18s37.334 -10 62.001 -10c34.667 0 62.5 12.333 83.5 37s31.5 63.334 31.5 116.001
c0 42 -8.5 76.833 -25.5 104.5s-43.167 41.5 -78.5 41.5zM331.999 516.998c38 0 70.333 -6.5 97 -19.5s48.667 -31 66 -54s30 -50.5 38 -82.5s12 -67 12 -105c0 -46.667 -6.5 -86.667 -19.5 -120s-30 -60.833 -51 -82.5s-45.333 -37.667 -73 -48
s-55.834 -15.5 -84.501 -15.5c-43.333 0 -83.666 10.333 -120.999 31v-241h-134v724h121l4 -62c4.66699 8.66699 11.5 17.5 20.5 26.5s19.667 17 32 24s26.333 12.833 42 17.5s32.5 7 50.5 7z" />
    <glyph glyph-name="q" unicode="q" horiz-adv-x="587" 
d="M282 402c-35.333 0 -61.5 -13.667 -78.5 -41s-25.5 -62.666 -25.5 -105.999c0 -52 9.16699 -90.333 27.5 -115s43.5 -37 75.5 -37c22 0 42.5 3 61.5 9s35.167 14.667 48.5 26v95c0 22 -1.66699 43.333 -5 64s-9 38.667 -17 54s-19 27.666 -33 36.999s-32 14 -54 14z
M258 517c20.667 0 39.001 -2.50098 55.001 -7.50098s29.833 -11.167 41.5 -18.5s21.167 -15.166 28.5 -23.499s13 -15.5 17 -21.5l4 58h121v-724h-134v253c-15.333 -13.333 -34.5 -23.833 -57.5 -31.5s-46.5 -11.5 -70.5 -11.5c-28 0 -55.333 5 -82 15
s-50.334 25.833 -71.001 47.5s-37.167 49.167 -49.5 82.5s-18.5 73.333 -18.5 120c0 38 4.16699 73.167 12.5 105.5s21.333 60 39 83s40 41 67 54s59.5 19.5 97.5 19.5z" />
    <glyph glyph-name="r" unicode="r" horiz-adv-x="411" 
d="M334 513c20 0 34.834 -0.999023 44.501 -2.99902s17.167 -4 22.5 -6l-10 -114c-3.33301 1.33301 -10.833 3.16602 -22.5 5.49902s-25.167 3.5 -40.5 3.5c-16 0 -31.667 -2.83301 -47 -8.5s-29.333 -15.667 -42 -30s-22.834 -33.5 -30.501 -57.5s-11.5 -54 -11.5 -90v-213
h-134v504h122l5 -77c4.66699 9.33301 11.667 19 21 29s20.333 19.333 33 28s26.667 15.667 42 21s31.333 8 48 8z" />
    <glyph glyph-name="s" unicode="s" horiz-adv-x="490" 
d="M72 135c18 -10 40.332 -19.834 66.999 -29.501s61.667 -14.5 105 -14.5c30 0 50.667 4.33301 62 13s17 19.667 17 33s-4.83301 24.5 -14.5 33.5s-29.167 16.5 -58.5 22.5l-57 12c-21.333 4.66699 -41.166 10.667 -59.499 18s-34.166 17 -47.499 29
s-23.833 26.667 -31.5 44s-11.5 38.333 -11.5 63c0 22 4.5 42.667 13.5 62s22 36 39 50s37.833 25.167 62.5 33.5s52.667 12.5 84 12.5c42 0 80.167 -4.83301 114.5 -14.5s61.166 -20.834 80.499 -33.501l-39 -92c-14 6.66699 -33.167 14 -57.5 22s-53.833 12 -88.5 12
c-32 0 -54.5 -4.16699 -67.5 -12.5s-19.5 -19.833 -19.5 -34.5c0 -11.333 3.83301 -21 11.5 -29s25.167 -14.667 52.5 -20l60 -12c56.667 -11.333 97.834 -29.166 123.501 -53.499s38.5 -58.5 38.5 -102.5c0 -50 -17 -89.333 -51 -118s-87.333 -43 -160 -43
c-48 0 -90.833 6.33301 -128.5 19s-65.834 26.334 -84.501 41.001z" />
    <glyph glyph-name="t" unicode="t" horiz-adv-x="411" 
d="M317 103c14 0 26.168 0.667969 36.501 2.00098s19.166 2.66602 26.499 3.99902l9 -108c-9.33301 -2 -23.166 -4.33301 -41.499 -7s-40.166 -4 -65.499 -4c-62.667 0 -107.334 14.5 -134.001 43.5s-40 68.167 -40 117.5v240h-91v113h91v128l134 30v-158h130v-113h-130
v-218c0 -29.333 6.66699 -48.333 20 -57s31.666 -13 54.999 -13z" />
    <glyph glyph-name="u" unicode="u" horiz-adv-x="573" 
d="M377 504l134 0.000976562v-504h-122l-5 66c-13.333 -21.333 -32.833 -39.833 -58.5 -55.5s-58.834 -23.5 -99.501 -23.5c-59.333 0 -101.833 17.333 -127.5 52s-38.5 83 -38.5 145v320h134v-312c0 -34.667 7.33301 -58.334 22 -71.001s32.334 -19 53.001 -19
c21.333 0 39 4.33301 53 13s25 20.5 33 35.5s13.667 32.5 17 52.5s5 41.667 5 65v236z" />
    <glyph glyph-name="v" unicode="v" horiz-adv-x="521" 
d="M188 0l-180 504h148l109 -372l104 372h144l-180 -504h-145z" />
    <glyph glyph-name="w" unicode="w" horiz-adv-x="710" 
d="M8 504h139l79 -362l78 341h112l76 -341l78 362h132l-137 -504h-136l-74 307l-75 -307h-134z" />
    <glyph glyph-name="x" unicode="x" horiz-adv-x="518" 
d="M346 504h135l-150 -241l177 -263h-157l-106 170l-103 -170h-135l171 261l-163 243h155l92 -149z" />
    <glyph glyph-name="y" unicode="y" horiz-adv-x="528" 
d="M8 504h149l110 -318l115 318h138l-305 -724h-128l107 257z" />
    <glyph glyph-name="z" unicode="z" horiz-adv-x="511" 
d="M43 98l262 298h-253v108h416v-99l-267 -297h266v-108h-424v98z" />
    <glyph glyph-name="braceleft" unicode="{" horiz-adv-x="384" 
d="M49 363c31.333 5.33301 52.501 16.6699 63.501 34.0029s16.5 37.666 16.5 60.999v108c0 28.667 3.83301 54.334 11.5 77.001s20.5 42 38.5 58s41.333 28.167 70 36.5s64 12.5 106 12.5v-113c-23.333 0 -41.5 -2.83301 -54.5 -8.5s-23 -13 -30 -22
s-11.333 -19.667 -13 -32s-2.5 -24.833 -2.5 -37.5v-117c0 -26 -5.5 -48 -16.5 -66s-27.5 -33.667 -49.5 -47c22 -13.333 38.5 -28.833 49.5 -46.5s16.5 -39.834 16.5 -66.501v-117c0 -12.667 0.833008 -25 2.5 -37s6 -22.667 13 -32s17 -16.833 30 -22.5
s31.167 -8.5 54.5 -8.5v-113c-42 0 -77.5 4.16699 -106.5 12.5s-52.333 20.5 -70 36.5s-30.334 35.333 -38.001 58s-11.5 48.667 -11.5 78v107c0 23.333 -5.5 43.666 -16.5 60.999s-32.167 28.666 -63.5 33.999v112z" />
    <glyph glyph-name="bar" unicode="|" horiz-adv-x="289" 
d="M82 -220v970h125v-970h-125z" />
    <glyph glyph-name="braceright" unicode="}" horiz-adv-x="384" 
d="M335 251c-31.333 -5.33301 -52.498 -16.6699 -63.498 -34.0029s-16.5 -37.666 -16.5 -60.999v-107c0 -29.333 -3.83301 -55.333 -11.5 -78s-20.334 -42 -38.001 -58s-40.834 -28.167 -69.501 -36.5s-64.334 -12.5 -107.001 -12.5v113c23.333 0 41.666 2.83301 54.999 8.5
s23.333 13.167 30 22.5s10.834 20 12.501 32s2.5 24.333 2.5 37v117c0 26.667 5.5 48.834 16.5 66.501s27.5 33.167 49.5 46.5c-22 13.333 -38.5 29 -49.5 47s-16.5 40 -16.5 66v117c0 12.667 -0.833008 25.167 -2.5 37.5s-6 23 -13 32s-17.167 16.333 -30.5 22
s-31.333 8.5 -54 8.5v113c42 0 77.5 -4.16699 106.5 -12.5s52.333 -20.5 70 -36.5s30.334 -35.333 38.001 -58s11.5 -48.334 11.5 -77.001v-108c0 -23.333 5.5 -43.666 16.5 -60.999s32.167 -28.666 63.5 -33.999v-112z" />
    <glyph glyph-name="asciitilde" unicode="~" horiz-adv-x="616" 
d="M400 428c22.667 0 42.334 4.33203 59.001 12.999s34.667 22.334 54 41.001l70 -81c-10 -11.333 -21.5 -22.833 -34.5 -34.5s-27 -22 -42 -31s-31 -16.333 -48 -22s-34.833 -8.5 -53.5 -8.5c-23.333 0 -44.333 4.33301 -63 13s-35.667 17.667 -51 27
c-12 7.33301 -24.167 14 -36.5 20s-24.833 9 -37.5 9c-22.667 0 -42.5 -4.5 -59.5 -13.5s-35.5 -22.833 -55.5 -41.5l-69 84c10 10.667 21.333 21.667 34 33s26.5 21.5 41.5 30.5s31.167 16.333 48.5 22s35.666 8.5 54.999 8.5c23.333 0 44.333 -4.33301 63 -13
s35.667 -17.667 51 -27c12 -7.33301 24.167 -14 36.5 -20s24.833 -9 37.5 -9z" />
    <glyph glyph-name="uni00A0" unicode="&#xa0;" horiz-adv-x="245" 
 />
    <glyph glyph-name="exclamdown" unicode="&#xa1;" horiz-adv-x="322" 
d="M232 -200h-141v479h141v-479zM240 429c0 -24.667 -7 -44.667 -21 -60s-33 -23 -57 -23s-43 8 -57 24s-21 35.667 -21 59s7 43 21 59s33 24 57 24s43 -7.66699 57 -23s21 -35.333 21 -60z" />
    <glyph glyph-name="cent" unicode="&#xa2;" horiz-adv-x="592" 
d="M368 609c20.667 -2 39.001 -5.50195 55.001 -10.502s30 -10.667 42 -17s22.167 -12.666 30.5 -18.999s14.5 -11.5 18.5 -15.5l-54 -88c-5.33301 4 -16.333 10.833 -33 20.5s-36.667 16.167 -60 19.5v-308c23.333 2 43 6.33301 59 13s28.667 12.667 38 18l49 -85
c-5.33301 -4 -12.166 -8.83301 -20.499 -14.5s-18.5 -11.334 -30.5 -17.001s-25.833 -10.667 -41.5 -15s-33.834 -7.5 -54.501 -9.5v-94h-72v95c-70.667 8.66699 -123.334 35.834 -158.001 81.501s-52 106.834 -52 183.501c0 36 4.83301 69 14.5 99s23.667 56.333 42 79
s40.5 41.167 66.5 55.5s55 23.5 87 27.5v95h74v-94zM212.001 345.998c0 -42.667 7.16699 -75.667 21.5 -99s34.5 -39.333 60.5 -48v293c-25.333 -8.66699 -45.333 -25 -60 -49s-22 -56.333 -22 -97z" />
    <glyph glyph-name="sterling" unicode="&#xa3;" horiz-adv-x="592" 
d="M85 429l67.001 0.000976562c-2 14.667 -3.66699 29.5 -5 44.5s-2 28.167 -2 39.5c0 28.667 4.33301 55.5 13 80.5s22.334 46.833 41.001 65.5s42.5 33.334 71.5 44.001s63.833 16 104.5 16c24 0 46.167 -2.5 66.5 -7.5s38.166 -11.333 53.499 -19s28.5 -15.5 39.5 -23.5
s19.5 -15 25.5 -21l-63 -97c-2.66699 2.66699 -7.33398 6.66699 -14.001 12s-15.167 10.666 -25.5 15.999s-22 10.166 -35 14.499s-27.167 6.5 -42.5 6.5c-30 0 -53.667 -8 -71 -24s-26 -40 -26 -72c0 -11.333 0.5 -23.5 1.5 -36.5s2.16699 -25.833 3.5 -38.5h159v-109h-141
c1.33301 -9.33301 2.33301 -18.5 3 -27.5s1 -17.167 1 -24.5c0 -22 -3 -41.333 -9 -58s-13 -31.167 -21 -43.5s-16.333 -22.5 -25 -30.5l-21 -19h313v-117h-455v109c9.33301 10 18.666 20.667 27.999 32s17.833 23.833 25.5 37.5s13.834 28.5 18.501 44.5s7 33.667 7 53
c0 6 -0.166992 13 -0.5 21s-0.833008 15.667 -1.5 23h-84v109z" />
    <glyph glyph-name="currency" unicode="&#xa4;" horiz-adv-x="592" 
d="M489 472c10.667 -17.333 18.999 -36.832 24.999 -58.499s9 -44.5 9 -68.5c0 -50 -11.667 -92.667 -35 -128l84 -84l-66 -66l-85 84c-18 -12 -38 -21 -60 -27s-44.667 -9 -68 -9c-48.667 0 -91.334 12 -128.001 36l-85 -84l-66 66l84 83
c-22.667 35.333 -34 78.333 -34 129c0 50 11.667 92.667 35 128l-85 85l66 67l85 -87c18.667 11.333 38.834 20.166 60.501 26.499s44.167 9.5 67.5 9.5c46.667 0 88.334 -11.333 125.001 -34l90 90l69 -70zM403.999 345.001c0 36 -10.5 64.333 -31.5 85s-47.5 31 -79.5 31
c-30.667 0 -56.667 -10.333 -78 -31s-32 -49 -32 -85s10.667 -64.5 32 -85.5s47.333 -31.5 78 -31.5c32 0 58.5 10.5 79.5 31.5s31.5 49.5 31.5 85.5z" />
    <glyph glyph-name="yen" unicode="&#xa5;" horiz-adv-x="592" 
d="M230 0v126h-148v86h148v63h-148v86h119l-188 342h150l138 -284l136 284h144l-190 -342h122v-86h-151v-63h151v-86h-151v-126h-132z" />
    <glyph glyph-name="brokenbar" unicode="&#xa6;" horiz-adv-x="289" 
d="M82 398v352h125v-352h-125zM82 -220v353h125v-353h-125z" />
    <glyph glyph-name="section" unicode="&#xa7;" horiz-adv-x="578" 
d="M499 300c0 -60.667 -20 -109.337 -60 -146.004c11.333 -13.333 20.166 -29.166 26.499 -47.499s9.5 -40.5 9.5 -66.5c0 -24.667 -4.33301 -47.667 -13 -69s-21.5 -40 -38.5 -56s-37.833 -28.5 -62.5 -37.5s-53 -13.5 -85 -13.5c-42.667 0 -81.167 5 -115.5 15
s-61.166 21.333 -80.499 34l39 93c13.333 -6.66699 33 -14.334 59 -23.001s55.333 -13 88 -13c10 0 20.167 1.16699 30.5 3.5s19.666 6.33301 27.999 12s15.166 13.334 20.499 23.001s8 21.5 8 35.5c0 15.333 -5 28.333 -15 39s-26.667 20.667 -50 30l-81 33
c-21.333 8.66699 -40.5 18.334 -57.5 29.001s-31.667 23 -44 37s-21.833 30.333 -28.5 49s-10 40.667 -10 66c0 28 4.83301 54.333 14.5 79s24.834 46.667 45.501 66c-12 13.333 -21.167 29.333 -27.5 48s-9.5 41 -9.5 67c0 24.667 4.5 47.834 13.5 69.501
s22 40.334 39 56.001s38 28 63 37s53.167 13.5 84.5 13.5c42.667 0 81 -5 115 -15s60.667 -21.333 80 -34l-39 -93c-19.333 10 -42.166 18.5 -68.499 25.5s-52.166 10.5 -77.499 10.5c-22.667 0 -42.834 -5.66699 -60.501 -17s-26.5 -30 -26.5 -56
c0 -17.333 5.66699 -31.333 17 -42s27 -20 47 -28l82 -33c42.667 -17.333 76.667 -39.5 102 -66.5s38 -65.167 38 -114.5zM239 400.997l-37 16c-18 -23.333 -27 -47.333 -27 -72c0 -13.333 2.33301 -24.666 7 -33.999s11 -17.5 19 -24.5s17.5 -13.167 28.5 -18.5
s22.833 -10.666 35.5 -15.999l61 -26l38 -16c8 10.667 14.5 22 19.5 34s7.5 24.667 7.5 38s-2.33301 24.666 -7 33.999s-11.167 17.5 -19.5 24.5s-18 13.167 -29 18.5s-22.833 10.666 -35.5 15.999z" />
    <glyph glyph-name="dieresis" unicode="&#xa8;" horiz-adv-x="504" 
d="M210 674c0 -23.333 -6.83301 -42.5 -20.5 -57.5s-31.834 -22.5 -54.501 -22.5s-40.834 7.83301 -54.501 23.5s-20.5 34.5 -20.5 56.5s6.83301 40.833 20.5 56.5s31.834 23.5 54.501 23.5s40.834 -7.5 54.501 -22.5s20.5 -34.167 20.5 -57.5zM444 674
c0 -23.333 -6.83301 -42.5 -20.5 -57.5s-31.834 -22.5 -54.501 -22.5s-40.834 7.83301 -54.501 23.5s-20.5 34.5 -20.5 56.5s6.83301 40.833 20.5 56.5s31.834 23.5 54.501 23.5s40.834 -7.5 54.501 -22.5s20.5 -34.167 20.5 -57.5z" />
    <glyph glyph-name="copyright" unicode="&#xa9;" horiz-adv-x="797" 
d="M763 353c0 -51.333 -9.33203 -99.333 -27.999 -144s-44.334 -83.5 -77.001 -116.5s-71.167 -58.833 -115.5 -77.5s-92.166 -28 -143.499 -28s-99.166 9.33301 -143.499 28s-82.833 44.5 -115.5 77.5s-58.334 71.833 -77.001 116.5s-28 92.667 -28 144
c0 50.667 9.33301 98.334 28 143.001s44.334 83.5 77.001 116.5s71.167 59 115.5 78s92.5 28.5 144.5 28.5c51.333 0 99.166 -9.5 143.499 -28.5s82.666 -45 114.999 -78s57.833 -71.833 76.5 -116.5s28 -92.334 28 -143.001zM321.001 352
c0 -36.667 8.17285 -63.6709 24.5059 -81.0039s37.833 -26 64.5 -26c23.333 0 43.166 2.83301 59.499 8.5s27.166 9.83398 32.499 12.501l31 -67c-1.33301 -1.33301 -5.33301 -4.16602 -12 -8.49902s-15.334 -8.66602 -26.001 -12.999s-23.334 -8.16602 -38.001 -11.499
s-31 -5 -49 -5c-58.667 0 -103.5 16.667 -134.5 50s-46.5 80.333 -46.5 141c0 58 15.667 104.333 47 139s76 52 134 52c18.667 0 35.667 -2 51 -6s28.333 -8.5 39 -13.5s19.167 -9.83301 25.5 -14.5s10.166 -7.66699 11.499 -9l-33 -68
c-2.66699 2.66699 -12.834 7.66699 -30.501 15s-38.167 11 -61.5 11c-26.667 0 -48.167 -8.66699 -64.5 -26s-24.5 -44 -24.5 -80zM663.007 351.996c0 38.667 -6.66406 74.5 -19.9971 107.5s-31.666 61.833 -54.999 86.5s-51 44 -83 58s-67 21 -105 21s-73.333 -7 -106 -21
s-60.834 -33.333 -84.501 -58s-42.167 -53.5 -55.5 -86.5s-20 -68.833 -20 -107.5s6.66699 -74.5 20 -107.5s31.666 -61.667 54.999 -86s51.333 -43.5 84 -57.5s68 -21 106 -21s73.167 7 105.5 21s60.166 33.167 83.499 57.5s41.666 53 54.999 86s20 68.833 20 107.5z" />
    <glyph glyph-name="ordfeminine" unicode="&#xaa;" horiz-adv-x="383" 
d="M220 535c-1.33301 0 -5.5 0.667969 -12.5 2.00098s-16.167 2 -27.5 2s-22.333 -2.83301 -33 -8.5s-16 -16.167 -16 -31.5c0 -21.333 10 -32 30 -32c18.667 0 33.167 4.66699 43.5 14s15.5 21.666 15.5 36.999v17zM243 407.001l-3.00098 34
c-10.667 -12.667 -24.334 -22.834 -41.001 -30.501s-34.667 -11.5 -54 -11.5c-30 0 -55.667 7.66699 -77 23s-32 40.333 -32 75c0 30.667 10.5 56.167 31.5 76.5s56.5 30.5 106.5 30.5c21.333 0 37 -1.66699 47 -5v9c0 30 -19 45 -57 45
c-17.333 0 -33.333 -2.16699 -48 -6.5s-27.667 -9.16602 -39 -14.499l-23 63c7.33301 4.66699 21.5 10.5 42.5 17.5s46.5 10.5 76.5 10.5c18.667 0 36.834 -2 54.501 -6s33.334 -10.5 47.001 -19.5s24.667 -21.167 33 -36.5s12.5 -34 12.5 -56v-198h-77zM319.999 267.001
h-284v83h284v-83z" />
    <glyph glyph-name="guillemotleft" unicode="&#xab;" horiz-adv-x="535" 
d="M157 57l-115 193l115 193h123l-111 -193l111 -193h-123zM370 57l-115 193l115 193h123l-111 -193l111 -193h-123z" />
    <glyph glyph-name="logicalnot" unicode="&#xac;" horiz-adv-x="592" 
d="M76 492h440v-297h-120v181h-320v116z" />
    <glyph glyph-name="uni00AD" unicode="&#xad;" horiz-adv-x="430" 
d="M52 344h326v-128h-326v128z" />
    <glyph glyph-name="registered" unicode="&#xae;" horiz-adv-x="797" 
d="M763 353c0 -51.333 -9.33203 -99.333 -27.999 -144s-44.334 -83.5 -77.001 -116.5s-71.167 -58.833 -115.5 -77.5s-92.166 -28 -143.499 -28s-99.166 9.33301 -143.499 28s-82.833 44.5 -115.5 77.5s-58.334 71.833 -77.001 116.5s-28 92.667 -28 144
c0 50.667 9.33301 98.334 28 143.001s44.334 83.5 77.001 116.5s71.167 59 115.5 78s92.5 28.5 144.5 28.5c51.333 0 99.166 -9.5 143.499 -28.5s82.666 -45 114.999 -78s57.833 -71.833 76.5 -116.5s28 -92.334 28 -143.001zM663.001 352
c0 38 -6.66406 73.667 -19.9971 107s-31.666 62.333 -54.999 87s-51 44 -83 58s-67 21 -105 21s-73.333 -7 -106 -21s-60.834 -33.333 -84.501 -58s-42.167 -53.667 -55.5 -87s-20 -69 -20 -107s6.66699 -73.667 20 -107s31.666 -62.166 54.999 -86.499
s51.333 -43.5 84 -57.5s68 -21 106 -21s73.167 7 105.5 21s60.166 33.167 83.499 57.5s41.666 53.166 54.999 86.499s20 69 20 107zM554.004 165l-93.999 -0.000976562l-70 132h-41v-132h-87v373h145c24 0 44.333 -3.66699 61 -11s30.167 -16.666 40.5 -27.999
s17.666 -23.833 21.999 -37.5s6.5 -26.5 6.5 -38.5c0 -32 -6 -56.667 -18 -74s-28 -30 -48 -38zM449.005 417.999c0 15.333 -4.66797 26.333 -14.001 33s-23.666 10 -42.999 10h-43v-86h40c40 0 60 14.333 60 43z" />
    <glyph glyph-name="macron" unicode="&#xaf;" horiz-adv-x="505" 
d="M98 601v106h308v-106h-308z" />
    <glyph glyph-name="degree" unicode="&#xb0;" horiz-adv-x="493" 
d="M400 557c0 -22 -4 -41.998 -12 -59.998s-18.833 -33.667 -32.5 -47s-29.834 -23.666 -48.501 -30.999s-38.667 -11 -60 -11c-22 0 -42.333 3.66699 -61 11s-34.834 17.5 -48.501 30.5s-24.334 28.667 -32.001 47s-11.5 38.166 -11.5 59.499s3.83301 41.166 11.5 59.499
s18.334 34.166 32.001 47.499s29.834 23.666 48.501 30.999s38.667 11 60 11c22 0 42.333 -3.66699 61 -11s34.834 -17.5 48.501 -30.5s24.5 -28.667 32.5 -47s12 -38.166 12 -59.499zM316 557.002c0 19.333 -6.5 35.667 -19.5 49s-29.833 20 -50.5 20
c-19.333 0 -35.5 -6.66699 -48.5 -20s-19.5 -30 -19.5 -50s6.5 -36.667 19.5 -50s29.5 -20 49.5 -20s36.5 6.66699 49.5 20s19.5 30.333 19.5 51z" />
    <glyph glyph-name="plusminus" unicode="&#xb1;" horiz-adv-x="614" 
d="M66 497h181v182h120v-182h180v-116h-180v-182h-120v182h-181v116zM66 116h481v-116h-481v116z" />
    <glyph glyph-name="twosuperior" unicode="&#xb2;" 
d="M167 508c24 15.333 40.834 29.002 50.501 41.002s14.5 23.333 14.5 34c0 11.333 -3.66699 20.5 -11 27.5s-18.666 10.5 -33.999 10.5c-13.333 0 -27.5 -4.5 -42.5 -13.5s-29.5 -21.167 -43.5 -36.5l-56 58c4.66699 6 11.5 13.333 20.5 22s20 16.834 33 24.501
s27.833 14.167 44.5 19.5s35.667 8 57 8c27.333 0 50.166 -3.5 68.499 -10.5s33.166 -16 44.499 -27s19.333 -22.833 24 -35.5s7 -24.334 7 -35.001c0 -29.333 -9.33301 -54.333 -28 -75s-41 -39.667 -67 -57c-12.667 -8 -23 -14.833 -31 -20.5s-14.333 -10.834 -19 -15.501
s-8.33398 -9.33398 -11.001 -14.001s-5 -10 -7 -16h174v-85h-296v20c0 36 7.83301 68 23.5 96s43.834 54.667 84.501 80z" />
    <glyph glyph-name="threesuperior" unicode="&#xb3;" 
d="M143 545l38.0039 0.00195312c28 0 47.167 3.83301 57.5 11.5s15.5 17.167 15.5 28.5c0 9.33301 -4.5 17.666 -13.5 24.999s-23.5 11 -43.5 11c-12 0 -23.167 -1.33301 -33.5 -4s-19.5 -5.83398 -27.5 -9.50098s-14.833 -7.33398 -20.5 -11.001
s-9.83398 -6.5 -12.501 -8.5l-34 67c12 10.667 31.333 21.334 58 32.001s57 16 91 16c26 0 47.833 -2.83301 65.5 -8.5s32 -13.167 43 -22.5s19 -20.166 24 -32.499s7.5 -25.5 7.5 -39.5c0 -20.667 -6 -38.334 -18 -53.001s-26.333 -26 -43 -34
c20 -6.66699 36.5 -17.834 49.5 -33.501s19.5 -34.5 19.5 -56.5c0 -38.667 -14.667 -68.167 -44 -88.5s-70 -30.5 -122 -30.5c-24 0 -48.333 2 -73 6s-43.667 8 -57 12l16 82c13.333 -4.66699 29.166 -8.5 47.499 -11.5s35.166 -4.5 50.499 -4.5
c28 0 47.833 3.83301 59.5 11.5s17.5 18.834 17.5 33.501c0 11.333 -5.33301 20.5 -16 27.5s-31.334 10.5 -62.001 10.5h-40v74z" />
    <glyph glyph-name="acute" unicode="&#xb4;" horiz-adv-x="506" 
d="M346 782l50 -101l-246 -111l-40 81z" />
    <glyph glyph-name="mu" unicode="&#xb5;" horiz-adv-x="573" 
d="M62 504l133.999 -0.000976562v-307c0 -34 7.33301 -58.333 22 -73s32.334 -22 53.001 -22c22 0 40 4.16699 54 12.5s25 19.833 33 34.5s13.667 31.834 17 51.501s5 41.167 5 64.5v239h134v-504h-122l-5 66c-10 -21.333 -24.167 -39.833 -42.5 -55.5
s-42.5 -23.5 -72.5 -23.5c-14.667 0 -29 2.83301 -43 8.5s-26.333 14.167 -37 25.5v-241h-130v724z" />
    <glyph glyph-name="paragraph" unicode="&#xb6;" horiz-adv-x="672" 
d="M283 278c-37.333 0 -70.834 5.00098 -100.501 15.001s-55 24.167 -76 42.5s-37.167 40.333 -48.5 66s-17 54.5 -17 86.5c0 38 6.33301 70.667 19 98s30.334 49.666 53.001 66.999s50 30 82 38s67.667 12 107 12h288v-839h-115v730h-76v-730h-116v414z" />
    <glyph glyph-name="periodcentered" unicode="&#xb7;" horiz-adv-x="270" 
d="M213 361c0 -24.667 -7 -44.667 -21 -60s-33 -23 -57 -23s-43 8 -57 24s-21 35.667 -21 59s7 43 21 59s33 24 57 24s43 -7.66699 57 -23s21 -35.333 21 -60z" />
    <glyph glyph-name="cedilla" unicode="&#xb8;" horiz-adv-x="505" 
d="M281 0l-10 -54.001c34 -3.33301 61.167 -13.166 81.5 -29.499s30.5 -40.5 30.5 -72.5c0 -38.667 -14.167 -67.334 -42.5 -86.001s-65.5 -28 -111.5 -28c-28.667 0 -52.667 2.5 -72 7.5s-30.666 8.16699 -33.999 9.5l21 72c11.333 -3.33301 23.333 -6.33301 36 -9
s25.667 -4 39 -4c44 0 66 12.333 66 37c0 8.66699 -4.5 16.334 -13.5 23.001s-24.167 10 -45.5 10c-10 0 -18.833 -0.333008 -26.5 -1s-13.834 -1.66699 -18.501 -3l30 128h70z" />
    <glyph glyph-name="onesuperior" unicode="&#xb9;" 
d="M183 590l-96 -53l-42 75l156 84h87v-384h-105v278z" />
    <glyph glyph-name="ordmasculine" unicode="&#xba;" horiz-adv-x="380" 
d="M191 398c-50.667 0 -89.5 14.667 -116.5 44s-40.5 69 -40.5 119c0 48 13.667 87.167 41 117.5s66 45.5 116 45.5s88.667 -15 116 -45s41 -69.333 41 -118c0 -50 -13.5 -89.667 -40.5 -119s-65.833 -44 -116.5 -44zM191 473c19.333 0 33.666 7.66699 42.999 23
s14 37 14 65s-4.66699 49.833 -14 65.5s-23.666 23.5 -42.999 23.5s-33.833 -7.83301 -43.5 -23.5s-14.5 -37.5 -14.5 -65.5s4.83301 -49.667 14.5 -65s24.167 -23 43.5 -23zM345 267h-308v83h308v-83z" />
    <glyph glyph-name="guillemotright" unicode="&#xbb;" horiz-adv-x="535" 
d="M153 250l-111 193h123l115 -193l-115 -193h-123zM366 250l-111 193h123l115 -193l-115 -193h-123z" />
    <glyph glyph-name="onequarter" unicode="&#xbc;" horiz-adv-x="916" 
d="M159 590l-96 -53l-42 75l156 84h87v-384h-105v278zM809 222v-65h48v-85h-48v-71h-93v71h-187v66l121 247h108l-110 -228h68v65h93zM564 690h125l-373 -690h-125z" />
    <glyph glyph-name="onehalf" unicode="&#xbd;" horiz-adv-x="916" 
d="M680 197c24 15.333 40.834 29.002 50.501 41.002s14.5 23.333 14.5 34c0 11.333 -3.66699 20.5 -11 27.5s-18.666 10.5 -33.999 10.5c-13.333 0 -27.5 -4.5 -42.5 -13.5s-29.5 -21.167 -43.5 -36.5l-56 58c4.66699 6 11.5 13.333 20.5 22s20 16.834 33 24.501
s27.833 14.167 44.5 19.5s35.667 8 57 8c27.333 0 50.166 -3.5 68.499 -10.5s33.166 -16 44.499 -27s19.333 -22.833 24 -35.5s7 -24.334 7 -35.001c0 -29.333 -9.33301 -54.333 -28 -75s-41 -39.667 -67 -57c-12.667 -8 -23 -14.833 -31 -20.5s-14.333 -10.834 -19 -15.501
s-8.33398 -9.33398 -11.001 -14.001s-5 -10 -7 -16h174v-85h-296v20c0 36 7.83301 68 23.5 96s43.834 54.667 84.501 80zM553.001 690.002h125l-373 -690h-125zM148.001 590.002l-96 -53l-42 75l156 84h87v-384h-105v278z" />
    <glyph glyph-name="threequarters" unicode="&#xbe;" horiz-adv-x="916" 
d="M609 690h125l-373 -690h-125zM854 222v-65h48v-85h-48v-71h-93v71h-187v66l121 247h108l-110 -228h68v65h93zM138 545l38.0039 0.00195312c28 0 47.167 3.83301 57.5 11.5s15.5 17.167 15.5 28.5c0 9.33301 -4.5 17.666 -13.5 24.999s-23.5 11 -43.5 11
c-12 0 -23.167 -1.33301 -33.5 -4s-19.5 -5.83398 -27.5 -9.50098s-14.833 -7.33398 -20.5 -11.001s-9.83398 -6.5 -12.501 -8.5l-34 67c12 10.667 31.333 21.334 58 32.001s57 16 91 16c26 0 47.833 -2.83301 65.5 -8.5s32 -13.167 43 -22.5s19 -20.166 24 -32.499
s7.5 -25.5 7.5 -39.5c0 -20.667 -6 -38.334 -18 -53.001s-26.333 -26 -43 -34c20 -6.66699 36.5 -17.834 49.5 -33.501s19.5 -34.5 19.5 -56.5c0 -38.667 -14.667 -68.167 -44 -88.5s-70 -30.5 -122 -30.5c-24 0 -48.333 2 -73 6s-43.667 8 -57 12l16 82
c13.333 -4.66699 29.166 -8.5 47.499 -11.5s35.166 -4.5 50.499 -4.5c28 0 47.833 3.83301 59.5 11.5s17.5 18.834 17.5 33.501c0 11.333 -5.33301 20.5 -16 27.5s-31.334 10.5 -62.001 10.5h-40v74z" />
    <glyph glyph-name="questiondown" unicode="&#xbf;" horiz-adv-x="566" 
d="M381 282c0 -26 -2.33398 -48.4961 -7.00098 -67.4961s-11.5 -36.333 -20.5 -52s-20 -30.167 -33 -43.5s-27.833 -27 -44.5 -41l-24.5 -21c-8.33301 -7.33301 -15.833 -15 -22.5 -23s-12.167 -16.5 -16.5 -25.5s-6.5 -18.5 -6.5 -28.5c0 -19.333 7.83301 -37 23.5 -53
s38.834 -24 69.501 -24s60 6.66699 88 20s53 30.666 75 51.999l68 -86c-10 -12 -22.667 -24.167 -38 -36.5s-33 -23.5 -53 -33.5s-42.333 -18.167 -67 -24.5s-51.334 -9.5 -80.001 -9.5c-43.333 0 -79.666 6 -108.999 18s-52.833 27.333 -70.5 46s-30.334 39.5 -38.001 62.5
s-11.5 45.833 -11.5 68.5c0 18 3 35.167 9 51.5s13.667 31.166 23 44.499s20 25.666 32 36.999s23.667 21 35 29c10.667 7.33301 21.334 15.166 32.001 23.499s20.167 18 28.5 29s15 23.5 20 37.5s7.5 30.667 7.5 50h131zM392.999 433.004
c0 -23.333 -7.66699 -42.833 -23 -58.5s-34.333 -23.5 -57 -23.5s-41.834 7.83301 -57.501 23.5s-23.5 35.167 -23.5 58.5c0 22.667 7.83301 41.667 23.5 57s34.834 23 57.501 23s41.667 -7.66699 57 -23s23 -34.333 23 -57z" />
    <glyph glyph-name="Agrave" unicode="&#xc0;" horiz-adv-x="619" 
d="M424 146h-240l-44 -146h-130l230 703h140l229 -703h-141zM220 263h169l-83 277zM437 757l-273 98l42 105l264 -119z" />
    <glyph glyph-name="Aacute" unicode="&#xc1;" horiz-adv-x="619" 
d="M424 146h-240l-44 -146h-130l230 703h140l229 -703h-141zM220 263h169l-83 277zM407 960l42 -105l-273 -98l-33 84z" />
    <glyph glyph-name="Acircumflex" unicode="&#xc2;" horiz-adv-x="619" 
d="M424 146h-240l-44 -146h-130l230 703h140l229 -703h-141zM220 263h169l-83 277zM450 759l-145 96l-145 -96l-58 69l158 138h90l158 -138z" />
    <glyph glyph-name="Atilde" unicode="&#xc3;" horiz-adv-x="619" 
d="M424 146h-240l-44 -146h-130l230 703h140l229 -703h-141zM220 263h169l-83 277zM111 781c0 48 10.001 85 30.001 111s49 39 87 39c18 0 34.167 -3 48.5 -9s27.833 -12.5 40.5 -19.5s25 -13.333 37 -19s24.333 -8.5 37 -8.5c16.667 0 28.5 4.5 35.5 13.5
s10.5 22.167 10.5 39.5h77c0 -48.667 -10 -85.834 -30 -111.501s-49 -38.5 -87 -38.5c-18 0 -34.167 3 -48.5 9s-27.833 12.5 -40.5 19.5l-36.5 19.5c-11.667 6 -23.834 9 -36.501 9c-17.333 0 -29.5 -4.66699 -36.5 -14s-10.5 -22.666 -10.5 -39.999h-77z" />
    <glyph glyph-name="Adieresis" unicode="&#xc4;" horiz-adv-x="619" 
d="M424 146h-240l-44 -146h-130l230 703h140l229 -703h-141zM220 263h169l-83 277zM262 870c0 -23.333 -6.83301 -42.5 -20.5 -57.5s-31.834 -22.5 -54.501 -22.5s-40.834 7.83301 -54.501 23.5s-20.5 34.5 -20.5 56.5s6.83301 40.833 20.5 56.5s31.834 23.5 54.501 23.5
s40.834 -7.5 54.501 -22.5s20.5 -34.167 20.5 -57.5zM500 870c0 -23.333 -6.83301 -42.5 -20.5 -57.5s-31.834 -22.5 -54.501 -22.5s-40.834 7.83301 -54.501 23.5s-20.5 34.5 -20.5 56.5s6.83301 40.833 20.5 56.5s31.834 23.5 54.501 23.5s40.834 -7.5 54.501 -22.5
s20.5 -34.167 20.5 -57.5z" />
    <glyph glyph-name="Aring" unicode="&#xc5;" horiz-adv-x="619" 
d="M447 761c0 -22 -4.66699 -42.1689 -14 -60.502s-22 -33.166 -38 -44.499l214 -656h-141l-44 146h-240l-44 -146h-130l213 652c-17.333 12 -31 27.333 -41 46s-15 39.334 -15 62.001c0 20 3.66699 38.333 11 55s17.5 31 30.5 43s27.833 21.5 44.5 28.5
s34.667 10.5 54 10.5s37.5 -3.5 54.5 -10.5s31.833 -16.5 44.5 -28.5s22.667 -26.333 30 -43s11 -34.667 11 -54zM220 262.998h169l-83 277zM360 759.998c0 15.333 -5.16699 28.166 -15.5 38.499s-22.833 15.5 -37.5 15.5c-15.333 0 -28 -5.16699 -38 -15.5
s-15 -23.166 -15 -38.499s5 -28.166 15 -38.499s22.667 -15.5 38 -15.5c14.667 0 27.167 5.16699 37.5 15.5s15.5 23.166 15.5 38.499z" />
    <glyph glyph-name="AE" unicode="&#xc6;" horiz-adv-x="939" 
d="M392 703h511v-124h-296v-153h226v-124h-226v-178h306v-124h-444v186h-216l-99 -186h-144zM313 298h156v308z" />
    <glyph glyph-name="Ccedilla" unicode="&#xc7;" horiz-adv-x="636" 
d="M386 595c-32 0 -59.6699 -6.49902 -83.0029 -19.499s-42.666 -30.667 -57.999 -53s-26.666 -48.166 -33.999 -77.499s-11 -60.333 -11 -93c0 -33.333 3.16699 -64.5 9.5 -93.5s16.666 -54.167 30.999 -75.5s32.666 -38 54.999 -50s49.5 -18 81.5 -18
c16.667 0 33.334 1.5 50.001 4.5s32.5 7 47.5 12s28.333 10.333 40 16s20.834 11.167 27.501 16.5l54 -98c-25.333 -20.667 -56.5 -37.667 -93.5 -51s-77.5 -21 -121.5 -23l-9 -47c34.667 -4 62.834 -14.333 84.501 -31s32.5 -41 32.5 -73c0 -20 -4 -37.333 -12 -52
s-19 -26.834 -33 -36.501s-30.667 -16.834 -50 -21.501s-40.333 -7 -63 -7c-29.333 0 -54.166 2.66699 -74.499 8s-32.166 8.66602 -35.499 9.99902l22 73c11.333 -3.33301 23.666 -6.33301 36.999 -9s26.666 -4 39.999 -4c23.333 0 40.666 3.5 51.999 10.5
s17 16.167 17 27.5c0 8.66699 -4.83301 16.334 -14.5 23.001s-25.5 10 -47.5 10c-10 0 -19 -0.333008 -27 -1s-14.333 -1.66699 -19 -3l28 125c-85.333 10.667 -149.166 47 -191.499 109s-63.5 145 -63.5 249c0 52.667 6.83301 101.167 20.5 145.5s34 82.5 61 114.5
s60.5 57 100.5 75s86 27 138 27c48 0 90.5 -6.83301 127.5 -20.5s69.5 -32.5 97.5 -56.5l-62 -98c-14 13.333 -33.667 26 -59 38s-56 18 -92 18z" />
    <glyph glyph-name="Egrave" unicode="&#xc8;" horiz-adv-x="547" 
d="M74 703h438v-124h-298v-153h228v-124h-228v-178h308v-124h-448v703zM412 757l-273 98l42 105l264 -119z" />
    <glyph glyph-name="Eacute" unicode="&#xc9;" horiz-adv-x="547" 
d="M74 703h438v-124h-298v-153h228v-124h-228v-178h308v-124h-448v703zM414 960l42 -105l-273 -98l-33 84z" />
    <glyph glyph-name="Ecircumflex" unicode="&#xca;" horiz-adv-x="547" 
d="M74 703h438v-124h-298v-153h228v-124h-228v-178h308v-124h-448v703zM444 759l-145 96l-145 -96l-58 69l158 138h90l158 -138z" />
    <glyph glyph-name="Edieresis" unicode="&#xcb;" horiz-adv-x="547" 
d="M74 703h438v-124h-298v-153h228v-124h-228v-178h308v-124h-448v703zM251 870c0 -23.333 -6.83301 -42.5 -20.5 -57.5s-31.834 -22.5 -54.501 -22.5s-40.834 7.83301 -54.501 23.5s-20.5 34.5 -20.5 56.5s6.83301 40.833 20.5 56.5s31.834 23.5 54.501 23.5
s40.834 -7.5 54.501 -22.5s20.5 -34.167 20.5 -57.5zM489 870c0 -23.333 -6.83301 -42.5 -20.5 -57.5s-31.834 -22.5 -54.501 -22.5s-40.834 7.83301 -54.501 23.5s-20.5 34.5 -20.5 56.5s6.83301 40.833 20.5 56.5s31.834 23.5 54.501 23.5s40.834 -7.5 54.501 -22.5
s20.5 -34.167 20.5 -57.5z" />
    <glyph glyph-name="Igrave" unicode="&#xcc;" horiz-adv-x="289" 
d="M215 0h-141v703h141v-703zM268 757l-273 98l42 105l264 -119z" />
    <glyph glyph-name="Iacute" unicode="&#xcd;" horiz-adv-x="289" 
d="M215 0h-141v703h141v-703zM262 960l42 -105l-273 -98l-33 84z" />
    <glyph glyph-name="Icircumflex" unicode="&#xce;" horiz-adv-x="289" 
d="M215 0h-141v703h141v-703zM290 759l-145 96l-145 -96l-58 69l158 138h90l158 -138z" />
    <glyph glyph-name="Idieresis" unicode="&#xcf;" horiz-adv-x="289" 
d="M215 0h-141v703h141v-703zM101 870c0 -23.333 -6.83301 -42.5 -20.5 -57.5s-31.834 -22.5 -54.501 -22.5s-40.834 7.83301 -54.501 23.5s-20.5 34.5 -20.5 56.5s6.83301 40.833 20.5 56.5s31.834 23.5 54.501 23.5s40.834 -7.5 54.501 -22.5s20.5 -34.167 20.5 -57.5z
M339 870c0 -23.333 -6.83301 -42.5 -20.5 -57.5s-31.834 -22.5 -54.501 -22.5s-40.834 7.83301 -54.501 23.5s-20.5 34.5 -20.5 56.5s6.83301 40.833 20.5 56.5s31.834 23.5 54.501 23.5s40.834 -7.5 54.501 -22.5s20.5 -34.167 20.5 -57.5z" />
    <glyph glyph-name="Eth" unicode="&#xd0;" horiz-adv-x="734" 
d="M11 414l84 -0.00195312v289h243c58 0 108.333 -8.5 151 -25.5s78.167 -41 106.5 -72s49.5 -68 63.5 -111s21 -90.833 21 -143.5c0 -53.333 -7 -101.666 -21 -144.999s-35.167 -80.166 -63.5 -110.499s-64 -53.833 -107 -70.5s-93.167 -25 -150.5 -25h-243v302h-84v112z
M338 120.998c30 0 57.167 5.50098 81.5 16.501s45 26.667 62 47s30 44.666 39 72.999s13.5 59.833 13.5 94.5c0 78 -17.833 135.833 -53.5 173.5s-83.167 56.5 -142.5 56.5h-103v-168h140v-112h-140v-181h103z" />
    <glyph glyph-name="Ntilde" unicode="&#xd1;" horiz-adv-x="698" 
d="M207 490v-490h-133v703h141l276 -480v480h133v-703h-130zM161 781c0 48 10.001 85 30.001 111s49 39 87 39c18 0 34.167 -3 48.5 -9s27.833 -12.5 40.5 -19.5s25 -13.333 37 -19s24.333 -8.5 37 -8.5c16.667 0 28.5 4.5 35.5 13.5s10.5 22.167 10.5 39.5h77
c0 -48.667 -10 -85.834 -30 -111.501s-49 -38.5 -87 -38.5c-18 0 -34.167 3 -48.5 9s-27.833 12.5 -40.5 19.5l-36.5 19.5c-11.667 6 -23.834 9 -36.501 9c-17.333 0 -29.5 -4.66699 -36.5 -14s-10.5 -22.666 -10.5 -39.999h-77z" />
    <glyph glyph-name="Ograve" unicode="&#xd2;" horiz-adv-x="747" 
d="M54 352c0 53.333 6.33301 102.5 19 147.5s32.167 83.667 58.5 116s59.5 57.666 99.5 75.999s87.333 27.5 142 27.5s102.167 -9.16699 142.5 -27.5s73.666 -43.666 99.999 -75.999s45.833 -71 58.5 -116s19 -94.167 19 -147.5s-6.33301 -102.5 -19 -147.5
s-32.167 -83.833 -58.5 -116.5s-59.666 -58.167 -99.999 -76.5s-87.833 -27.5 -142.5 -27.5s-102 9.16699 -142 27.5s-73.167 43.833 -99.5 76.5s-45.833 71.5 -58.5 116.5s-19 94.167 -19 147.5zM200 352c0 -74.667 14.167 -133.334 42.5 -176.001s71.833 -64 130.5 -64
s102.167 21.333 130.5 64s42.5 101.334 42.5 176.001s-14.167 133.167 -42.5 175.5s-71.833 63.5 -130.5 63.5s-102.167 -21.167 -130.5 -63.5s-42.5 -100.833 -42.5 -175.5zM503 757l-273 98l42 105l264 -119z" />
    <glyph glyph-name="Oacute" unicode="&#xd3;" horiz-adv-x="747" 
d="M54 352c0 53.333 6.33301 102.5 19 147.5s32.167 83.667 58.5 116s59.5 57.666 99.5 75.999s87.333 27.5 142 27.5s102.167 -9.16699 142.5 -27.5s73.666 -43.666 99.999 -75.999s45.833 -71 58.5 -116s19 -94.167 19 -147.5s-6.33301 -102.5 -19 -147.5
s-32.167 -83.833 -58.5 -116.5s-59.666 -58.167 -99.999 -76.5s-87.833 -27.5 -142.5 -27.5s-102 9.16699 -142 27.5s-73.167 43.833 -99.5 76.5s-45.833 71.5 -58.5 116.5s-19 94.167 -19 147.5zM200 352c0 -74.667 14.167 -133.334 42.5 -176.001s71.833 -64 130.5 -64
s102.167 21.333 130.5 64s42.5 101.334 42.5 176.001s-14.167 133.167 -42.5 175.5s-71.833 63.5 -130.5 63.5s-102.167 -21.167 -130.5 -63.5s-42.5 -100.833 -42.5 -175.5zM491 960l42 -105l-273 -98l-33 84z" />
    <glyph glyph-name="Ocircumflex" unicode="&#xd4;" horiz-adv-x="747" 
d="M54 352c0 53.333 6.33301 102.5 19 147.5s32.167 83.667 58.5 116s59.5 57.666 99.5 75.999s87.333 27.5 142 27.5s102.167 -9.16699 142.5 -27.5s73.666 -43.666 99.999 -75.999s45.833 -71 58.5 -116s19 -94.167 19 -147.5s-6.33301 -102.5 -19 -147.5
s-32.167 -83.833 -58.5 -116.5s-59.666 -58.167 -99.999 -76.5s-87.833 -27.5 -142.5 -27.5s-102 9.16699 -142 27.5s-73.167 43.833 -99.5 76.5s-45.833 71.5 -58.5 116.5s-19 94.167 -19 147.5zM200 352c0 -74.667 14.167 -133.334 42.5 -176.001s71.833 -64 130.5 -64
s102.167 21.333 130.5 64s42.5 101.334 42.5 176.001s-14.167 133.167 -42.5 175.5s-71.833 63.5 -130.5 63.5s-102.167 -21.167 -130.5 -63.5s-42.5 -100.833 -42.5 -175.5zM520 759l-145 96l-145 -96l-58 69l158 138h90l158 -138z" />
    <glyph glyph-name="Otilde" unicode="&#xd5;" horiz-adv-x="747" 
d="M54 352c0 53.333 6.33301 102.5 19 147.5s32.167 83.667 58.5 116s59.5 57.666 99.5 75.999s87.333 27.5 142 27.5s102.167 -9.16699 142.5 -27.5s73.666 -43.666 99.999 -75.999s45.833 -71 58.5 -116s19 -94.167 19 -147.5s-6.33301 -102.5 -19 -147.5
s-32.167 -83.833 -58.5 -116.5s-59.666 -58.167 -99.999 -76.5s-87.833 -27.5 -142.5 -27.5s-102 9.16699 -142 27.5s-73.167 43.833 -99.5 76.5s-45.833 71.5 -58.5 116.5s-19 94.167 -19 147.5zM200 352c0 -74.667 14.167 -133.334 42.5 -176.001s71.833 -64 130.5 -64
s102.167 21.333 130.5 64s42.5 101.334 42.5 176.001s-14.167 133.167 -42.5 175.5s-71.833 63.5 -130.5 63.5s-102.167 -21.167 -130.5 -63.5s-42.5 -100.833 -42.5 -175.5zM191 781c0 48 10.001 85 30.001 111s49 39 87 39c18 0 34.167 -3 48.5 -9
s27.833 -12.5 40.5 -19.5s25 -13.333 37 -19s24.333 -8.5 37 -8.5c16.667 0 28.5 4.5 35.5 13.5s10.5 22.167 10.5 39.5h77c0 -48.667 -10 -85.834 -30 -111.501s-49 -38.5 -87 -38.5c-18 0 -34.167 3 -48.5 9s-27.833 12.5 -40.5 19.5l-36.5 19.5
c-11.667 6 -23.834 9 -36.501 9c-17.333 0 -29.5 -4.66699 -36.5 -14s-10.5 -22.666 -10.5 -39.999h-77z" />
    <glyph glyph-name="Odieresis" unicode="&#xd6;" horiz-adv-x="747" 
d="M54 352c0 53.333 6.33301 102.5 19 147.5s32.167 83.667 58.5 116s59.5 57.666 99.5 75.999s87.333 27.5 142 27.5s102.167 -9.16699 142.5 -27.5s73.666 -43.666 99.999 -75.999s45.833 -71 58.5 -116s19 -94.167 19 -147.5s-6.33301 -102.5 -19 -147.5
s-32.167 -83.833 -58.5 -116.5s-59.666 -58.167 -99.999 -76.5s-87.833 -27.5 -142.5 -27.5s-102 9.16699 -142 27.5s-73.167 43.833 -99.5 76.5s-45.833 71.5 -58.5 116.5s-19 94.167 -19 147.5zM200 352c0 -74.667 14.167 -133.334 42.5 -176.001s71.833 -64 130.5 -64
s102.167 21.333 130.5 64s42.5 101.334 42.5 176.001s-14.167 133.167 -42.5 175.5s-71.833 63.5 -130.5 63.5s-102.167 -21.167 -130.5 -63.5s-42.5 -100.833 -42.5 -175.5zM330 870c0 -23.333 -6.83301 -42.5 -20.5 -57.5s-31.834 -22.5 -54.501 -22.5
s-40.834 7.83301 -54.501 23.5s-20.5 34.5 -20.5 56.5s6.83301 40.833 20.5 56.5s31.834 23.5 54.501 23.5s40.834 -7.5 54.501 -22.5s20.5 -34.167 20.5 -57.5zM568 870c0 -23.333 -6.83301 -42.5 -20.5 -57.5s-31.834 -22.5 -54.501 -22.5s-40.834 7.83301 -54.501 23.5
s-20.5 34.5 -20.5 56.5s6.83301 40.833 20.5 56.5s31.834 23.5 54.501 23.5s40.834 -7.5 54.501 -22.5s20.5 -34.167 20.5 -57.5z" />
    <glyph glyph-name="multiply" unicode="&#xd7;" horiz-adv-x="630" 
d="M183 564l132 -143l133 143l82 -77l-138 -149l138 -148l-83 -77l-132 143l-132 -143l-83 77l138 148l-138 149z" />
    <glyph glyph-name="Oslash" unicode="&#xd8;" horiz-adv-x="747" 
d="M138 78c-28.667 34 -49.835 74 -63.502 120s-20.5 97.333 -20.5 154c0 53.333 6.33301 102.5 19 147.5s32.167 83.667 58.5 116s59.5 57.666 99.5 75.999s87.333 27.5 142 27.5c59.333 0 110.333 -11.333 153 -34l53 83l88 -52l-59 -92c28.667 -34 50 -73.667 64 -119
s21 -96.333 21 -153c0 -53.333 -6.33301 -102.5 -19 -147.5s-32.167 -83.833 -58.5 -116.5s-59.666 -58.167 -99.999 -76.5s-87.833 -27.5 -142.5 -27.5c-30 0 -57.667 2.83301 -83 8.5s-48.666 13.834 -69.999 24.501l-53 -84l-88 52zM199.999 352
c0 -56 8.00098 -102.333 24.001 -139l229 359c-22.667 12.667 -49.334 19 -80.001 19c-58.667 0 -102.167 -21.167 -130.5 -63.5s-42.5 -100.833 -42.5 -175.5zM546 352c0 54 -8.00098 99.666 -24.001 136.999l-229 -358c22.667 -12.667 49.334 -19 80.001 -19
c58.667 0 102.167 21.333 130.5 64s42.5 101.334 42.5 176.001z" />
    <glyph glyph-name="Ugrave" unicode="&#xd9;" horiz-adv-x="682" 
d="M341 -16c-51.333 0 -94.501 6.50195 -129.501 19.502s-63.333 32.167 -85 57.5s-37.334 56.666 -47.001 93.999s-14.5 80.666 -14.5 129.999v418h141v-404c0 -36 2.33301 -66.333 7 -91s12.334 -44.667 23.001 -60s24.5 -26.333 41.5 -33s38.167 -10 63.5 -10
c24.667 0 45.667 3.33301 63 10s31.333 17.667 42 33s18.334 35.166 23.001 59.499s7 54.5 7 90.5v405h141v-419c0 -49.333 -4.83301 -92.666 -14.5 -129.999s-25.5 -68.5 -47.5 -93.5s-50.5 -44 -85.5 -57s-77.833 -19.5 -128.5 -19.5zM451.999 757.002l-273 98l42 105
l264 -119z" />
    <glyph glyph-name="Uacute" unicode="&#xda;" horiz-adv-x="682" 
d="M341 -16c-51.333 0 -94.501 6.50195 -129.501 19.502s-63.333 32.167 -85 57.5s-37.334 56.666 -47.001 93.999s-14.5 80.666 -14.5 129.999v418h141v-404c0 -36 2.33301 -66.333 7 -91s12.334 -44.667 23.001 -60s24.5 -26.333 41.5 -33s38.167 -10 63.5 -10
c24.667 0 45.667 3.33301 63 10s31.333 17.667 42 33s18.334 35.166 23.001 59.499s7 54.5 7 90.5v405h141v-419c0 -49.333 -4.83301 -92.666 -14.5 -129.999s-25.5 -68.5 -47.5 -93.5s-50.5 -44 -85.5 -57s-77.833 -19.5 -128.5 -19.5zM473.999 960.002l42 -105l-273 -98
l-33 84z" />
    <glyph glyph-name="Ucircumflex" unicode="&#xdb;" horiz-adv-x="682" 
d="M341 -16c-51.333 0 -94.501 6.50195 -129.501 19.502s-63.333 32.167 -85 57.5s-37.334 56.666 -47.001 93.999s-14.5 80.666 -14.5 129.999v418h141v-404c0 -36 2.33301 -66.333 7 -91s12.334 -44.667 23.001 -60s24.5 -26.333 41.5 -33s38.167 -10 63.5 -10
c24.667 0 45.667 3.33301 63 10s31.333 17.667 42 33s18.334 35.166 23.001 59.499s7 54.5 7 90.5v405h141v-419c0 -49.333 -4.83301 -92.666 -14.5 -129.999s-25.5 -68.5 -47.5 -93.5s-50.5 -44 -85.5 -57s-77.833 -19.5 -128.5 -19.5zM486.999 759.002l-145 96l-145 -96
l-58 69l158 138h90l158 -138z" />
    <glyph glyph-name="Udieresis" unicode="&#xdc;" horiz-adv-x="682" 
d="M341 -16c-51.333 0 -94.501 6.50195 -129.501 19.502s-63.333 32.167 -85 57.5s-37.334 56.666 -47.001 93.999s-14.5 80.666 -14.5 129.999v418h141v-404c0 -36 2.33301 -66.333 7 -91s12.334 -44.667 23.001 -60s24.5 -26.333 41.5 -33s38.167 -10 63.5 -10
c24.667 0 45.667 3.33301 63 10s31.333 17.667 42 33s18.334 35.166 23.001 59.499s7 54.5 7 90.5v405h141v-419c0 -49.333 -4.83301 -92.666 -14.5 -129.999s-25.5 -68.5 -47.5 -93.5s-50.5 -44 -85.5 -57s-77.833 -19.5 -128.5 -19.5zM299.999 870.002
c0 -23.333 -6.83301 -42.5 -20.5 -57.5s-31.834 -22.5 -54.501 -22.5s-40.834 7.83301 -54.501 23.5s-20.5 34.5 -20.5 56.5s6.83301 40.833 20.5 56.5s31.834 23.5 54.501 23.5s40.834 -7.5 54.501 -22.5s20.5 -34.167 20.5 -57.5zM537.999 870.002
c0 -23.333 -6.83301 -42.5 -20.5 -57.5s-31.834 -22.5 -54.501 -22.5s-40.834 7.83301 -54.501 23.5s-20.5 34.5 -20.5 56.5s6.83301 40.833 20.5 56.5s31.834 23.5 54.501 23.5s40.834 -7.5 54.501 -22.5s20.5 -34.167 20.5 -57.5z" />
    <glyph glyph-name="Yacute" unicode="&#xdd;" horiz-adv-x="606" 
d="M232 308l-222 395h150l147 -273l146 273h143l-223 -395v-308h-141v308zM445 960l42 -105l-273 -98l-33 84z" />
    <glyph glyph-name="Thorn" unicode="&#xde;" horiz-adv-x="596" 
d="M564 358c0 -27.333 -4.49902 -54.666 -13.499 -81.999s-23.833 -51.833 -44.5 -73.5s-48.167 -39.334 -82.5 -53.001s-76.833 -20.5 -127.5 -20.5h-81v-129h-141v703h141v-116h89c48.667 0 89.667 -6.66699 123 -20s60.166 -30.833 80.499 -52.5
s34.833 -46.167 43.5 -73.5s13 -55 13 -83zM425.001 358c0 20.667 -3.33301 38.166 -10 52.499s-15.667 25.833 -27 34.5s-24.333 14.834 -39 18.501s-30.334 5.5 -47.001 5.5h-87v-222h79c18.667 0 36 2 52 6s29.833 10.333 41.5 19s20.834 20 27.501 34s10 31.333 10 52z
" />
    <glyph glyph-name="germandbls" unicode="&#xdf;" horiz-adv-x="647" 
d="M387 92c9.33301 0 19.167 1.00195 29.5 3.00195s19.833 5.5 28.5 10.5s15.834 11.667 21.501 20s8.5 18.833 8.5 31.5c0 20.667 -8.16699 37.834 -24.5 51.501s-42.5 27.834 -78.5 42.501c-21.333 8.66699 -38.666 17.834 -51.999 27.501s-23.666 20 -30.999 31
s-12.333 22.5 -15 34.5s-4 24.667 -4 38c0 25.333 6.66699 46.666 20 63.999s28.666 34.333 45.999 51l37.5 43.5c12.333 15 18.5 31.833 18.5 50.5c0 22.667 -9 39.167 -27 49.5s-38.333 15.5 -61 15.5c-20.667 0 -37.834 -3.33301 -51.501 -10
s-24.667 -15.834 -33 -27.501s-14.166 -25.167 -17.499 -40.5s-5 -31.666 -5 -48.999v-529h-136v531c0 72.667 21.5 129.334 64.5 170.001s102.833 61 179.5 61c37.333 0 69.833 -4 97.5 -12s50.667 -19.333 69 -34s32 -31.834 41 -51.501s13.5 -40.834 13.5 -63.501
c0 -28.667 -6.66699 -53 -20 -73s-28.333 -38 -45 -54c-16.667 -15.333 -30.334 -29.166 -41.001 -41.499s-16 -25.166 -16 -38.499c0 -18 6.5 -31.833 19.5 -41.5s33.5 -20.834 61.5 -33.501c19.333 -9.33301 36.666 -19.333 51.999 -30s28.5 -22.834 39.5 -36.501
s19.5 -29.167 25.5 -46.5s9 -37.333 9 -60c0 -46.667 -17.5 -84.834 -52.5 -114.501s-86.833 -44.5 -155.5 -44.5c-34.667 0 -66 4.16699 -94 12.5s-47.333 16.166 -58 23.499l36 96c16.667 -8.66699 34.5 -15.334 53.5 -20.001s34.5 -7 46.5 -7z" />
    <glyph glyph-name="agrave" unicode="&#xe0;" horiz-adv-x="534" 
d="M345 223c-12.667 2 -27 4.00195 -43 6.00195s-34.667 3 -56 3c-34 0 -57.333 -6.66699 -70 -20s-19 -33 -19 -59c0 -21.333 7.33301 -37.833 22 -49.5s33.667 -17.5 57 -17.5c14 0 27.667 1.83301 41 5.5s25 9.16699 35 16.5s18 16.166 24 26.499s9 22.166 9 35.499v53z
M208 -12.998c-22 0 -43.167 2.66602 -63.5 7.99902s-38.5 14.333 -54.5 27s-28.833 29.334 -38.5 50.001s-14.5 46.667 -14.5 78c0 56.667 16.833 99.334 50.5 128.001s85.5 43 155.5 43c9.33301 0 19.5 -0.333008 30.5 -1s21.5 -1.5 31.5 -2.5s18.667 -1.83301 26 -2.5
s12 -1.33398 14 -2.00098v18c0 26.667 -8.66699 46.5 -26 59.5s-41 19.5 -71 19.5c-40 0 -72.667 -4 -98 -12s-43 -15.333 -53 -22l-39 89c4.66699 3.33301 12.334 8 23.001 14s24.5 11.833 41.5 17.5s36.833 10.667 59.5 15s48.667 6.5 78 6.5
c75.333 0 129.666 -16.167 162.999 -48.5s50 -76.833 50 -133.5v-336h-116l-4 51c-12.667 -15.333 -31 -29.833 -55 -43.5s-54 -20.5 -90 -20.5zM375 570.001l-246 111l50 101l236 -131z" />
    <glyph glyph-name="aacute" unicode="&#xe1;" horiz-adv-x="534" 
d="M345 223c-12.667 2 -27 4.00195 -43 6.00195s-34.667 3 -56 3c-34 0 -57.333 -6.66699 -70 -20s-19 -33 -19 -59c0 -21.333 7.33301 -37.833 22 -49.5s33.667 -17.5 57 -17.5c14 0 27.667 1.83301 41 5.5s25 9.16699 35 16.5s18 16.166 24 26.499s9 22.166 9 35.499v53z
M208 -12.998c-22 0 -43.167 2.66602 -63.5 7.99902s-38.5 14.333 -54.5 27s-28.833 29.334 -38.5 50.001s-14.5 46.667 -14.5 78c0 56.667 16.833 99.334 50.5 128.001s85.5 43 155.5 43c9.33301 0 19.5 -0.333008 30.5 -1s21.5 -1.5 31.5 -2.5s18.667 -1.83301 26 -2.5
s12 -1.33398 14 -2.00098v18c0 26.667 -8.66699 46.5 -26 59.5s-41 19.5 -71 19.5c-40 0 -72.667 -4 -98 -12s-43 -15.333 -53 -22l-39 89c4.66699 3.33301 12.334 8 23.001 14s24.5 11.833 41.5 17.5s36.833 10.667 59.5 15s48.667 6.5 78 6.5
c75.333 0 129.666 -16.167 162.999 -48.5s50 -76.833 50 -133.5v-336h-116l-4 51c-12.667 -15.333 -31 -29.833 -55 -43.5s-54 -20.5 -90 -20.5zM340 782.001l50 -101l-246 -111l-40 81z" />
    <glyph glyph-name="acircumflex" unicode="&#xe2;" horiz-adv-x="534" 
d="M345 223c-12.667 2 -27 4.00195 -43 6.00195s-34.667 3 -56 3c-34 0 -57.333 -6.66699 -70 -20s-19 -33 -19 -59c0 -21.333 7.33301 -37.833 22 -49.5s33.667 -17.5 57 -17.5c14 0 27.667 1.83301 41 5.5s25 9.16699 35 16.5s18 16.166 24 26.499s9 22.166 9 35.499v53z
M208 -12.998c-22 0 -43.167 2.66602 -63.5 7.99902s-38.5 14.333 -54.5 27s-28.833 29.334 -38.5 50.001s-14.5 46.667 -14.5 78c0 56.667 16.833 99.334 50.5 128.001s85.5 43 155.5 43c9.33301 0 19.5 -0.333008 30.5 -1s21.5 -1.5 31.5 -2.5s18.667 -1.83301 26 -2.5
s12 -1.33398 14 -2.00098v18c0 26.667 -8.66699 46.5 -26 59.5s-41 19.5 -71 19.5c-40 0 -72.667 -4 -98 -12s-43 -15.333 -53 -22l-39 89c4.66699 3.33301 12.334 8 23.001 14s24.5 11.833 41.5 17.5s36.833 10.667 59.5 15s48.667 6.5 78 6.5
c75.333 0 129.666 -16.167 162.999 -48.5s50 -76.833 50 -133.5v-336h-116l-4 51c-12.667 -15.333 -31 -29.833 -55 -43.5s-54 -20.5 -90 -20.5zM73 636.001l145 139h81l144 -139l-65 -64l-120 96l-119 -96z" />
    <glyph glyph-name="atilde" unicode="&#xe3;" horiz-adv-x="534" 
d="M345 223c-12.667 2 -27 4.00195 -43 6.00195s-34.667 3 -56 3c-34 0 -57.333 -6.66699 -70 -20s-19 -33 -19 -59c0 -21.333 7.33301 -37.833 22 -49.5s33.667 -17.5 57 -17.5c14 0 27.667 1.83301 41 5.5s25 9.16699 35 16.5s18 16.166 24 26.499s9 22.166 9 35.499v53z
M208 -12.998c-22 0 -43.167 2.66602 -63.5 7.99902s-38.5 14.333 -54.5 27s-28.833 29.334 -38.5 50.001s-14.5 46.667 -14.5 78c0 56.667 16.833 99.334 50.5 128.001s85.5 43 155.5 43c9.33301 0 19.5 -0.333008 30.5 -1s21.5 -1.5 31.5 -2.5s18.667 -1.83301 26 -2.5
s12 -1.33398 14 -2.00098v18c0 26.667 -8.66699 46.5 -26 59.5s-41 19.5 -71 19.5c-40 0 -72.667 -4 -98 -12s-43 -15.333 -53 -22l-39 89c4.66699 3.33301 12.334 8 23.001 14s24.5 11.833 41.5 17.5s36.833 10.667 59.5 15s48.667 6.5 78 6.5
c75.333 0 129.666 -16.167 162.999 -48.5s50 -76.833 50 -133.5v-336h-116l-4 51c-12.667 -15.333 -31 -29.833 -55 -43.5s-54 -20.5 -90 -20.5zM73 580.001c0 48 10.001 85 30.001 111s48.333 39 85 39c18 0 34 -3 48 -9s27.167 -12.5 39.5 -19.5
s24.166 -13.333 35.499 -19s23.333 -8.5 36 -8.5c16.667 0 28.5 4.5 35.5 13.5s10.5 22.167 10.5 39.5h75c0 -48.667 -10 -85.834 -30 -111.501s-48.333 -38.5 -85 -38.5c-18 0 -34 3 -48 9s-27 12.5 -39 19.5l-35 19.5c-11.333 6 -23.333 9 -36 9
c-17.333 0 -29.5 -4.66699 -36.5 -14s-10.5 -22.666 -10.5 -39.999h-75z" />
    <glyph glyph-name="adieresis" unicode="&#xe4;" horiz-adv-x="534" 
d="M345 223c-12.667 2 -27 4.00195 -43 6.00195s-34.667 3 -56 3c-34 0 -57.333 -6.66699 -70 -20s-19 -33 -19 -59c0 -21.333 7.33301 -37.833 22 -49.5s33.667 -17.5 57 -17.5c14 0 27.667 1.83301 41 5.5s25 9.16699 35 16.5s18 16.166 24 26.499s9 22.166 9 35.499v53z
M208 -12.998c-22 0 -43.167 2.66602 -63.5 7.99902s-38.5 14.333 -54.5 27s-28.833 29.334 -38.5 50.001s-14.5 46.667 -14.5 78c0 56.667 16.833 99.334 50.5 128.001s85.5 43 155.5 43c9.33301 0 19.5 -0.333008 30.5 -1s21.5 -1.5 31.5 -2.5s18.667 -1.83301 26 -2.5
s12 -1.33398 14 -2.00098v18c0 26.667 -8.66699 46.5 -26 59.5s-41 19.5 -71 19.5c-40 0 -72.667 -4 -98 -12s-43 -15.333 -53 -22l-39 89c4.66699 3.33301 12.334 8 23.001 14s24.5 11.833 41.5 17.5s36.833 10.667 59.5 15s48.667 6.5 78 6.5
c75.333 0 129.666 -16.167 162.999 -48.5s50 -76.833 50 -133.5v-336h-116l-4 51c-12.667 -15.333 -31 -29.833 -55 -43.5s-54 -20.5 -90 -20.5zM225 674.001c0 -23.333 -6.83301 -42.5 -20.5 -57.5s-31.834 -22.5 -54.501 -22.5s-40.834 7.83301 -54.501 23.5
s-20.5 34.5 -20.5 56.5s6.83301 40.833 20.5 56.5s31.834 23.5 54.501 23.5s40.834 -7.5 54.501 -22.5s20.5 -34.167 20.5 -57.5zM459 674.001c0 -23.333 -6.83301 -42.5 -20.5 -57.5s-31.834 -22.5 -54.501 -22.5s-40.834 7.83301 -54.501 23.5s-20.5 34.5 -20.5 56.5
s6.83301 40.833 20.5 56.5s31.834 23.5 54.501 23.5s40.834 -7.5 54.501 -22.5s20.5 -34.167 20.5 -57.5z" />
    <glyph glyph-name="aring" unicode="&#xe5;" horiz-adv-x="534" 
d="M345 223c-12.667 2 -27 4.00195 -43 6.00195s-34.667 3 -56 3c-34 0 -57.333 -6.66699 -70 -20s-19 -33 -19 -59c0 -21.333 7.33301 -37.833 22 -49.5s33.667 -17.5 57 -17.5c14 0 27.667 1.83301 41 5.5s25 9.16699 35 16.5s18 16.166 24 26.499s9 22.166 9 35.499v53z
M208 -12.998c-22 0 -43.167 2.66602 -63.5 7.99902s-38.5 14.333 -54.5 27s-28.833 29.334 -38.5 50.001s-14.5 46.667 -14.5 78c0 56.667 16.833 99.334 50.5 128.001s85.5 43 155.5 43c9.33301 0 19.5 -0.333008 30.5 -1s21.5 -1.5 31.5 -2.5s18.667 -1.83301 26 -2.5
s12 -1.33398 14 -2.00098v18c0 26.667 -8.66699 46.5 -26 59.5s-41 19.5 -71 19.5c-40 0 -72.667 -4 -98 -12s-43 -15.333 -53 -22l-39 89c4.66699 3.33301 12.334 8 23.001 14s24.5 11.833 41.5 17.5s36.833 10.667 59.5 15s48.667 6.5 78 6.5
c75.333 0 129.666 -16.167 162.999 -48.5s50 -76.833 50 -133.5v-336h-116l-4 51c-12.667 -15.333 -31 -29.833 -55 -43.5s-54 -20.5 -90 -20.5zM411 686.001c0 -20 -3.66699 -38.332 -11 -54.999s-17.333 -31 -30 -43s-27.5 -21.333 -44.5 -28s-34.833 -10 -53.5 -10
c-19.333 0 -37.5 3.33301 -54.5 10s-32 16 -45 28s-23.167 26.333 -30.5 43s-11 34.667 -11 54s3.66699 37.333 11 54s17.5 31 30.5 43s27.833 21.5 44.5 28.5s34.667 10.5 54 10.5s37.5 -3.5 54.5 -10.5s31.833 -16.5 44.5 -28.5s22.667 -26.333 30 -43
s11 -34.334 11 -53.001zM325 685.002c0 15.333 -5.16699 28.166 -15.5 38.499s-23.166 15.5 -38.499 15.5c-14.667 0 -27.167 -5.16699 -37.5 -15.5s-15.5 -23.166 -15.5 -38.499s5.16699 -28.333 15.5 -39s22.833 -16 37.5 -16c15.333 0 28.166 5.33301 38.499 16
s15.5 23.667 15.5 39z" />
    <glyph glyph-name="ae" unicode="&#xe6;" horiz-adv-x="848" 
d="M615 99c34 0 61.668 2.49707 83.001 7.49707s37.666 9.16699 48.999 12.5l32 -94c-12.667 -7.33301 -34 -15.666 -64 -24.999s-69 -14 -117 -14s-88.833 7.83301 -122.5 23.5s-60.834 37.5 -81.501 65.5c-6.66699 -8.66699 -15.334 -18.167 -26.001 -28.5
s-23.5 -19.833 -38.5 -28.5s-32.5 -16 -52.5 -22s-43 -9 -69 -9c-22 0 -43.333 2.83301 -64 8.5s-38.834 14.834 -54.501 27.501s-28.334 29.5 -38.001 50.5s-14.5 46.5 -14.5 76.5c0 32 5.33301 59 16 81s25.334 39.667 44.001 53s41 22.833 67 28.5s54.333 8.5 85 8.5
c8.66699 0 18.167 -0.5 28.5 -1.5s20.166 -2 29.499 -3s17.5 -1.83301 24.5 -2.5s11.5 -1 13.5 -1v17c0 26 -8.66699 45.833 -26 59.5s-41 20.5 -71 20.5c-38.667 0 -71 -4 -97 -12s-44 -15.333 -54 -22l-39 89c4.66699 3.33301 12.334 8 23.001 14
s24.334 11.833 41.001 17.5s36.5 10.667 59.5 15s49.167 6.5 78.5 6.5c38.667 0 71.5 -6.33301 98.5 -19s49.167 -29.667 66.5 -51c20.667 20.667 44 37.334 70 50.001s55 19 87 19c72 0 127.167 -21.5 165.5 -64.5s57.5 -113.833 57.5 -212.5v-28h-332
c2.66699 -32 15.334 -58.833 38.001 -80.5s57.334 -32.5 104.001 -32.5zM345.001 222.997c-12.667 2 -27.167 4.00098 -43.5 6.00098s-34.833 3 -55.5 3c-32.667 0 -55.667 -6.66699 -69 -20s-20 -33 -20 -59c0 -21.333 7.33301 -37.833 22 -49.5s33.667 -17.5 57 -17.5
c14.667 0 28.5 1.83301 41.5 5.5s24.5 9 34.5 16s18 15.667 24 26s9 22.166 9 35.499v54zM679.001 304.998c-2.66699 34.667 -11 60.833 -25 78.5s-38 26.5 -72 26.5s-59.833 -9.5 -77.5 -28.5s-28.167 -44.5 -31.5 -76.5h206z" />
    <glyph glyph-name="ccedilla" unicode="&#xe7;" horiz-adv-x="480" 
d="M177 252c0 -52 11.1689 -90 33.502 -114s54.5 -36 96.5 -36c28 0 50.667 3.66699 68 11s30.666 14 39.999 20l51 -91l-24 -15.5c-10 -6.33301 -22.167 -12.5 -36.5 -18.5s-30.833 -11.167 -49.5 -15.5s-39.334 -6.5 -62.001 -6.5h-14l-7 -40
c34 -3.33301 61.167 -13.166 81.5 -29.499s30.5 -40.5 30.5 -72.5c0 -38.667 -14.167 -67.334 -42.5 -86.001s-65.5 -28 -111.5 -28c-28.667 0 -52.667 2.5 -72 7.5s-30.666 8.16699 -33.999 9.5l21 72c11.333 -3.33301 23.333 -6.33301 36 -9s25.667 -4 39 -4
c44 0 66 12.333 66 37c0 8.66699 -4.5 16.334 -13.5 23.001s-24.167 10 -45.5 10c-10 0 -18.833 -0.333008 -26.5 -1s-13.834 -1.66699 -18.501 -3l29 124c-56.667 14 -99.167 43.167 -127.5 87.5s-42.5 100.5 -42.5 168.5c0 39.333 5.83301 75.333 17.5 108
s28.334 60.667 50.001 84s48 41.333 79 54s65.833 19 104.5 19c24.667 0 47.334 -2.83301 68.001 -8.5s38.667 -12.167 54 -19.5s27.666 -14.5 36.999 -21.5s15.333 -11.833 18 -14.5l-60 -92c-3.33301 2 -8.33301 5.33301 -15 10s-14.667 9.16699 -24 13.5
s-19.833 8.16602 -31.5 11.499s-23.834 5 -36.501 5c-38 0 -68.5 -12.333 -91.5 -37s-34.5 -62 -34.5 -112z" />
    <glyph glyph-name="egrave" unicode="&#xe8;" horiz-adv-x="548" 
d="M315 99c32.667 0 60 2.5 82 7.5s38.667 9.16699 50 12.5l32 -94c-13.333 -7.33301 -35.166 -15.666 -65.499 -24.999s-68.833 -14 -115.5 -14c-84 0 -147.667 24 -191 72s-65 113.667 -65 197c0 39.333 5.16699 75.166 15.5 107.499s25.666 60 45.999 83
s45.5 40.667 75.5 53s64.667 18.5 104 18.5c35.333 0 66.833 -5.16699 94.5 -15.5s51 -26.5 70 -48.5s33.333 -50.667 43 -86s14.5 -78 14.5 -128v-27h-332c3.33301 -32 16 -58.833 38 -80.5s56.667 -32.5 104 -32.5zM379 305c-2.66699 34.667 -11 60.833 -25 78.5
s-38 26.5 -72 26.5s-59.833 -9.5 -77.5 -28.5s-28.167 -44.5 -31.5 -76.5h206zM385 569.999l-246 111l50 101l236 -131z" />
    <glyph glyph-name="eacute" unicode="&#xe9;" horiz-adv-x="548" 
d="M315 99c32.667 0 60 2.5 82 7.5s38.667 9.16699 50 12.5l32 -94c-13.333 -7.33301 -35.166 -15.666 -65.499 -24.999s-68.833 -14 -115.5 -14c-84 0 -147.667 24 -191 72s-65 113.667 -65 197c0 39.333 5.16699 75.166 15.5 107.499s25.666 60 45.999 83
s45.5 40.667 75.5 53s64.667 18.5 104 18.5c35.333 0 66.833 -5.16699 94.5 -15.5s51 -26.5 70 -48.5s33.333 -50.667 43 -86s14.5 -78 14.5 -128v-27h-332c3.33301 -32 16 -58.833 38 -80.5s56.667 -32.5 104 -32.5zM379 305c-2.66699 34.667 -11 60.833 -25 78.5
s-38 26.5 -72 26.5s-59.833 -9.5 -77.5 -28.5s-28.167 -44.5 -31.5 -76.5h206zM362 781.999l50 -101l-246 -111l-40 81z" />
    <glyph glyph-name="ecircumflex" unicode="&#xea;" horiz-adv-x="548" 
d="M315 99c32.667 0 60 2.5 82 7.5s38.667 9.16699 50 12.5l32 -94c-13.333 -7.33301 -35.166 -15.666 -65.499 -24.999s-68.833 -14 -115.5 -14c-84 0 -147.667 24 -191 72s-65 113.667 -65 197c0 39.333 5.16699 75.166 15.5 107.499s25.666 60 45.999 83
s45.5 40.667 75.5 53s64.667 18.5 104 18.5c35.333 0 66.833 -5.16699 94.5 -15.5s51 -26.5 70 -48.5s33.333 -50.667 43 -86s14.5 -78 14.5 -128v-27h-332c3.33301 -32 16 -58.833 38 -80.5s56.667 -32.5 104 -32.5zM379 305c-2.66699 34.667 -11 60.833 -25 78.5
s-38 26.5 -72 26.5s-59.833 -9.5 -77.5 -28.5s-28.167 -44.5 -31.5 -76.5h206zM99 635.999l145 139h81l144 -139l-65 -64l-120 96l-119 -96z" />
    <glyph glyph-name="edieresis" unicode="&#xeb;" horiz-adv-x="548" 
d="M315 99c32.667 0 60 2.5 82 7.5s38.667 9.16699 50 12.5l32 -94c-13.333 -7.33301 -35.166 -15.666 -65.499 -24.999s-68.833 -14 -115.5 -14c-84 0 -147.667 24 -191 72s-65 113.667 -65 197c0 39.333 5.16699 75.166 15.5 107.499s25.666 60 45.999 83
s45.5 40.667 75.5 53s64.667 18.5 104 18.5c35.333 0 66.833 -5.16699 94.5 -15.5s51 -26.5 70 -48.5s33.333 -50.667 43 -86s14.5 -78 14.5 -128v-27h-332c3.33301 -32 16 -58.833 38 -80.5s56.667 -32.5 104 -32.5zM379 305c-2.66699 34.667 -11 60.833 -25 78.5
s-38 26.5 -72 26.5s-59.833 -9.5 -77.5 -28.5s-28.167 -44.5 -31.5 -76.5h206zM246 673.999c0 -23.333 -6.83301 -42.5 -20.5 -57.5s-31.834 -22.5 -54.501 -22.5s-40.834 7.83301 -54.501 23.5s-20.5 34.5 -20.5 56.5s6.83301 40.833 20.5 56.5s31.834 23.5 54.501 23.5
s40.834 -7.5 54.501 -22.5s20.5 -34.167 20.5 -57.5zM480 673.999c0 -23.333 -6.83301 -42.5 -20.5 -57.5s-31.834 -22.5 -54.501 -22.5s-40.834 7.83301 -54.501 23.5s-20.5 34.5 -20.5 56.5s6.83301 40.833 20.5 56.5s31.834 23.5 54.501 23.5s40.834 -7.5 54.501 -22.5
s20.5 -34.167 20.5 -57.5z" />
    <glyph glyph-name="igrave" unicode="&#xec;" horiz-adv-x="266" 
d="M66 504h134v-504h-134v504zM233 570l-246 111l50 101l236 -131z" />
    <glyph glyph-name="iacute" unicode="&#xed;" horiz-adv-x="266" 
d="M66 504h134v-504h-134v504zM235 782l50 -101l-246 -111l-40 81z" />
    <glyph glyph-name="icircumflex" unicode="&#xee;" horiz-adv-x="266" 
d="M66 504h134v-504h-134v504zM-51 636l145 139h81l144 -139l-65 -64l-120 96l-119 -96z" />
    <glyph glyph-name="idieresis" unicode="&#xef;" horiz-adv-x="266" 
d="M66 504h134v-504h-134v504zM91 674c0 -23.333 -6.83301 -42.5 -20.5 -57.5s-31.834 -22.5 -54.501 -22.5s-40.834 7.83301 -54.501 23.5s-20.5 34.5 -20.5 56.5s6.83301 40.833 20.5 56.5s31.834 23.5 54.501 23.5s40.834 -7.5 54.501 -22.5s20.5 -34.167 20.5 -57.5z
M325 674c0 -23.333 -6.83301 -42.5 -20.5 -57.5s-31.834 -22.5 -54.501 -22.5s-40.834 7.83301 -54.501 23.5s-20.5 34.5 -20.5 56.5s6.83301 40.833 20.5 56.5s31.834 23.5 54.501 23.5s40.834 -7.5 54.501 -22.5s20.5 -34.167 20.5 -57.5z" />
    <glyph glyph-name="eth" unicode="&#xf0;" horiz-adv-x="577" 
d="M390 654c48 -44 84.8389 -96.3311 110.506 -156.998s38.5 -129.334 38.5 -206.001c0 -45.333 -4.66699 -86.666 -14 -123.999s-24 -69.333 -44 -96s-45.667 -47.334 -77 -62.001s-69.333 -22 -114 -22c-38 0 -72.333 5.66699 -103 17s-56.834 27.666 -78.501 48.999
s-38.334 47.166 -50.001 77.499s-17.5 64.833 -17.5 103.5c0 36.667 5.16699 70.167 15.5 100.5s25.166 56.166 44.499 77.499s42.833 37.833 70.5 49.5s58.834 17.5 93.501 17.5c23.333 0 46.166 -4 68.499 -12s42.166 -21.333 59.499 -40c-6 30 -15.5 58.333 -28.5 85
s-32.167 51.334 -57.5 74.001l-94 -77l-61 68l75 62c-14.667 7.33301 -30.834 14 -48.501 20s-36.834 11.667 -57.501 17l35 92c30 -6 58 -14.167 84 -24.5s50.667 -22.166 74 -35.499l87 72l61 -69zM290.006 99.002c45.333 0 76.999 12.5 94.999 37.5s27 57.833 27 98.5
c0 38 -9.66699 69.833 -29 95.5s-50.666 38.5 -93.999 38.5s-74.5 -12.5 -93.5 -37.5s-28.5 -57.5 -28.5 -97.5c0 -42 9 -75 27 -99s50 -36 96 -36z" />
    <glyph glyph-name="ntilde" unicode="&#xf1;" horiz-adv-x="573" 
d="M196 0l-134 -0.00195312v504h122l5 -67c4.66699 8.66699 11.167 17.667 19.5 27s18.5 18 30.5 26s26 14.5 42 19.5s34 7.5 54 7.5c64 0 109.667 -17.5 137 -52.5s41 -83.167 41 -144.5v-320h-134v312c0 34.667 -7.33301 58.334 -22 71.001s-32.667 19 -54 19
c-22 0 -40 -4.33301 -54 -13s-24.833 -20.667 -32.5 -36s-13 -33.166 -16 -53.499s-4.5 -41.833 -4.5 -64.5v-235zM93 579.998c0 48 10.001 85 30.001 111s48.333 39 85 39c18 0 34 -3 48 -9s27.167 -12.5 39.5 -19.5s24.166 -13.333 35.499 -19s23.333 -8.5 36 -8.5
c16.667 0 28.5 4.5 35.5 13.5s10.5 22.167 10.5 39.5h75c0 -48.667 -10 -85.834 -30 -111.501s-48.333 -38.5 -85 -38.5c-18 0 -34 3 -48 9s-27 12.5 -39 19.5l-35 19.5c-11.333 6 -23.333 9 -36 9c-17.333 0 -29.5 -4.66699 -36.5 -14s-10.5 -22.666 -10.5 -39.999h-75z
" />
    <glyph glyph-name="ograve" unicode="&#xf2;" horiz-adv-x="584" 
d="M292 101c41.333 0 70.667 13.5 88 40.5s26 63.833 26 110.5c0 46 -9.5 82.5 -28.5 109.5s-47.5 40.5 -85.5 40.5s-66.667 -13.5 -86 -40.5s-29 -63.5 -29 -109.5c0 -46.667 8.66699 -83.5 26 -110.5s47 -40.5 89 -40.5zM292.001 517
c38.667 0 73.3291 -6.16699 103.996 -18.5s56.834 -30 78.501 -53s38.167 -50.833 49.5 -83.5s17 -69.334 17 -110.001c0 -86 -22 -151.833 -66 -197.5s-105 -68.5 -183 -68.5s-139.167 23 -183.5 69s-66.5 111.667 -66.5 197c0 40.667 5.83301 77.334 17.5 110.001
s28.334 60.5 50.001 83.5s47.834 40.667 78.501 53s65.334 18.5 104.001 18.5zM393.996 570l-246 111l50 101l236 -131z" />
    <glyph glyph-name="oacute" unicode="&#xf3;" horiz-adv-x="584" 
d="M292 101c41.333 0 70.667 13.5 88 40.5s26 63.833 26 110.5c0 46 -9.5 82.5 -28.5 109.5s-47.5 40.5 -85.5 40.5s-66.667 -13.5 -86 -40.5s-29 -63.5 -29 -109.5c0 -46.667 8.66699 -83.5 26 -110.5s47 -40.5 89 -40.5zM292.001 517
c38.667 0 73.3291 -6.16699 103.996 -18.5s56.834 -30 78.501 -53s38.167 -50.833 49.5 -83.5s17 -69.334 17 -110.001c0 -86 -22 -151.833 -66 -197.5s-105 -68.5 -183 -68.5s-139.167 23 -183.5 69s-66.5 111.667 -66.5 197c0 40.667 5.83301 77.334 17.5 110.001
s28.334 60.5 50.001 83.5s47.834 40.667 78.501 53s65.334 18.5 104.001 18.5zM380.996 782l50 -101l-246 -111l-40 81z" />
    <glyph glyph-name="ocircumflex" unicode="&#xf4;" horiz-adv-x="584" 
d="M292 101c41.333 0 70.667 13.5 88 40.5s26 63.833 26 110.5c0 46 -9.5 82.5 -28.5 109.5s-47.5 40.5 -85.5 40.5s-66.667 -13.5 -86 -40.5s-29 -63.5 -29 -109.5c0 -46.667 8.66699 -83.5 26 -110.5s47 -40.5 89 -40.5zM292.001 517
c38.667 0 73.3291 -6.16699 103.996 -18.5s56.834 -30 78.501 -53s38.167 -50.833 49.5 -83.5s17 -69.334 17 -110.001c0 -86 -22 -151.833 -66 -197.5s-105 -68.5 -183 -68.5s-139.167 23 -183.5 69s-66.5 111.667 -66.5 197c0 40.667 5.83301 77.334 17.5 110.001
s28.334 60.5 50.001 83.5s47.834 40.667 78.501 53s65.334 18.5 104.001 18.5zM106.996 636l145 139h81l144 -139l-65 -64l-120 96l-119 -96z" />
    <glyph glyph-name="otilde" unicode="&#xf5;" horiz-adv-x="584" 
d="M292 101c41.333 0 70.667 13.5 88 40.5s26 63.833 26 110.5c0 46 -9.5 82.5 -28.5 109.5s-47.5 40.5 -85.5 40.5s-66.667 -13.5 -86 -40.5s-29 -63.5 -29 -109.5c0 -46.667 8.66699 -83.5 26 -110.5s47 -40.5 89 -40.5zM292.001 517
c38.667 0 73.3291 -6.16699 103.996 -18.5s56.834 -30 78.501 -53s38.167 -50.833 49.5 -83.5s17 -69.334 17 -110.001c0 -86 -22 -151.833 -66 -197.5s-105 -68.5 -183 -68.5s-139.167 23 -183.5 69s-66.5 111.667 -66.5 197c0 40.667 5.83301 77.334 17.5 110.001
s28.334 60.5 50.001 83.5s47.834 40.667 78.501 53s65.334 18.5 104.001 18.5zM102.996 580c0 48 10.001 85 30.001 111s48.333 39 85 39c18 0 34 -3 48 -9s27.167 -12.5 39.5 -19.5s24.166 -13.333 35.499 -19s23.333 -8.5 36 -8.5c16.667 0 28.5 4.5 35.5 13.5
s10.5 22.167 10.5 39.5h75c0 -48.667 -10 -85.834 -30 -111.501s-48.333 -38.5 -85 -38.5c-18 0 -34 3 -48 9s-27 12.5 -39 19.5l-35 19.5c-11.333 6 -23.333 9 -36 9c-17.333 0 -29.5 -4.66699 -36.5 -14s-10.5 -22.666 -10.5 -39.999h-75z" />
    <glyph glyph-name="odieresis" unicode="&#xf6;" horiz-adv-x="584" 
d="M292 101c41.333 0 70.667 13.5 88 40.5s26 63.833 26 110.5c0 46 -9.5 82.5 -28.5 109.5s-47.5 40.5 -85.5 40.5s-66.667 -13.5 -86 -40.5s-29 -63.5 -29 -109.5c0 -46.667 8.66699 -83.5 26 -110.5s47 -40.5 89 -40.5zM292.001 517
c38.667 0 73.3291 -6.16699 103.996 -18.5s56.834 -30 78.501 -53s38.167 -50.833 49.5 -83.5s17 -69.334 17 -110.001c0 -86 -22 -151.833 -66 -197.5s-105 -68.5 -183 -68.5s-139.167 23 -183.5 69s-66.5 111.667 -66.5 197c0 40.667 5.83301 77.334 17.5 110.001
s28.334 60.5 50.001 83.5s47.834 40.667 78.501 53s65.334 18.5 104.001 18.5zM249.996 674c0 -23.333 -6.83301 -42.5 -20.5 -57.5s-31.834 -22.5 -54.501 -22.5s-40.834 7.83301 -54.501 23.5s-20.5 34.5 -20.5 56.5s6.83301 40.833 20.5 56.5s31.834 23.5 54.501 23.5
s40.834 -7.5 54.501 -22.5s20.5 -34.167 20.5 -57.5zM483.996 674c0 -23.333 -6.83301 -42.5 -20.5 -57.5s-31.834 -22.5 -54.501 -22.5s-40.834 7.83301 -54.501 23.5s-20.5 34.5 -20.5 56.5s6.83301 40.833 20.5 56.5s31.834 23.5 54.501 23.5s40.834 -7.5 54.501 -22.5
s20.5 -34.167 20.5 -57.5z" />
    <glyph glyph-name="divide" unicode="&#xf7;" horiz-adv-x="614" 
d="M307 69c-21.333 0 -39.666 7.5 -54.999 22.5s-23 33.5 -23 55.5c0 21.333 7.66699 39.666 23 54.999s33.666 23 54.999 23s39.666 -7.66699 54.999 -23s23 -33.666 23 -54.999c0 -22 -7.66699 -40.5 -23 -55.5s-33.666 -22.5 -54.999 -22.5zM229 540
c0 22 7.66699 40.667 23 56s33.666 23 54.999 23s39.666 -7.66699 54.999 -23s23 -34 23 -56c0 -21.333 -7.66699 -39.5 -23 -54.5s-33.666 -22.5 -54.999 -22.5s-39.666 7.5 -54.999 22.5s-23 33.167 -23 54.5zM67 403h479v-116h-479v116z" />
    <glyph glyph-name="oslash" unicode="&#xf8;" horiz-adv-x="584" 
d="M292 517c44 0 83.9961 -8.66504 119.996 -25.998l40 60l65 -42l-43 -63c21.333 -23.333 37.833 -51.333 49.5 -84s17.5 -69.334 17.5 -110.001c0 -86 -22 -151.833 -66 -197.5s-105 -68.5 -183 -68.5c-22.667 0 -43.667 2.16699 -63 6.5s-37.666 10.166 -54.999 17.499
l-42 -61l-65 42l44 63c-22 23.333 -39 51.166 -51 83.499s-18 70.5 -18 114.5c0 40.667 5.83301 77.334 17.5 110.001s28.334 60.5 50.001 83.5s47.834 40.667 78.501 53s65.334 18.5 104.001 18.5zM175.996 252.002c0 -35.333 4.33301 -63.665 13 -84.998l155 226
c-7.33301 3.33301 -15.5 6.16602 -24.5 8.49902s-18.167 3.5 -27.5 3.5c-38.667 0 -67.667 -13.833 -87 -41.5s-29 -64.834 -29 -111.501zM291.996 98.0029c36.667 0 63.667 10.1689 81 30.502s28 48.833 32 85.5c2 12.667 3 27 3 43c0 13.333 -1.33301 26.666 -4 39.999
s-5.66699 24.666 -9 33.999l-154 -224c14 -6 31 -9 51 -9z" />
    <glyph glyph-name="ugrave" unicode="&#xf9;" horiz-adv-x="573" 
d="M377 504l134 0.000976562v-504h-122l-5 66c-13.333 -21.333 -32.833 -39.833 -58.5 -55.5s-58.834 -23.5 -99.501 -23.5c-59.333 0 -101.833 17.333 -127.5 52s-38.5 83 -38.5 145v320h134v-312c0 -34.667 7.33301 -58.334 22 -71.001s32.334 -19 53.001 -19
c21.333 0 39 4.33301 53 13s25 20.5 33 35.5s13.667 32.5 17 52.5s5 41.667 5 65v236zM377 570.001l-246 111l50 101l236 -131z" />
    <glyph glyph-name="uacute" unicode="&#xfa;" horiz-adv-x="573" 
d="M377 504l134 0.000976562v-504h-122l-5 66c-13.333 -21.333 -32.833 -39.833 -58.5 -55.5s-58.834 -23.5 -99.501 -23.5c-59.333 0 -101.833 17.333 -127.5 52s-38.5 83 -38.5 145v320h134v-312c0 -34.667 7.33301 -58.334 22 -71.001s32.334 -19 53.001 -19
c21.333 0 39 4.33301 53 13s25 20.5 33 35.5s13.667 32.5 17 52.5s5 41.667 5 65v236zM411 782.001l50 -101l-246 -111l-40 81z" />
    <glyph glyph-name="ucircumflex" unicode="&#xfb;" horiz-adv-x="573" 
d="M377 504l134 0.000976562v-504h-122l-5 66c-13.333 -21.333 -32.833 -39.833 -58.5 -55.5s-58.834 -23.5 -99.501 -23.5c-59.333 0 -101.833 17.333 -127.5 52s-38.5 83 -38.5 145v320h134v-312c0 -34.667 7.33301 -58.334 22 -71.001s32.334 -19 53.001 -19
c21.333 0 39 4.33301 53 13s25 20.5 33 35.5s13.667 32.5 17 52.5s5 41.667 5 65v236zM108 636.001l145 139h81l144 -139l-65 -64l-120 96l-119 -96z" />
    <glyph glyph-name="udieresis" unicode="&#xfc;" horiz-adv-x="573" 
d="M377 504l134 0.000976562v-504h-122l-5 66c-13.333 -21.333 -32.833 -39.833 -58.5 -55.5s-58.834 -23.5 -99.501 -23.5c-59.333 0 -101.833 17.333 -127.5 52s-38.5 83 -38.5 145v320h134v-312c0 -34.667 7.33301 -58.334 22 -71.001s32.334 -19 53.001 -19
c21.333 0 39 4.33301 53 13s25 20.5 33 35.5s13.667 32.5 17 52.5s5 41.667 5 65v236zM243 674.001c0 -23.333 -6.83301 -42.5 -20.5 -57.5s-31.834 -22.5 -54.501 -22.5s-40.834 7.83301 -54.501 23.5s-20.5 34.5 -20.5 56.5s6.83301 40.833 20.5 56.5
s31.834 23.5 54.501 23.5s40.834 -7.5 54.501 -22.5s20.5 -34.167 20.5 -57.5zM477 674.001c0 -23.333 -6.83301 -42.5 -20.5 -57.5s-31.834 -22.5 -54.501 -22.5s-40.834 7.83301 -54.501 23.5s-20.5 34.5 -20.5 56.5s6.83301 40.833 20.5 56.5s31.834 23.5 54.501 23.5
s40.834 -7.5 54.501 -22.5s20.5 -34.167 20.5 -57.5z" />
    <glyph glyph-name="yacute" unicode="&#xfd;" horiz-adv-x="528" 
d="M8 504h149l110 -318l115 318h138l-305 -724h-128l107 257zM387 782l50 -101l-246 -111l-40 81z" />
    <glyph glyph-name="thorn" unicode="&#xfe;" horiz-adv-x="587" 
d="M305 402c-22 0 -40.001 -4.50195 -54.001 -13.502s-25.167 -21.167 -33.5 -36.5s-14 -33.166 -17 -53.499s-4.5 -41.833 -4.5 -64.5v-103c7.33301 -5.33301 19.333 -11.333 36 -18s37.334 -10 62.001 -10c34.667 0 62.5 12.333 83.5 37s31.5 63.334 31.5 116.001
c0 42 -8.5 76.833 -25.5 104.5s-43.167 41.5 -78.5 41.5zM331.999 516.998c38 0 70.333 -6.5 97 -19.5s48.667 -31 66 -54s30 -50.5 38 -82.5s12 -67 12 -105c0 -46.667 -6.5 -86.667 -19.5 -120s-30 -60.833 -51 -82.5s-45.333 -37.667 -73 -48
s-55.834 -15.5 -84.501 -15.5c-43.333 0 -83.666 10.333 -120.999 31v-241h-134v970h134v-295c12 15.333 29.5 29.5 52.5 42.5s50.833 19.5 83.5 19.5z" />
    <glyph glyph-name="ydieresis" unicode="&#xff;" horiz-adv-x="528" 
d="M8 504h149l110 -318l115 318h138l-305 -724h-128l107 257zM230 674c0 -23.333 -6.83301 -42.5 -20.5 -57.5s-31.834 -22.5 -54.501 -22.5s-40.834 7.83301 -54.501 23.5s-20.5 34.5 -20.5 56.5s6.83301 40.833 20.5 56.5s31.834 23.5 54.501 23.5
s40.834 -7.5 54.501 -22.5s20.5 -34.167 20.5 -57.5zM464 674c0 -23.333 -6.83301 -42.5 -20.5 -57.5s-31.834 -22.5 -54.501 -22.5s-40.834 7.83301 -54.501 23.5s-20.5 34.5 -20.5 56.5s6.83301 40.833 20.5 56.5s31.834 23.5 54.501 23.5s40.834 -7.5 54.501 -22.5
s20.5 -34.167 20.5 -57.5z" />
    <glyph glyph-name="Amacron" unicode="&#x100;" horiz-adv-x="619" 
d="M424 146h-240l-44 -146h-130l230 703h140l229 -703h-141zM220 263h169l-83 277zM140 803v110h331v-110h-331z" />
    <glyph glyph-name="amacron" unicode="&#x101;" horiz-adv-x="534" 
d="M345 223c-12.667 2 -27 4.00195 -43 6.00195s-34.667 3 -56 3c-34 0 -57.333 -6.66699 -70 -20s-19 -33 -19 -59c0 -21.333 7.33301 -37.833 22 -49.5s33.667 -17.5 57 -17.5c14 0 27.667 1.83301 41 5.5s25 9.16699 35 16.5s18 16.166 24 26.499s9 22.166 9 35.499v53z
M208 -12.998c-22 0 -43.167 2.66602 -63.5 7.99902s-38.5 14.333 -54.5 27s-28.833 29.334 -38.5 50.001s-14.5 46.667 -14.5 78c0 56.667 16.833 99.334 50.5 128.001s85.5 43 155.5 43c9.33301 0 19.5 -0.333008 30.5 -1s21.5 -1.5 31.5 -2.5s18.667 -1.83301 26 -2.5
s12 -1.33398 14 -2.00098v18c0 26.667 -8.66699 46.5 -26 59.5s-41 19.5 -71 19.5c-40 0 -72.667 -4 -98 -12s-43 -15.333 -53 -22l-39 89c4.66699 3.33301 12.334 8 23.001 14s24.5 11.833 41.5 17.5s36.833 10.667 59.5 15s48.667 6.5 78 6.5
c75.333 0 129.666 -16.167 162.999 -48.5s50 -76.833 50 -133.5v-336h-116l-4 51c-12.667 -15.333 -31 -29.833 -55 -43.5s-54 -20.5 -90 -20.5zM118 601.001v106h308v-106h-308z" />
    <glyph glyph-name="Abreve" unicode="&#x102;" horiz-adv-x="619" 
d="M424 146h-240l-44 -146h-130l230 703h140l229 -703h-141zM220 263h169l-83 277zM307 861c28 0 49.3291 6.83301 63.9961 20.5s22 31.167 22 52.5h98c0 -22 -3.66699 -43.667 -11 -65s-18.5 -40.166 -33.5 -56.499s-34.167 -29.5 -57.5 -39.5s-50.666 -15 -81.999 -15
s-58.666 5 -81.999 15s-42.666 23.167 -57.999 39.5s-26.666 35.166 -33.999 56.499s-11 43 -11 65h99c0 -21.333 7.33301 -38.833 22 -52.5s36 -20.5 64 -20.5z" />
    <glyph glyph-name="abreve" unicode="&#x103;" horiz-adv-x="534" 
d="M345 223c-12.667 2 -27 4.00195 -43 6.00195s-34.667 3 -56 3c-34 0 -57.333 -6.66699 -70 -20s-19 -33 -19 -59c0 -21.333 7.33301 -37.833 22 -49.5s33.667 -17.5 57 -17.5c14 0 27.667 1.83301 41 5.5s25 9.16699 35 16.5s18 16.166 24 26.499s9 22.166 9 35.499v53z
M208 -12.998c-22 0 -43.167 2.66602 -63.5 7.99902s-38.5 14.333 -54.5 27s-28.833 29.334 -38.5 50.001s-14.5 46.667 -14.5 78c0 56.667 16.833 99.334 50.5 128.001s85.5 43 155.5 43c9.33301 0 19.5 -0.333008 30.5 -1s21.5 -1.5 31.5 -2.5s18.667 -1.83301 26 -2.5
s12 -1.33398 14 -2.00098v18c0 26.667 -8.66699 46.5 -26 59.5s-41 19.5 -71 19.5c-40 0 -72.667 -4 -98 -12s-43 -15.333 -53 -22l-39 89c4.66699 3.33301 12.334 8 23.001 14s24.5 11.833 41.5 17.5s36.833 10.667 59.5 15s48.667 6.5 78 6.5
c75.333 0 129.666 -16.167 162.999 -48.5s50 -76.833 50 -133.5v-336h-116l-4 51c-12.667 -15.333 -31 -29.833 -55 -43.5s-54 -20.5 -90 -20.5zM269 674.001c28 0 48.333 7.66699 61 23s19 33.666 19 54.999h94c0 -22.667 -3.33301 -44.334 -10 -65.001
s-17.167 -39 -31.5 -55s-32.5 -28.833 -54.5 -38.5s-48 -14.5 -78 -14.5c-30.667 0 -57 4.83301 -79 14.5s-40.167 22.5 -54.5 38.5s-25 34.333 -32 55s-10.5 42.334 -10.5 65.001h95c0 -21.333 6.5 -39.666 19.5 -54.999s33.5 -23 61.5 -23z" />
    <glyph glyph-name="Aogonek" unicode="&#x104;" horiz-adv-x="619" 
d="M424 146h-240l-44 -146h-130l230 703h140l229 -703c-51.333 -37.333 -77 -70 -77 -98c0 -14 5.16699 -23.833 15.5 -29.5s22.833 -8.5 37.5 -8.5h14c4 0 9.33301 0.333008 16 1v-86c-5.33301 -0.666992 -11.333 -1.16699 -18 -1.5s-13.667 -0.5 -21 -0.5
c-57.333 0 -96.833 8.66699 -118.5 26s-32.5 43 -32.5 77c0 40.667 27 80.667 81 120h-38zM220 263h169l-83 277z" />
    <glyph glyph-name="aogonek" unicode="&#x105;" horiz-adv-x="534" 
d="M345 223c-12.667 2 -27 4.00195 -43 6.00195s-34.667 3 -56 3c-34 0 -57.333 -6.66699 -70 -20s-19 -33 -19 -59c0 -21.333 7.33301 -37.833 22 -49.5s33.667 -17.5 57 -17.5c14 0 27.667 1.83301 41 5.5s25 9.16699 35 16.5s18 16.166 24 26.499s9 22.166 9 35.499v53z
M208 -12.998c-22 0 -43.167 2.66504 -63.5 7.99805s-38.5 14.333 -54.5 27s-28.833 29.334 -38.5 50.001s-14.5 46.667 -14.5 78c0 56.667 16.833 99.334 50.5 128.001s85.5 43 155.5 43c9.33301 0 19.5 -0.333008 30.5 -1s21.5 -1.5 31.5 -2.5s18.667 -1.83301 26 -2.5
s12 -1.33398 14 -2.00098v18c0 26.667 -8.66699 46.5 -26 59.5s-41 19.5 -71 19.5c-40 0 -72.667 -4 -98 -12s-43 -15.333 -53 -22l-39 89c4.66699 3.33301 12.334 8 23.001 14s24.5 11.833 41.5 17.5s36.833 10.667 59.5 15s48.667 6.5 78 6.5
c75.333 0 129.666 -16.167 162.999 -48.5s50 -76.833 50 -133.5v-336c-25.333 -18.667 -44 -36 -56 -52s-18 -30.667 -18 -44s4.83301 -22.833 14.5 -28.5s21.5 -8.5 35.5 -8.5h14c4 0 9.33301 0.333008 16 1v-83c-5.33301 -0.666992 -11.333 -1.16699 -18 -1.5
s-13.667 -0.5 -21 -0.5c-56 0 -94.5 8.33301 -115.5 25s-31.5 41.334 -31.5 74.001c0 19.333 6 38.833 18 58.5s32 39.5 60 59.5h-14l-4 51c-12.667 -15.333 -31 -29.833 -55 -43.5s-54 -20.5 -90 -20.5z" />
    <glyph glyph-name="Cacute" unicode="&#x106;" horiz-adv-x="636" 
d="M386 595c-32 0 -59.6689 -6.50098 -83.002 -19.501s-42.666 -30.667 -57.999 -53s-26.666 -48.166 -33.999 -77.499s-11 -60.333 -11 -93c0 -33.333 3.16699 -64.5 9.5 -93.5s16.666 -54.167 30.999 -75.5s32.666 -38 54.999 -50s49.5 -18 81.5 -18
c16.667 0 33.334 1.5 50.001 4.5s32.5 7 47.5 12s28.333 10.333 40 16s20.834 11.167 27.501 16.5l54 -98c-28 -22 -62.333 -40 -103 -54s-85.334 -21 -134.001 -21c-50 0 -94.167 8.33301 -132.5 25s-70.166 40.5 -95.499 71.5s-44.5 68.833 -57.5 113.5
s-19.5 95 -19.5 151c0 52.667 6.83301 101.167 20.5 145.5s34 82.5 61 114.5s60.5 57 100.5 75s86 27 138 27c48 0 90.5 -6.83301 127.5 -20.5s69.5 -32.5 97.5 -56.5l-62 -98c-14 13.333 -33.667 26 -59 38s-56 18 -92 18zM463.998 959.999l42 -105l-273 -98l-33 84z" />
    <glyph glyph-name="cacute" unicode="&#x107;" horiz-adv-x="480" 
d="M177 252c0 -52 11.168 -89.999 33.501 -113.999s54.5 -36 96.5 -36c28 0 50.667 3.66699 68 11s30.666 14 39.999 20l51 -91l-24 -15.5c-10 -6.33301 -22.167 -12.5 -36.5 -18.5s-30.833 -11.167 -49.5 -15.5s-39.334 -6.5 -62.001 -6.5
c-83.333 0 -146.166 23.833 -188.499 71.5s-63.5 112.5 -63.5 194.5c0 39.333 5.83301 75.333 17.5 108s28.334 60.667 50.001 84s48 41.333 79 54s65.833 19 104.5 19c24.667 0 47.334 -2.83301 68.001 -8.5s38.667 -12.167 54 -19.5s27.666 -14.5 36.999 -21.5
s15.333 -11.833 18 -14.5l-60 -92c-3.33301 2 -8.33301 5.33301 -15 10s-14.667 9.16699 -24 13.5s-19.833 8.16602 -31.5 11.499s-23.834 5 -36.501 5c-38 0 -68.5 -12.333 -91.5 -37s-34.5 -62 -34.5 -112zM354.001 782.001l50 -101l-246 -111l-40 81z" />
    <glyph glyph-name="Ccircumflex" unicode="&#x108;" horiz-adv-x="636" 
d="M386 595c-32 0 -59.6689 -6.50098 -83.002 -19.501s-42.666 -30.667 -57.999 -53s-26.666 -48.166 -33.999 -77.499s-11 -60.333 -11 -93c0 -33.333 3.16699 -64.5 9.5 -93.5s16.666 -54.167 30.999 -75.5s32.666 -38 54.999 -50s49.5 -18 81.5 -18
c16.667 0 33.334 1.5 50.001 4.5s32.5 7 47.5 12s28.333 10.333 40 16s20.834 11.167 27.501 16.5l54 -98c-28 -22 -62.333 -40 -103 -54s-85.334 -21 -134.001 -21c-50 0 -94.167 8.33301 -132.5 25s-70.166 40.5 -95.499 71.5s-44.5 68.833 -57.5 113.5
s-19.5 95 -19.5 151c0 52.667 6.83301 101.167 20.5 145.5s34 82.5 61 114.5s60.5 57 100.5 75s86 27 138 27c48 0 90.5 -6.83301 127.5 -20.5s69.5 -32.5 97.5 -56.5l-62 -98c-14 13.333 -33.667 26 -59 38s-56 18 -92 18zM505.998 758.999l-145 96l-145 -96l-58 69
l158 138h90l158 -138z" />
    <glyph glyph-name="ccircumflex" unicode="&#x109;" horiz-adv-x="480" 
d="M177 252c0 -52 11.168 -89.999 33.501 -113.999s54.5 -36 96.5 -36c28 0 50.667 3.66699 68 11s30.666 14 39.999 20l51 -91l-24 -15.5c-10 -6.33301 -22.167 -12.5 -36.5 -18.5s-30.833 -11.167 -49.5 -15.5s-39.334 -6.5 -62.001 -6.5
c-83.333 0 -146.166 23.833 -188.499 71.5s-63.5 112.5 -63.5 194.5c0 39.333 5.83301 75.333 17.5 108s28.334 60.667 50.001 84s48 41.333 79 54s65.833 19 104.5 19c24.667 0 47.334 -2.83301 68.001 -8.5s38.667 -12.167 54 -19.5s27.666 -14.5 36.999 -21.5
s15.333 -11.833 18 -14.5l-60 -92c-3.33301 2 -8.33301 5.33301 -15 10s-14.667 9.16699 -24 13.5s-19.833 8.16602 -31.5 11.499s-23.834 5 -36.501 5c-38 0 -68.5 -12.333 -91.5 -37s-34.5 -62 -34.5 -112zM99.001 636.001l145 139h81l144 -139l-65 -64l-120 96l-119 -96z
" />
    <glyph glyph-name="Cdotaccent" unicode="&#x10a;" horiz-adv-x="636" 
d="M386 595c-32 0 -59.6689 -6.50098 -83.002 -19.501s-42.666 -30.667 -57.999 -53s-26.666 -48.166 -33.999 -77.499s-11 -60.333 -11 -93c0 -33.333 3.16699 -64.5 9.5 -93.5s16.666 -54.167 30.999 -75.5s32.666 -38 54.999 -50s49.5 -18 81.5 -18
c16.667 0 33.334 1.5 50.001 4.5s32.5 7 47.5 12s28.333 10.333 40 16s20.834 11.167 27.501 16.5l54 -98c-28 -22 -62.333 -40 -103 -54s-85.334 -21 -134.001 -21c-50 0 -94.167 8.33301 -132.5 25s-70.166 40.5 -95.499 71.5s-44.5 68.833 -57.5 113.5
s-19.5 95 -19.5 151c0 52.667 6.83301 101.167 20.5 145.5s34 82.5 61 114.5s60.5 57 100.5 75s86 27 138 27c48 0 90.5 -6.83301 127.5 -20.5s69.5 -32.5 97.5 -56.5l-62 -98c-14 13.333 -33.667 26 -59 38s-56 18 -92 18zM433.998 870.999
c0 -24.667 -7.16699 -44.8301 -21.5 -60.4971s-33.5 -23.5 -57.5 -23.5s-43.167 8.16699 -57.5 24.5s-21.5 36.166 -21.5 59.499s7.16699 43.166 21.5 59.499s33.5 24.5 57.5 24.5s43.167 -7.83301 57.5 -23.5s21.5 -35.834 21.5 -60.501z" />
    <glyph glyph-name="cdotaccent" unicode="&#x10b;" horiz-adv-x="480" 
d="M177 252c0 -52 11.168 -89.999 33.501 -113.999s54.5 -36 96.5 -36c28 0 50.667 3.66699 68 11s30.666 14 39.999 20l51 -91l-24 -15.5c-10 -6.33301 -22.167 -12.5 -36.5 -18.5s-30.833 -11.167 -49.5 -15.5s-39.334 -6.5 -62.001 -6.5
c-83.333 0 -146.166 23.833 -188.499 71.5s-63.5 112.5 -63.5 194.5c0 39.333 5.83301 75.333 17.5 108s28.334 60.667 50.001 84s48 41.333 79 54s65.833 19 104.5 19c24.667 0 47.334 -2.83301 68.001 -8.5s38.667 -12.167 54 -19.5s27.666 -14.5 36.999 -21.5
s15.333 -11.833 18 -14.5l-60 -92c-3.33301 2 -8.33301 5.33301 -15 10s-14.667 9.16699 -24 13.5s-19.833 8.16602 -31.5 11.499s-23.834 5 -36.501 5c-38 0 -68.5 -12.333 -91.5 -37s-34.5 -62 -34.5 -112zM363.001 672.001c0 -23.333 -6.83301 -42.6699 -20.5 -58.0029
s-32.167 -23 -55.5 -23s-41.833 7.83301 -55.5 23.5s-20.5 34.834 -20.5 57.501s6.83301 41.834 20.5 57.501s32.167 23.5 55.5 23.5s41.833 -7.66699 55.5 -23s20.5 -34.666 20.5 -57.999z" />
    <glyph glyph-name="Ccaron" unicode="&#x10c;" horiz-adv-x="636" 
d="M386 595c-32 0 -59.6689 -6.50098 -83.002 -19.501s-42.666 -30.667 -57.999 -53s-26.666 -48.166 -33.999 -77.499s-11 -60.333 -11 -93c0 -33.333 3.16699 -64.5 9.5 -93.5s16.666 -54.167 30.999 -75.5s32.666 -38 54.999 -50s49.5 -18 81.5 -18
c16.667 0 33.334 1.5 50.001 4.5s32.5 7 47.5 12s28.333 10.333 40 16s20.834 11.167 27.501 16.5l54 -98c-28 -22 -62.333 -40 -103 -54s-85.334 -21 -134.001 -21c-50 0 -94.167 8.33301 -132.5 25s-70.166 40.5 -95.499 71.5s-44.5 68.833 -57.5 113.5
s-19.5 95 -19.5 151c0 52.667 6.83301 101.167 20.5 145.5s34 82.5 61 114.5s60.5 57 100.5 75s86 27 138 27c48 0 90.5 -6.83301 127.5 -20.5s69.5 -32.5 97.5 -56.5l-62 -98c-14 13.333 -33.667 26 -59 38s-56 18 -92 18zM316.998 758.999l-158 138l58 69l145 -96l145 96
l58 -69l-158 -138h-90z" />
    <glyph glyph-name="ccaron" unicode="&#x10d;" horiz-adv-x="480" 
d="M177 252c0 -52 11.168 -89.999 33.501 -113.999s54.5 -36 96.5 -36c28 0 50.667 3.66699 68 11s30.666 14 39.999 20l51 -91l-24 -15.5c-10 -6.33301 -22.167 -12.5 -36.5 -18.5s-30.833 -11.167 -49.5 -15.5s-39.334 -6.5 -62.001 -6.5
c-83.333 0 -146.166 23.833 -188.499 71.5s-63.5 112.5 -63.5 194.5c0 39.333 5.83301 75.333 17.5 108s28.334 60.667 50.001 84s48 41.333 79 54s65.833 19 104.5 19c24.667 0 47.334 -2.83301 68.001 -8.5s38.667 -12.167 54 -19.5s27.666 -14.5 36.999 -21.5
s15.333 -11.833 18 -14.5l-60 -92c-3.33301 2 -8.33301 5.33301 -15 10s-14.667 9.16699 -24 13.5s-19.833 8.16602 -31.5 11.499s-23.834 5 -36.501 5c-38 0 -68.5 -12.333 -91.5 -37s-34.5 -62 -34.5 -112zM282.001 675.001l120 95l65 -63l-144 -139h-81l-145 139l66 63z
" />
    <glyph glyph-name="Dcaron" unicode="&#x10e;" horiz-adv-x="713" 
d="M318 703c58 0 108.333 -8.50195 151 -25.502s78 -41 106 -72s49 -68 63 -111s21 -90.833 21 -143.5c0 -53.333 -7 -101.666 -21 -144.999s-35.167 -80.166 -63.5 -110.499s-63.833 -53.833 -106.5 -70.5s-92.667 -25 -150 -25h-244v703h244zM318 120.998
c30 0 57.166 5.50098 81.499 16.501s44.833 26.667 61.5 47s29.5 44.666 38.5 72.999s13.5 59.833 13.5 94.5c0 78 -17.667 135.833 -53 173.5s-82.666 56.5 -141.999 56.5h-103v-461h103zM267.999 758.999l-158 138l58 69l145 -96l145 96l58 -69l-158 -138h-90z" />
    <glyph glyph-name="dcaron" unicode="&#x10f;" horiz-adv-x="691" 
d="M281 402c-18 0 -33.3359 -3.83398 -46.0029 -11.501s-23.334 -18.167 -32.001 -31.5s-15 -29.166 -19 -47.499s-6 -38.166 -6 -59.499c0 -52.667 9.16699 -90 27.5 -112s46.5 -33 84.5 -33c24.667 0 45.834 4.66699 63.501 14s30.167 18.333 37.5 27v87
c0 23.333 -1.66699 45.166 -5 65.499s-9.16602 38 -17.499 53s-19.666 26.833 -33.999 35.5s-32.166 13 -53.499 13zM406.997 49.999c-10.667 -12.667 -27.9951 -25.167 -51.9951 -37.5s-54 -18.5 -90 -18.5c-29.333 0 -57.333 4 -84 12s-50.334 22 -71.001 42
s-37 46.5 -49 79.5s-18 74.5 -18 124.5c0 36.667 4.16699 71 12.5 103s21.166 60 38.499 84s39.166 43 65.499 57s57.5 21 93.5 21c18 0 34.667 -2.16699 50 -6.5s28.666 -10 39.999 -17s21.166 -14.5 29.499 -22.5s14.5 -15.333 18.5 -22v301h134v-750h-115z
M597.002 679.999c0 25.333 7.16797 45.334 21.501 60.001s33.833 22 58.5 22c24 0 43.333 -7.83301 58 -23.5s22 -37.834 22 -66.501c0 -21.333 -4.5 -44.5 -13.5 -69.5s-19.5 -48.667 -31.5 -71s-23.833 -42.166 -35.5 -59.499s-19.834 -29 -24.501 -35l-59 36l14 29
c5.33301 11.333 10.5 23.333 15.5 36s9.5 25.167 13.5 37.5s6.66699 23.166 8 32.499c-12.667 6.66699 -23.667 16 -33 28s-14 26.667 -14 44z" />
    <glyph glyph-name="Dcroat" unicode="&#x110;" horiz-adv-x="734" 
d="M11 414l84 -0.00195312v289h243c58 0 108.333 -8.5 151 -25.5s78.167 -41 106.5 -72s49.5 -68 63.5 -111s21 -90.833 21 -143.5c0 -53.333 -7 -101.666 -21 -144.999s-35.167 -80.166 -63.5 -110.499s-64 -53.833 -107 -70.5s-93.167 -25 -150.5 -25h-243v302h-84v112z
M338 120.998c30 0 57.167 5.50098 81.5 16.501s45 26.667 62 47s30 44.666 39 72.999s13.5 59.833 13.5 94.5c0 78 -17.833 135.833 -53.5 173.5s-83.167 56.5 -142.5 56.5h-103v-168h140v-112h-140v-181h103z" />
    <glyph glyph-name="dcroat" unicode="&#x111;" horiz-adv-x="597" 
d="M281 402c-18 0 -33.3359 -3.83398 -46.0029 -11.501s-23.334 -18.167 -32.001 -31.5s-15 -29.166 -19 -47.499s-6 -38.166 -6 -59.499c0 -52.667 9.16699 -90 27.5 -112s46.5 -33 84.5 -33c24.667 0 45.834 4.66699 63.501 14s30.167 18.333 37.5 27v87
c0 23.333 -1.66699 45.166 -5 65.499s-9.16602 38 -17.499 53s-19.666 26.833 -33.999 35.5s-32.166 13 -53.499 13zM406.997 49.999c-10.667 -12.667 -27.9951 -25.167 -51.9951 -37.5s-54 -18.5 -90 -18.5c-29.333 0 -57.333 4 -84 12s-50.334 22 -71.001 42
s-37 46.5 -49 79.5s-18 74.5 -18 124.5c0 36.667 4.16699 71 12.5 103s21.166 60 38.499 84s39.166 43 65.499 57s57.5 21 93.5 21c18 0 34.667 -2.16699 50 -6.5s28.666 -10 39.999 -17s21.166 -14.5 29.499 -22.5s14.5 -15.333 18.5 -22v129h-170v90h170v82h134v-82h61
v-90h-61v-578h-115z" />
    <glyph glyph-name="Emacron" unicode="&#x112;" horiz-adv-x="547" 
d="M74 703h438v-124h-298v-153h228v-124h-228v-178h308v-124h-448v703zM139 803v110h331v-110h-331z" />
    <glyph glyph-name="emacron" unicode="&#x113;" horiz-adv-x="548" 
d="M315 99c32.667 0 60 2.5 82 7.5s38.667 9.16699 50 12.5l32 -94c-13.333 -7.33301 -35.166 -15.666 -65.499 -24.999s-68.833 -14 -115.5 -14c-84 0 -147.667 24 -191 72s-65 113.667 -65 197c0 39.333 5.16699 75.166 15.5 107.499s25.666 60 45.999 83
s45.5 40.667 75.5 53s64.667 18.5 104 18.5c35.333 0 66.833 -5.16699 94.5 -15.5s51 -26.5 70 -48.5s33.333 -50.667 43 -86s14.5 -78 14.5 -128v-27h-332c3.33301 -32 16 -58.833 38 -80.5s56.667 -32.5 104 -32.5zM379 305c-2.66699 34.667 -11 60.833 -25 78.5
s-38 26.5 -72 26.5s-59.833 -9.5 -77.5 -28.5s-28.167 -44.5 -31.5 -76.5h206zM129 600.999v106h308v-106h-308z" />
    <glyph glyph-name="Ebreve" unicode="&#x114;" horiz-adv-x="547" 
d="M74 703h438v-124h-298v-153h228v-124h-228v-178h308v-124h-448v703zM304 861c28 0 49.3291 6.83301 63.9961 20.5s22 31.167 22 52.5h98c0 -22 -3.66699 -43.667 -11 -65s-18.5 -40.166 -33.5 -56.499s-34.167 -29.5 -57.5 -39.5s-50.666 -15 -81.999 -15
s-58.666 5 -81.999 15s-42.666 23.167 -57.999 39.5s-26.666 35.166 -33.999 56.499s-11 43 -11 65h99c0 -21.333 7.33301 -38.833 22 -52.5s36 -20.5 64 -20.5z" />
    <glyph glyph-name="ebreve" unicode="&#x115;" horiz-adv-x="548" 
d="M315 99c32.667 0 60 2.5 82 7.5s38.667 9.16699 50 12.5l32 -94c-13.333 -7.33301 -35.166 -15.666 -65.499 -24.999s-68.833 -14 -115.5 -14c-84 0 -147.667 24 -191 72s-65 113.667 -65 197c0 39.333 5.16699 75.166 15.5 107.499s25.666 60 45.999 83
s45.5 40.667 75.5 53s64.667 18.5 104 18.5c35.333 0 66.833 -5.16699 94.5 -15.5s51 -26.5 70 -48.5s33.333 -50.667 43 -86s14.5 -78 14.5 -128v-27h-332c3.33301 -32 16 -58.833 38 -80.5s56.667 -32.5 104 -32.5zM379 305c-2.66699 34.667 -11 60.833 -25 78.5
s-38 26.5 -72 26.5s-59.833 -9.5 -77.5 -28.5s-28.167 -44.5 -31.5 -76.5h206zM293 673.999c28 0 48.333 7.66699 61 23s19 33.666 19 54.999h94c0 -22.667 -3.33301 -44.334 -10 -65.001s-17.167 -39 -31.5 -55s-32.5 -28.833 -54.5 -38.5s-48 -14.5 -78 -14.5
c-30.667 0 -57 4.83301 -79 14.5s-40.167 22.5 -54.5 38.5s-25 34.333 -32 55s-10.5 42.334 -10.5 65.001h95c0 -21.333 6.5 -39.666 19.5 -54.999s33.5 -23 61.5 -23z" />
    <glyph glyph-name="Edotaccent" unicode="&#x116;" horiz-adv-x="547" 
d="M74 703h438v-124h-298v-153h228v-124h-228v-178h308v-124h-448v703zM388 871c0 -24.667 -7.16699 -44.8301 -21.5 -60.4971s-33.5 -23.5 -57.5 -23.5s-43.167 8.16699 -57.5 24.5s-21.5 36.166 -21.5 59.499s7.16699 43.166 21.5 59.499s33.5 24.5 57.5 24.5
s43.167 -7.83301 57.5 -23.5s21.5 -35.834 21.5 -60.501z" />
    <glyph glyph-name="edotaccent" unicode="&#x117;" horiz-adv-x="548" 
d="M315 99c32.667 0 60 2.5 82 7.5s38.667 9.16699 50 12.5l32 -94c-13.333 -7.33301 -35.166 -15.666 -65.499 -24.999s-68.833 -14 -115.5 -14c-84 0 -147.667 24 -191 72s-65 113.667 -65 197c0 39.333 5.16699 75.166 15.5 107.499s25.666 60 45.999 83
s45.5 40.667 75.5 53s64.667 18.5 104 18.5c35.333 0 66.833 -5.16699 94.5 -15.5s51 -26.5 70 -48.5s33.333 -50.667 43 -86s14.5 -78 14.5 -128v-27h-332c3.33301 -32 16 -58.833 38 -80.5s56.667 -32.5 104 -32.5zM379 305c-2.66699 34.667 -11 60.833 -25 78.5
s-38 26.5 -72 26.5s-59.833 -9.5 -77.5 -28.5s-28.167 -44.5 -31.5 -76.5h206zM364 671.999c0 -23.333 -6.83301 -42.6699 -20.5 -58.0029s-32.167 -23 -55.5 -23s-41.833 7.83301 -55.5 23.5s-20.5 34.834 -20.5 57.501s6.83301 41.834 20.5 57.501s32.167 23.5 55.5 23.5
s41.833 -7.66699 55.5 -23s20.5 -34.666 20.5 -57.999z" />
    <glyph glyph-name="Eogonek" unicode="&#x118;" horiz-adv-x="547" 
d="M74 703l438 -0.000976562v-124h-298v-153h228v-124h-228v-178h308v-124c-25.333 -18.667 -44 -36 -56 -52s-18 -30.667 -18 -44s4.83301 -22.833 14.5 -28.5s21.5 -8.5 35.5 -8.5h14c4 0 9.33301 0.333008 16 1v-83c-5.33301 -0.666992 -11.333 -1.16699 -18 -1.5
s-13.667 -0.5 -21 -0.5c-56 0 -94.5 8.33301 -115.5 25s-31.5 41.334 -31.5 74.001c0 19.333 6 38.833 18 58.5s32 39.5 60 59.5h-346v703z" />
    <glyph glyph-name="eogonek" unicode="&#x119;" horiz-adv-x="548" 
d="M416 -215c-5.33301 -0.666992 -11.3311 -1.16602 -17.998 -1.49902s-13.667 -0.5 -21 -0.5c-56 0 -94.5 8.33301 -115.5 25s-31.5 41.334 -31.5 74.001c0 17.333 4.66699 34.666 14 51.999s24.666 34.666 45.999 51.999c-81.333 1.33301 -143 25.833 -185 73.5
s-63 112.834 -63 195.501c0 39.333 5.16699 75.166 15.5 107.499s25.666 60 45.999 83s45.5 40.667 75.5 53s64.667 18.5 104 18.5c35.333 0 66.833 -5.16699 94.5 -15.5s51 -26.5 70 -48.5s33.333 -50.667 43 -86s14.5 -78 14.5 -128v-27h-332
c3.33301 -32 16 -58.833 38 -80.5s56.667 -32.5 104 -32.5c32.667 0 60 2.5 82 7.5s38.667 9.16699 50 12.5l32 -94c-7.33301 -4 -16.833 -8.33301 -28.5 -13s-25.834 -9 -42.501 -13c-25.333 -18 -43.666 -35 -54.999 -51s-17 -30.667 -17 -44s4.83301 -22.833 14.5 -28.5
s21.5 -8.5 35.5 -8.5h14c4 0 9.33301 0.333008 16 1v-83zM379.002 305.001c-2.66699 34.667 -11 60.833 -25 78.5s-38 26.5 -72 26.5s-59.833 -9.5 -77.5 -28.5s-28.167 -44.5 -31.5 -76.5h206z" />
    <glyph glyph-name="Ecaron" unicode="&#x11a;" horiz-adv-x="547" 
d="M74 703h438v-124h-298v-153h228v-124h-228v-178h308v-124h-448v703zM252 759l-158 138l58 69l145 -96l145 96l58 -69l-158 -138h-90z" />
    <glyph glyph-name="ecaron" unicode="&#x11b;" horiz-adv-x="548" 
d="M315 99c32.667 0 60 2.5 82 7.5s38.667 9.16699 50 12.5l32 -94c-13.333 -7.33301 -35.166 -15.666 -65.499 -24.999s-68.833 -14 -115.5 -14c-84 0 -147.667 24 -191 72s-65 113.667 -65 197c0 39.333 5.16699 75.166 15.5 107.499s25.666 60 45.999 83
s45.5 40.667 75.5 53s64.667 18.5 104 18.5c35.333 0 66.833 -5.16699 94.5 -15.5s51 -26.5 70 -48.5s33.333 -50.667 43 -86s14.5 -78 14.5 -128v-27h-332c3.33301 -32 16 -58.833 38 -80.5s56.667 -32.5 104 -32.5zM379 305c-2.66699 34.667 -11 60.833 -25 78.5
s-38 26.5 -72 26.5s-59.833 -9.5 -77.5 -28.5s-28.167 -44.5 -31.5 -76.5h206zM286 674.999l120 95l65 -63l-144 -139h-81l-145 139l66 63z" />
    <glyph glyph-name="Gcircumflex" unicode="&#x11c;" horiz-adv-x="665" 
d="M390 600c-32.667 0 -60.9961 -6.33594 -84.9961 -19.0029s-43.667 -30.167 -59 -52.5s-26.833 -48.666 -34.5 -78.999s-11.5 -63.166 -11.5 -98.499s3.5 -67.833 10.5 -97.5s18.167 -55.167 33.5 -76.5s35 -38.166 59 -50.499s52.667 -18.5 86 -18.5
c19.333 0 37 1.33301 53 4s30.667 5.66699 44 9v175h-129v116h254v-384c-7.33301 -3.33301 -17.666 -7.5 -30.999 -12.5s-29.833 -9.83301 -49.5 -14.5s-42.834 -8.66699 -69.501 -12s-57 -5 -91 -5c-51.333 0 -96.666 8.33301 -135.999 25s-72.333 40.667 -99 72
s-46.834 69.666 -60.501 114.999s-20.5 97 -20.5 155c0 54 7 103.5 21 148.5s34.667 83.833 62 116.5s61.166 58 101.499 76s87.166 27 140.499 27c46 0 87.333 -6.33301 124 -19s69 -30 97 -52l-59 -99c-14.667 10.667 -34.834 21.834 -60.501 33.501
s-55.834 17.5 -90.501 17.5zM523.004 758.997l-145 96l-145 -96l-58 69l158 138h90l158 -138z" />
    <glyph glyph-name="gcircumflex" unicode="&#x11d;" horiz-adv-x="555" 
d="M463 417c13.333 -11.333 23.834 -25.498 31.501 -42.498s11.5 -33.167 11.5 -48.5c0 -32 -7.33301 -58.833 -22 -80.5s-33 -39 -55 -52s-45.5 -22.333 -70.5 -28s-47.833 -8.5 -68.5 -8.5c-12 0 -28.833 1.33301 -50.5 4s-42.834 8.33398 -63.501 17.001
c-4 -4.66699 -7 -10.834 -9 -18.501s-3 -14.5 -3 -20.5c0 -15.333 5.33301 -27.5 16 -36.5s32.334 -14.167 65.001 -15.5l104 -4c30 -1.33301 57.167 -4.5 81.5 -9.5s45 -13 62 -24s30.167 -25.333 39.5 -43s14 -39.5 14 -65.5c0 -25.333 -5.66699 -48.833 -17 -70.5
s-28.833 -40.5 -52.5 -56.5s-53.834 -28.5 -90.501 -37.5s-80.334 -13.5 -131.001 -13.5c-21.333 0 -44.833 1.83301 -70.5 5.5s-50 10.834 -73 21.501s-42.167 25.5 -57.5 44.5s-23 43.5 -23 73.5c0 26 5.83301 49.5 17.5 70.5s25.834 37.833 42.501 50.5
c-13.333 10.667 -23 22.5 -29 35.5s-9 27.833 -9 44.5c0 23.333 5.66699 44.666 17 63.999s24 35.666 38 48.999c-18.667 15.333 -32.167 33.166 -40.5 53.499s-12.5 40.833 -12.5 61.5c0 33.333 7 61.5 21 84.5s32 41.5 54 55.5s46.167 24.167 72.5 30.5
s51.833 9.5 76.5 9.5c18 0 33.5 -0.666992 46.5 -2s24.833 -2.83301 35.5 -4.5l29.5 -4.5c9 -1.33301 18.167 -2 27.5 -2h127v-92h-15c-10 0 -21 0.5 -33 1.5s-23.333 2.16699 -34 3.5zM259.001 -19.998c-14 0.666992 -30.334 1.66797 -49.001 3.00098s-34 4.33301 -46 9
c-5.33301 -8 -9.83301 -16.5 -13.5 -25.5s-5.5 -19.5 -5.5 -31.5c0 -15.333 3.33301 -27.833 10 -37.5s15.667 -17.167 27 -22.5s24.333 -9 39 -11s29.667 -3 45 -3c54.667 0 92.834 6 114.501 18s32.5 28.667 32.5 50c0 17.333 -6 29.666 -18 36.999s-28.667 11.333 -50 12
zM376 337.003c0 16 -2.66699 29.501 -8 40.501s-12.5 19.833 -21.5 26.5s-19.167 11.5 -30.5 14.5s-23 4.5 -35 4.5s-23.667 -1.5 -35 -4.5s-21.5 -7.83301 -30.5 -14.5s-16.167 -15.5 -21.5 -26.5s-8 -24.5 -8 -40.5s2.66699 -29.5 8 -40.5s12.5 -19.833 21.5 -26.5
s19.167 -11.334 30.5 -14.001s23 -4 35 -4s23.667 1.33301 35 4s21.5 7.16699 30.5 13.5s16.167 15 21.5 26s8 24.833 8 41.5zM109 636.004l145 139h81l144 -139l-65 -64l-120 96l-119 -96z" />
    <glyph glyph-name="Gbreve" unicode="&#x11e;" horiz-adv-x="665" 
d="M390 600c-32.667 0 -60.9961 -6.33594 -84.9961 -19.0029s-43.667 -30.167 -59 -52.5s-26.833 -48.666 -34.5 -78.999s-11.5 -63.166 -11.5 -98.499s3.5 -67.833 10.5 -97.5s18.167 -55.167 33.5 -76.5s35 -38.166 59 -50.499s52.667 -18.5 86 -18.5
c19.333 0 37 1.33301 53 4s30.667 5.66699 44 9v175h-129v116h254v-384c-7.33301 -3.33301 -17.666 -7.5 -30.999 -12.5s-29.833 -9.83301 -49.5 -14.5s-42.834 -8.66699 -69.501 -12s-57 -5 -91 -5c-51.333 0 -96.666 8.33301 -135.999 25s-72.333 40.667 -99 72
s-46.834 69.666 -60.501 114.999s-20.5 97 -20.5 155c0 54 7 103.5 21 148.5s34.667 83.833 62 116.5s61.166 58 101.499 76s87.166 27 140.499 27c46 0 87.333 -6.33301 124 -19s69 -30 97 -52l-59 -99c-14.667 10.667 -34.834 21.834 -60.501 33.501
s-55.834 17.5 -90.501 17.5zM376.004 860.997c28 0 49.3291 6.83301 63.9961 20.5s22 31.167 22 52.5h98c0 -22 -3.66699 -43.667 -11 -65s-18.5 -40.166 -33.5 -56.499s-34.167 -29.5 -57.5 -39.5s-50.666 -15 -81.999 -15s-58.666 5 -81.999 15
s-42.666 23.167 -57.999 39.5s-26.666 35.166 -33.999 56.499s-11 43 -11 65h99c0 -21.333 7.33301 -38.833 22 -52.5s36 -20.5 64 -20.5z" />
    <glyph glyph-name="gbreve" unicode="&#x11f;" horiz-adv-x="555" 
d="M463 417c13.333 -11.333 23.834 -25.498 31.501 -42.498s11.5 -33.167 11.5 -48.5c0 -32 -7.33301 -58.833 -22 -80.5s-33 -39 -55 -52s-45.5 -22.333 -70.5 -28s-47.833 -8.5 -68.5 -8.5c-12 0 -28.833 1.33301 -50.5 4s-42.834 8.33398 -63.501 17.001
c-4 -4.66699 -7 -10.834 -9 -18.501s-3 -14.5 -3 -20.5c0 -15.333 5.33301 -27.5 16 -36.5s32.334 -14.167 65.001 -15.5l104 -4c30 -1.33301 57.167 -4.5 81.5 -9.5s45 -13 62 -24s30.167 -25.333 39.5 -43s14 -39.5 14 -65.5c0 -25.333 -5.66699 -48.833 -17 -70.5
s-28.833 -40.5 -52.5 -56.5s-53.834 -28.5 -90.501 -37.5s-80.334 -13.5 -131.001 -13.5c-21.333 0 -44.833 1.83301 -70.5 5.5s-50 10.834 -73 21.501s-42.167 25.5 -57.5 44.5s-23 43.5 -23 73.5c0 26 5.83301 49.5 17.5 70.5s25.834 37.833 42.501 50.5
c-13.333 10.667 -23 22.5 -29 35.5s-9 27.833 -9 44.5c0 23.333 5.66699 44.666 17 63.999s24 35.666 38 48.999c-18.667 15.333 -32.167 33.166 -40.5 53.499s-12.5 40.833 -12.5 61.5c0 33.333 7 61.5 21 84.5s32 41.5 54 55.5s46.167 24.167 72.5 30.5
s51.833 9.5 76.5 9.5c18 0 33.5 -0.666992 46.5 -2s24.833 -2.83301 35.5 -4.5l29.5 -4.5c9 -1.33301 18.167 -2 27.5 -2h127v-92h-15c-10 0 -21 0.5 -33 1.5s-23.333 2.16699 -34 3.5zM259.001 -19.998c-14 0.666992 -30.334 1.66797 -49.001 3.00098s-34 4.33301 -46 9
c-5.33301 -8 -9.83301 -16.5 -13.5 -25.5s-5.5 -19.5 -5.5 -31.5c0 -15.333 3.33301 -27.833 10 -37.5s15.667 -17.167 27 -22.5s24.333 -9 39 -11s29.667 -3 45 -3c54.667 0 92.834 6 114.501 18s32.5 28.667 32.5 50c0 17.333 -6 29.666 -18 36.999s-28.667 11.333 -50 12
zM376 337.003c0 16 -2.66699 29.501 -8 40.501s-12.5 19.833 -21.5 26.5s-19.167 11.5 -30.5 14.5s-23 4.5 -35 4.5s-23.667 -1.5 -35 -4.5s-21.5 -7.83301 -30.5 -14.5s-16.167 -15.5 -21.5 -26.5s-8 -24.5 -8 -40.5s2.66699 -29.5 8 -40.5s12.5 -19.833 21.5 -26.5
s19.167 -11.334 30.5 -14.001s23 -4 35 -4s23.667 1.33301 35 4s21.5 7.16699 30.5 13.5s16.167 15 21.5 26s8 24.833 8 41.5zM298 674.004c28 0 48.333 7.66699 61 23s19 33.666 19 54.999h94c0 -22.667 -3.33301 -44.334 -10 -65.001s-17.167 -39 -31.5 -55
s-32.5 -28.833 -54.5 -38.5s-48 -14.5 -78 -14.5c-30.667 0 -57 4.83301 -79 14.5s-40.167 22.5 -54.5 38.5s-25 34.333 -32 55s-10.5 42.334 -10.5 65.001h95c0 -21.333 6.5 -39.666 19.5 -54.999s33.5 -23 61.5 -23z" />
    <glyph glyph-name="Gdotaccent" unicode="&#x120;" horiz-adv-x="665" 
d="M390 600c-32.667 0 -60.9961 -6.33594 -84.9961 -19.0029s-43.667 -30.167 -59 -52.5s-26.833 -48.666 -34.5 -78.999s-11.5 -63.166 -11.5 -98.499s3.5 -67.833 10.5 -97.5s18.167 -55.167 33.5 -76.5s35 -38.166 59 -50.499s52.667 -18.5 86 -18.5
c19.333 0 37 1.33301 53 4s30.667 5.66699 44 9v175h-129v116h254v-384c-7.33301 -3.33301 -17.666 -7.5 -30.999 -12.5s-29.833 -9.83301 -49.5 -14.5s-42.834 -8.66699 -69.501 -12s-57 -5 -91 -5c-51.333 0 -96.666 8.33301 -135.999 25s-72.333 40.667 -99 72
s-46.834 69.666 -60.501 114.999s-20.5 97 -20.5 155c0 54 7 103.5 21 148.5s34.667 83.833 62 116.5s61.166 58 101.499 76s87.166 27 140.499 27c46 0 87.333 -6.33301 124 -19s69 -30 97 -52l-59 -99c-14.667 10.667 -34.834 21.834 -60.501 33.501
s-55.834 17.5 -90.501 17.5zM446.004 870.997c0 -24.667 -7.16699 -44.8301 -21.5 -60.4971s-33.5 -23.5 -57.5 -23.5s-43.167 8.16699 -57.5 24.5s-21.5 36.166 -21.5 59.499s7.16699 43.166 21.5 59.499s33.5 24.5 57.5 24.5s43.167 -7.83301 57.5 -23.5
s21.5 -35.834 21.5 -60.501z" />
    <glyph glyph-name="gdotaccent" unicode="&#x121;" horiz-adv-x="555" 
d="M463 417c13.333 -11.333 23.834 -25.498 31.501 -42.498s11.5 -33.167 11.5 -48.5c0 -32 -7.33301 -58.833 -22 -80.5s-33 -39 -55 -52s-45.5 -22.333 -70.5 -28s-47.833 -8.5 -68.5 -8.5c-12 0 -28.833 1.33301 -50.5 4s-42.834 8.33398 -63.501 17.001
c-4 -4.66699 -7 -10.834 -9 -18.501s-3 -14.5 -3 -20.5c0 -15.333 5.33301 -27.5 16 -36.5s32.334 -14.167 65.001 -15.5l104 -4c30 -1.33301 57.167 -4.5 81.5 -9.5s45 -13 62 -24s30.167 -25.333 39.5 -43s14 -39.5 14 -65.5c0 -25.333 -5.66699 -48.833 -17 -70.5
s-28.833 -40.5 -52.5 -56.5s-53.834 -28.5 -90.501 -37.5s-80.334 -13.5 -131.001 -13.5c-21.333 0 -44.833 1.83301 -70.5 5.5s-50 10.834 -73 21.501s-42.167 25.5 -57.5 44.5s-23 43.5 -23 73.5c0 26 5.83301 49.5 17.5 70.5s25.834 37.833 42.501 50.5
c-13.333 10.667 -23 22.5 -29 35.5s-9 27.833 -9 44.5c0 23.333 5.66699 44.666 17 63.999s24 35.666 38 48.999c-18.667 15.333 -32.167 33.166 -40.5 53.499s-12.5 40.833 -12.5 61.5c0 33.333 7 61.5 21 84.5s32 41.5 54 55.5s46.167 24.167 72.5 30.5
s51.833 9.5 76.5 9.5c18 0 33.5 -0.666992 46.5 -2s24.833 -2.83301 35.5 -4.5l29.5 -4.5c9 -1.33301 18.167 -2 27.5 -2h127v-92h-15c-10 0 -21 0.5 -33 1.5s-23.333 2.16699 -34 3.5zM259.001 -19.998c-14 0.666992 -30.334 1.66797 -49.001 3.00098s-34 4.33301 -46 9
c-5.33301 -8 -9.83301 -16.5 -13.5 -25.5s-5.5 -19.5 -5.5 -31.5c0 -15.333 3.33301 -27.833 10 -37.5s15.667 -17.167 27 -22.5s24.333 -9 39 -11s29.667 -3 45 -3c54.667 0 92.834 6 114.501 18s32.5 28.667 32.5 50c0 17.333 -6 29.666 -18 36.999s-28.667 11.333 -50 12
zM376 337.003c0 16 -2.66699 29.501 -8 40.501s-12.5 19.833 -21.5 26.5s-19.167 11.5 -30.5 14.5s-23 4.5 -35 4.5s-23.667 -1.5 -35 -4.5s-21.5 -7.83301 -30.5 -14.5s-16.167 -15.5 -21.5 -26.5s-8 -24.5 -8 -40.5s2.66699 -29.5 8 -40.5s12.5 -19.833 21.5 -26.5
s19.167 -11.334 30.5 -14.001s23 -4 35 -4s23.667 1.33301 35 4s21.5 7.16699 30.5 13.5s16.167 15 21.5 26s8 24.833 8 41.5zM370 672.004c0 -23.333 -6.83301 -42.6699 -20.5 -58.0029s-32.167 -23 -55.5 -23s-41.833 7.83301 -55.5 23.5s-20.5 34.834 -20.5 57.501
s6.83301 41.834 20.5 57.501s32.167 23.5 55.5 23.5s41.833 -7.66699 55.5 -23s20.5 -34.666 20.5 -57.999z" />
    <glyph glyph-name="Gcommaaccent" unicode="&#x122;" horiz-adv-x="665" 
d="M390 600c-32.667 0 -60.9961 -6.33594 -84.9961 -19.0029s-43.667 -30.167 -59 -52.5s-26.833 -48.666 -34.5 -78.999s-11.5 -63.166 -11.5 -98.499s3.5 -67.833 10.5 -97.5s18.167 -55.167 33.5 -76.5s35 -38.166 59 -50.499s52.667 -18.5 86 -18.5
c19.333 0 37 1.33301 53 4s30.667 5.66699 44 9v175h-129v116h254v-384c-7.33301 -3.33301 -17.666 -7.5 -30.999 -12.5s-29.833 -9.83301 -49.5 -14.5s-42.834 -8.66699 -69.501 -12s-57 -5 -91 -5c-51.333 0 -96.666 8.33301 -135.999 25s-72.333 40.667 -99 72
s-46.834 69.666 -60.501 114.999s-20.5 97 -20.5 155c0 54 7 103.5 21 148.5s34.667 83.833 62 116.5s61.166 58 101.499 76s87.166 27 140.499 27c46 0 87.333 -6.33301 124 -19s69 -30 97 -52l-59 -99c-14.667 10.667 -34.834 21.834 -60.501 33.501
s-55.834 17.5 -90.501 17.5zM431.004 -125.003c0 -19.333 -3.83301 -38.498 -11.5 -57.498s-16.5 -36.5 -26.5 -52.5s-19.667 -29.333 -29 -40s-16 -17.334 -20 -20.001l-51 32c2 2.66699 5 7.16699 9 13.5s8.16699 13.666 12.5 21.999s8.5 16.833 12.5 25.5
s6.66699 16.667 8 24c-11.333 4.66699 -21.5 12.167 -30.5 22.5s-13.5 22.5 -13.5 36.5c0 19.333 6.5 34.833 19.5 46.5s29.833 17.5 50.5 17.5c20 0 36.667 -6.16699 50 -18.5s20 -29.5 20 -51.5z" />
    <glyph glyph-name="gcommaaccent" unicode="&#x123;" horiz-adv-x="555" 
d="M463 417c13.333 -11.333 23.834 -25.498 31.501 -42.498s11.5 -33.167 11.5 -48.5c0 -32 -7.33301 -58.833 -22 -80.5s-33 -39 -55 -52s-45.5 -22.333 -70.5 -28s-47.833 -8.5 -68.5 -8.5c-12 0 -28.833 1.33301 -50.5 4s-42.834 8.33398 -63.501 17.001
c-4 -4.66699 -7 -10.834 -9 -18.501s-3 -14.5 -3 -20.5c0 -15.333 5.33301 -27.5 16 -36.5s32.334 -14.167 65.001 -15.5l104 -4c30 -1.33301 57.167 -4.5 81.5 -9.5s45 -13 62 -24s30.167 -25.333 39.5 -43s14 -39.5 14 -65.5c0 -25.333 -5.66699 -48.833 -17 -70.5
s-28.833 -40.5 -52.5 -56.5s-53.834 -28.5 -90.501 -37.5s-80.334 -13.5 -131.001 -13.5c-21.333 0 -44.833 1.83301 -70.5 5.5s-50 10.834 -73 21.501s-42.167 25.5 -57.5 44.5s-23 43.5 -23 73.5c0 26 5.83301 49.5 17.5 70.5s25.834 37.833 42.501 50.5
c-13.333 10.667 -23 22.5 -29 35.5s-9 27.833 -9 44.5c0 23.333 5.66699 44.666 17 63.999s24 35.666 38 48.999c-18.667 15.333 -32.167 33.166 -40.5 53.499s-12.5 40.833 -12.5 61.5c0 33.333 7 61.5 21 84.5s32 41.5 54 55.5s46.167 24.167 72.5 30.5
s51.833 9.5 76.5 9.5c18 0 33.5 -0.666992 46.5 -2s24.833 -2.83301 35.5 -4.5l29.5 -4.5c9 -1.33301 18.167 -2 27.5 -2h127v-92h-15c-10 0 -21 0.5 -33 1.5s-23.333 2.16699 -34 3.5zM259.001 -19.998c-14 0.666992 -30.334 1.66797 -49.001 3.00098s-34 4.33301 -46 9
c-5.33301 -8 -9.83301 -16.5 -13.5 -25.5s-5.5 -19.5 -5.5 -31.5c0 -15.333 3.33301 -27.833 10 -37.5s15.667 -17.167 27 -22.5s24.333 -9 39 -11s29.667 -3 45 -3c54.667 0 92.834 6 114.501 18s32.5 28.667 32.5 50c0 17.333 -6 29.666 -18 36.999s-28.667 11.333 -50 12
zM376 337.003c0 16 -2.66699 29.501 -8 40.501s-12.5 19.833 -21.5 26.5s-19.167 11.5 -30.5 14.5s-23 4.5 -35 4.5s-23.667 -1.5 -35 -4.5s-21.5 -7.83301 -30.5 -14.5s-16.167 -15.5 -21.5 -26.5s-8 -24.5 -8 -40.5s2.66699 -29.5 8 -40.5s12.5 -19.833 21.5 -26.5
s19.167 -11.334 30.5 -14.001s23 -4 35 -4s23.667 1.33301 35 4s21.5 7.16699 30.5 13.5s16.167 15 21.5 26s8 24.833 8 41.5zM223 644.004c0 19.333 3.83398 38.498 11.501 57.498s16.5 36.333 26.5 52s19.667 28.834 29 39.501s16 17.667 20 21l49 -32
c-2 -2.66699 -5 -7.16699 -9 -13.5s-8.33301 -13.666 -13 -21.999s-8.83398 -16.833 -12.501 -25.5s-6.16699 -16.667 -7.5 -24c11.333 -4.66699 21.5 -12.167 30.5 -22.5s13.5 -22.5 13.5 -36.5c0 -19.333 -6.5 -34.833 -19.5 -46.5s-29.167 -17.5 -48.5 -17.5
c-20 0 -36.667 6.16699 -50 18.5s-20 29.5 -20 51.5z" />
    <glyph glyph-name="Hcircumflex" unicode="&#x124;" horiz-adv-x="689" 
d="M475 703h140v-703h-140v310h-260v-310h-141v703h141v-267h260v267zM489 759l-145 96l-145 -96l-58 69l158 138h90l158 -138z" />
    <glyph glyph-name="hcircumflex" unicode="&#x125;" horiz-adv-x="573" 
d="M196 438c4.66699 9.33301 11.001 18.666 19.001 27.999s18 17.833 30 25.5s25.667 13.834 41 18.501s33 7 53 7c61.333 0 105.666 -17.5 132.999 -52.5s41 -83.167 41 -144.5v-320h-134v312c0 34 -7.5 57.5 -22.5 70.5s-32.833 19.5 -53.5 19.5c-22 0 -40 -4.5 -54 -13.5
s-24.833 -21.167 -32.5 -36.5s-13 -33 -16 -53s-4.5 -41.333 -4.5 -64v-235h-134v750h134v-312zM59.001 838l143 123h99l140 -123l-57 -64l-133 90l-135 -90z" />
    <glyph glyph-name="Hbar" unicode="&#x126;" horiz-adv-x="721" 
d="M631 522v-522h-141v306h-259v-306h-141v522h-79v85h79v96h141v-96h259v96h141v-96h79v-85h-79zM490 522h-259v-90h259v90z" />
    <glyph glyph-name="hbar" unicode="&#x127;" horiz-adv-x="582" 
d="M206 669h168.001v-90h-168v-141c4.66699 9.33301 11 18.666 19 27.999s18 17.833 30 25.5s25.667 13.834 41 18.501s33 7 53 7c61.333 0 105.666 -17.5 132.999 -52.5s41 -83.167 41 -144.5v-320h-134v312c0 34 -7.5 57.5 -22.5 70.5s-32.833 19.5 -53.5 19.5
c-22 0 -40 -4.5 -54 -13.5s-24.833 -21.167 -32.5 -36.5s-13 -33 -16 -53s-4.5 -41.333 -4.5 -64v-235h-134v579h-61v90h61v81h134v-81z" />
    <glyph glyph-name="Itilde" unicode="&#x128;" horiz-adv-x="289" 
d="M215 0h-141v703h141v-703zM-55 781c0 48 10.001 85 30.001 111s49 39 87 39c18 0 34.167 -3 48.5 -9s27.833 -12.5 40.5 -19.5s25 -13.333 37 -19s24.333 -8.5 37 -8.5c16.667 0 28.5 4.5 35.5 13.5s10.5 22.167 10.5 39.5h77c0 -48.667 -10 -85.834 -30 -111.501
s-49 -38.5 -87 -38.5c-18 0 -34.167 3 -48.5 9s-27.833 12.5 -40.5 19.5l-36.5 19.5c-11.667 6 -23.834 9 -36.501 9c-17.333 0 -29.5 -4.66699 -36.5 -14s-10.5 -22.666 -10.5 -39.999h-77z" />
    <glyph glyph-name="itilde" unicode="&#x129;" horiz-adv-x="266" 
d="M66 504h134v-504h-134v504zM-64 580c0 48 10.001 85 30.001 111s48.333 39 85 39c18 0 34 -3 48 -9s27.167 -12.5 39.5 -19.5s24.166 -13.333 35.499 -19s23.333 -8.5 36 -8.5c16.667 0 28.5 4.5 35.5 13.5s10.5 22.167 10.5 39.5h75c0 -48.667 -10 -85.834 -30 -111.501
s-48.333 -38.5 -85 -38.5c-18 0 -34 3 -48 9s-27 12.5 -39 19.5l-35 19.5c-11.333 6 -23.333 9 -36 9c-17.333 0 -29.5 -4.66699 -36.5 -14s-10.5 -22.666 -10.5 -39.999h-75z" />
    <glyph glyph-name="Imacron" unicode="&#x12a;" horiz-adv-x="289" 
d="M215 0h-141v703h141v-703zM-20 803v110h331v-110h-331z" />
    <glyph glyph-name="imacron" unicode="&#x12b;" horiz-adv-x="266" 
d="M66 504h134v-504h-134v504zM-21 601v106h308v-106h-308z" />
    <glyph glyph-name="Ibreve" unicode="&#x12c;" horiz-adv-x="289" 
d="M215 0h-141v703h141v-703zM147 861c28 0 49.3291 6.83301 63.9961 20.5s22 31.167 22 52.5h98c0 -22 -3.66699 -43.667 -11 -65s-18.5 -40.166 -33.5 -56.499s-34.167 -29.5 -57.5 -39.5s-50.666 -15 -81.999 -15s-58.666 5 -81.999 15s-42.666 23.167 -57.999 39.5
s-26.666 35.166 -33.999 56.499s-11 43 -11 65h99c0 -21.333 7.33301 -38.833 22 -52.5s36 -20.5 64 -20.5z" />
    <glyph glyph-name="ibreve" unicode="&#x12d;" horiz-adv-x="266" 
d="M66 504h134v-504h-134v504zM134 674c28 0 48.333 7.66699 61 23s19 33.666 19 54.999h94c0 -22.667 -3.33301 -44.334 -10 -65.001s-17.167 -39 -31.5 -55s-32.5 -28.833 -54.5 -38.5s-48 -14.5 -78 -14.5c-30.667 0 -57 4.83301 -79 14.5s-40.167 22.5 -54.5 38.5
s-25 34.333 -32 55s-10.5 42.334 -10.5 65.001h95c0 -21.333 6.5 -39.666 19.5 -54.999s33.5 -23 61.5 -23z" />
    <glyph glyph-name="Iogonek" unicode="&#x12e;" horiz-adv-x="289" 
d="M221 -221c-5.33301 -0.666992 -11.333 -1.16699 -18 -1.5s-13.667 -0.5 -21 -0.5c-57.333 0 -96.833 8.66699 -118.5 26s-32.5 43 -32.5 77c0 40.667 27 80.667 81 120h-38v703h141v-703c-51.333 -37.333 -77 -70 -77 -98c0 -14 5.16699 -23.833 15.5 -29.5
s22.833 -8.5 37.5 -8.5h14c4 0 9.33301 0.333008 16 1v-86z" />
    <glyph glyph-name="iogonek" unicode="&#x12f;" horiz-adv-x="266" 
d="M66 504l134 -0.000976562v-504c-25.333 -18.667 -44 -36 -56 -52s-18 -30.667 -18 -44s4.83301 -22.833 14.5 -28.5s21.5 -8.5 35.5 -8.5h14c4 0 9.33301 0.333008 16 1v-83c-5.33301 -0.666992 -11.333 -1.16699 -18 -1.5s-13.667 -0.5 -21 -0.5
c-56 0 -94.5 8.33301 -115.5 25s-31.5 41.334 -31.5 74.001c0 19.333 6 38.833 18 58.5s32 39.5 60 59.5h-32v504zM209 675.999c0 -23.333 -6.83301 -42.6699 -20.5 -58.0029s-32.167 -23 -55.5 -23s-41.833 7.83301 -55.5 23.5s-20.5 34.834 -20.5 57.501
s6.83301 41.834 20.5 57.501s32.167 23.5 55.5 23.5s41.833 -7.66699 55.5 -23s20.5 -34.666 20.5 -57.999z" />
    <glyph glyph-name="Idotaccent" unicode="&#x130;" horiz-adv-x="289" 
d="M215 0h-141v703h141v-703zM225 871c0 -24.667 -7.16699 -44.8301 -21.5 -60.4971s-33.5 -23.5 -57.5 -23.5s-43.167 8.16699 -57.5 24.5s-21.5 36.166 -21.5 59.499s7.16699 43.166 21.5 59.499s33.5 24.5 57.5 24.5s43.167 -7.83301 57.5 -23.5
s21.5 -35.834 21.5 -60.501z" />
    <glyph glyph-name="dotlessi" unicode="&#x131;" horiz-adv-x="266" 
d="M66 504h134v-504h-134v504z" />
    <glyph glyph-name="IJ" unicode="&#x132;" horiz-adv-x="787" 
d="M215 0h-141v703h141v-703zM582 703l140.999 0.000976562v-472c0 -86 -20 -148.667 -60 -188s-101.667 -59 -185 -59c-25.333 0 -49.333 2.5 -72 7.5s-42.667 10.667 -60 17s-31.666 12.5 -42.999 18.5s-18 10 -20 12l44 101l19.5 -9.5c9 -4.33301 19.833 -8.5 32.5 -12.5
s26.667 -7.66699 42 -11s31.333 -5 48 -5c16 0 31 1.83301 45 5.5s26 10.5 36 20.5s17.833 24.167 23.5 42.5s8.5 42.166 8.5 71.499v461z" />
    <glyph glyph-name="ij" unicode="&#x133;" horiz-adv-x="511" 
d="M66 504h134v-504h-134v504zM209 676c0 -23.333 -6.83301 -42.6699 -20.5 -58.0029s-32.167 -23 -55.5 -23s-41.833 7.83301 -55.5 23.5s-20.5 34.834 -20.5 57.501s6.83301 41.834 20.5 57.501s32.167 23.5 55.5 23.5s41.833 -7.66699 55.5 -23
s20.5 -34.666 20.5 -57.999zM445 -11.0039c0 -73.333 -15.668 -128.333 -47.001 -165s-82 -55 -152 -55c-15.333 0 -31.666 1.33301 -48.999 4s-32.333 5.66699 -45 9l13 108l27 -5c10.667 -2 21.667 -3 33 -3c18 0 32.667 3 44 9s20 14.5 26 25.5s10.167 24.667 12.5 41
s3.5 34.833 3.5 55.5v491h134v-515zM453.999 675.996c0 -23.333 -6.83301 -42.6699 -20.5 -58.0029s-32.167 -23 -55.5 -23s-41.833 7.83301 -55.5 23.5s-20.5 34.834 -20.5 57.501s6.83301 41.834 20.5 57.501s32.167 23.5 55.5 23.5s41.833 -7.66699 55.5 -23
s20.5 -34.666 20.5 -57.999z" />
    <glyph glyph-name="Jcircumflex" unicode="&#x134;" horiz-adv-x="518" 
d="M312 703l140.999 0.000976562v-472c0 -86 -20 -148.667 -60 -188s-101.667 -59 -185 -59c-25.333 0 -49.333 2.5 -72 7.5s-42.667 10.667 -60 17s-31.666 12.5 -42.999 18.5s-18 10 -20 12l44 101l19.5 -9.5c9 -4.33301 19.833 -8.5 32.5 -12.5s26.667 -7.66699 42 -11
s31.333 -5 48 -5c16 0 31 1.83301 45 5.5s26 10.5 36 20.5s17.833 24.167 23.5 42.5s8.5 42.166 8.5 71.499v461zM513.999 759.001l-145 96l-145 -96l-58 69l158 138h90l158 -138z" />
    <glyph glyph-name="jcircumflex" unicode="&#x135;" horiz-adv-x="266" 
d="M200 -11c0 -73.333 -15.668 -128.333 -47.001 -165s-82 -55 -152 -55c-15.333 0 -31.666 1.33301 -48.999 4s-32.333 5.66699 -45 9l13 108l27 -5c10.667 -2 21.667 -3 33 -3c18 0 32.667 3 44 9s20 14.5 26 25.5s10.167 24.667 12.5 41s3.5 34.833 3.5 55.5v491h134
v-515zM-52.001 636l145 139h81l144 -139l-65 -64l-120 96l-119 -96z" />
    <glyph glyph-name="Kcommaaccent" unicode="&#x136;" horiz-adv-x="668" 
d="M215 0h-141v703h141v-325l261 325h153l-263 -323l292 -380h-168l-275 368v-368zM404 -125c0 -19.333 -3.83301 -38.498 -11.5 -57.498s-16.5 -36.5 -26.5 -52.5s-19.667 -29.333 -29 -40s-16 -17.334 -20 -20.001l-51 32c2 2.66699 5 7.16699 9 13.5
s8.16699 13.666 12.5 21.999s8.5 16.833 12.5 25.5s6.66699 16.667 8 24c-11.333 4.66699 -21.5 12.167 -30.5 22.5s-13.5 22.5 -13.5 36.5c0 19.333 6.5 34.833 19.5 46.5s29.833 17.5 50.5 17.5c20 0 36.667 -6.16699 50 -18.5s20 -29.5 20 -51.5z" />
    <glyph glyph-name="kcommaaccent" unicode="&#x137;" horiz-adv-x="559" 
d="M196 271l181 233h152l-186 -223l208 -281h-161l-194 268v-268h-134v750h134v-479zM344 -125c0 -19.333 -3.66699 -38.499 -11 -57.499s-15.833 -36.333 -25.5 -52s-19.167 -29 -28.5 -40s-16 -17.833 -20 -20.5l-50 32c2 2.66699 5 7.16699 9 13.5
s8.16699 13.666 12.5 21.999s8.5 16.833 12.5 25.5s6.66699 16.667 8 24c-11.333 4.66699 -21.333 12.167 -30 22.5s-13 22.5 -13 36.5c0 19.333 6.16699 34.833 18.5 46.5s28.833 17.5 49.5 17.5c20 0 36.333 -6.16699 49 -18.5s19 -29.5 19 -51.5z" />
    <glyph glyph-name="kgreenlandic" unicode="&#x138;" horiz-adv-x="559" 
d="M196 257l187 247h151l-191 -237l208 -267h-162l-193 254v-254h-134v504h134v-247z" />
    <glyph glyph-name="Lacute" unicode="&#x139;" horiz-adv-x="557" 
d="M227 124h296v-124h-437v703h141v-579zM269 960l42 -105l-273 -98l-33 84z" />
    <glyph glyph-name="lacute" unicode="&#x13a;" horiz-adv-x="266" 
d="M200 0h-134v750h134v-750zM-5 875l235 103l43 -104l-245 -83z" />
    <glyph glyph-name="Lcommaaccent" unicode="&#x13b;" horiz-adv-x="557" 
d="M227 124h296v-124h-437v703h141v-579zM378 -125c0 -19.333 -3.83301 -38.498 -11.5 -57.498s-16.5 -36.5 -26.5 -52.5s-19.667 -29.333 -29 -40s-16 -17.334 -20 -20.001l-51 32c2 2.66699 5 7.16699 9 13.5s8.16699 13.666 12.5 21.999s8.5 16.833 12.5 25.5
s6.66699 16.667 8 24c-11.333 4.66699 -21.5 12.167 -30.5 22.5s-13.5 22.5 -13.5 36.5c0 19.333 6.5 34.833 19.5 46.5s29.833 17.5 50.5 17.5c20 0 36.667 -6.16699 50 -18.5s20 -29.5 20 -51.5z" />
    <glyph glyph-name="lcommaaccent" unicode="&#x13c;" horiz-adv-x="266" 
d="M200 0h-134v750h134v-750zM202 -125c0 -19.333 -3.66699 -38.499 -11 -57.499s-15.833 -36.333 -25.5 -52s-19.167 -29 -28.5 -40s-16 -17.833 -20 -20.5l-50 32c2 2.66699 5 7.16699 9 13.5s8.16699 13.666 12.5 21.999s8.5 16.833 12.5 25.5s6.66699 16.667 8 24
c-11.333 4.66699 -21.333 12.167 -30 22.5s-13 22.5 -13 36.5c0 19.333 6.16699 34.833 18.5 46.5s28.833 17.5 49.5 17.5c20 0 36.333 -6.16699 49 -18.5s19 -29.5 19 -51.5z" />
    <glyph glyph-name="Lcaron" unicode="&#x13d;" horiz-adv-x="557" 
d="M227 124h296v-124h-437v703h141v-579zM346 635c0 25.333 7.16797 45.334 21.501 60.001s33.833 22 58.5 22c24 0 43.333 -7.83301 58 -23.5s22 -37.834 22 -66.501c0 -21.333 -4.5 -44.5 -13.5 -69.5s-19.5 -48.667 -31.5 -71s-23.833 -42.166 -35.5 -59.499
s-19.834 -29 -24.501 -35l-59 36l14 29c5.33301 11.333 10.5 23.333 15.5 36s9.5 25.167 13.5 37.5s6.66699 23.166 8 32.499c-12.667 6.66699 -23.667 16 -33 28s-14 26.667 -14 44z" />
    <glyph glyph-name="lcaron" unicode="&#x13e;" horiz-adv-x="389" 
d="M200 0h-134v750h134v-750zM270 680c0 25.333 7.16797 45.334 21.501 60.001s33.833 22 58.5 22c24 0 43.333 -7.83301 58 -23.5s22 -37.834 22 -66.501c0 -21.333 -4.5 -44.5 -13.5 -69.5s-19.5 -48.667 -31.5 -71s-23.833 -42.166 -35.5 -59.499
s-19.834 -29 -24.501 -35l-59 36l14 29c5.33301 11.333 10.5 23.333 15.5 36s9.5 25.167 13.5 37.5s6.66699 23.166 8 32.499c-12.667 6.66699 -23.667 16 -33 28s-14 26.667 -14 44z" />
    <glyph glyph-name="Ldot" unicode="&#x13f;" horiz-adv-x="557" 
d="M227 124h296v-124h-437v703h141v-579zM515 421c0 -24.667 -7 -44.667 -21 -60s-33 -23 -57 -23s-43 8 -57 24s-21 35.667 -21 59s7 43 21 59s33 24 57 24s43 -7.66699 57 -23s21 -35.333 21 -60z" />
    <glyph glyph-name="ldot" unicode="&#x140;" horiz-adv-x="430" 
d="M201 0h-134v750h134v-750zM425 371c0 -24.667 -7 -44.667 -21 -60s-33 -23 -57 -23s-43 8 -57 24s-21 35.667 -21 59s7 43 21 59s33 24 57 24s43 -7.66699 57 -23s21 -35.333 21 -60z" />
    <glyph glyph-name="Lslash" unicode="&#x141;" horiz-adv-x="576" 
d="M247 124h297v-124h-437v269l-96 -50v118l96 51v315h140v-241l159 85v-119l-159 -85v-219z" />
    <glyph glyph-name="lslash" unicode="&#x142;" horiz-adv-x="319" 
d="M226 501l82 59v-120l-82 -59v-381h-134v289l-81 -59v120l81 59v341h134v-249z" />
    <glyph glyph-name="Nacute" unicode="&#x143;" horiz-adv-x="698" 
d="M207 490v-490h-133v703h141l276 -480v480h133v-703h-130zM504 960l42 -105l-273 -98l-33 84z" />
    <glyph glyph-name="nacute" unicode="&#x144;" horiz-adv-x="573" 
d="M196 0l-134 -0.00195312v504h122l5 -67c4.66699 8.66699 11.167 17.667 19.5 27s18.5 18 30.5 26s26 14.5 42 19.5s34 7.5 54 7.5c64 0 109.667 -17.5 137 -52.5s41 -83.167 41 -144.5v-320h-134v312c0 34.667 -7.33301 58.334 -22 71.001s-32.667 19 -54 19
c-22 0 -40 -4.33301 -54 -13s-24.833 -20.667 -32.5 -36s-13 -33.166 -16 -53.499s-4.5 -41.833 -4.5 -64.5v-235zM380 781.998l50 -101l-246 -111l-40 81z" />
    <glyph glyph-name="Ncommaaccent" unicode="&#x145;" horiz-adv-x="698" 
d="M207 490v-490h-133v703h141l276 -480v480h133v-703h-130zM425 -125c0 -19.333 -3.83301 -38.498 -11.5 -57.498s-16.5 -36.5 -26.5 -52.5s-19.667 -29.333 -29 -40s-16 -17.334 -20 -20.001l-51 32c2 2.66699 5 7.16699 9 13.5s8.16699 13.666 12.5 21.999
s8.5 16.833 12.5 25.5s6.66699 16.667 8 24c-11.333 4.66699 -21.5 12.167 -30.5 22.5s-13.5 22.5 -13.5 36.5c0 19.333 6.5 34.833 19.5 46.5s29.833 17.5 50.5 17.5c20 0 36.667 -6.16699 50 -18.5s20 -29.5 20 -51.5z" />
    <glyph glyph-name="ncommaaccent" unicode="&#x146;" horiz-adv-x="573" 
d="M196 0l-134 -0.00195312v504h122l5 -67c4.66699 8.66699 11.167 17.667 19.5 27s18.5 18 30.5 26s26 14.5 42 19.5s34 7.5 54 7.5c64 0 109.667 -17.5 137 -52.5s41 -83.167 41 -144.5v-320h-134v312c0 34.667 -7.33301 58.334 -22 71.001s-32.667 19 -54 19
c-22 0 -40 -4.33301 -54 -13s-24.833 -20.667 -32.5 -36s-13 -33.166 -16 -53.499s-4.5 -41.833 -4.5 -64.5v-235zM359 -125.002c0 -19.333 -3.66699 -38.499 -11 -57.499s-15.833 -36.333 -25.5 -52s-19.167 -29 -28.5 -40s-16 -17.833 -20 -20.5l-50 32
c2 2.66699 5 7.16699 9 13.5s8.16699 13.666 12.5 21.999s8.5 16.833 12.5 25.5s6.66699 16.667 8 24c-11.333 4.66699 -21.333 12.167 -30 22.5s-13 22.5 -13 36.5c0 19.333 6.16699 34.833 18.5 46.5s28.833 17.5 49.5 17.5c20 0 36.333 -6.16699 49 -18.5
s19 -29.5 19 -51.5z" />
    <glyph glyph-name="Ncaron" unicode="&#x147;" horiz-adv-x="698" 
d="M207 490v-490h-133v703h141l276 -480v480h133v-703h-130zM315 759l-158 138l58 69l145 -96l145 96l58 -69l-158 -138h-90z" />
    <glyph glyph-name="ncaron" unicode="&#x148;" horiz-adv-x="573" 
d="M196 0l-134 -0.00195312v504h122l5 -67c4.66699 8.66699 11.167 17.667 19.5 27s18.5 18 30.5 26s26 14.5 42 19.5s34 7.5 54 7.5c64 0 109.667 -17.5 137 -52.5s41 -83.167 41 -144.5v-320h-134v312c0 34.667 -7.33301 58.334 -22 71.001s-32.667 19 -54 19
c-22 0 -40 -4.33301 -54 -13s-24.833 -20.667 -32.5 -36s-13 -33.166 -16 -53.499s-4.5 -41.833 -4.5 -64.5v-235zM291 674.998l120 95l65 -63l-144 -139h-81l-145 139l66 63z" />
    <glyph glyph-name="napostrophe" unicode="&#x149;" horiz-adv-x="692" 
d="M316 0l-134 -0.00195312v504h122l5 -67c4.66699 8.66699 11.167 17.667 19.5 27s18.5 18 30.5 26s26 14.5 42 19.5s34 7.5 54 7.5c64 0 109.667 -17.5 137 -52.5s41 -83.167 41 -144.5v-320h-134v312c0 34.667 -7.33301 58.334 -22 71.001s-32.667 19 -54 19
c-22 0 -40 -4.33301 -54 -13s-24.833 -20.667 -32.5 -36s-13 -33.166 -16 -53.499s-4.5 -41.833 -4.5 -64.5v-235zM25 687.998c0 23.333 6.5 41.498 19.5 54.498s30.5 19.5 52.5 19.5c22.667 0 40.5 -7 53.5 -21s19.5 -34.333 19.5 -61
c0 -21.333 -4.66699 -43.166 -14 -65.499s-20.333 -43.833 -33 -64.5s-25.167 -39 -37.5 -55l-27.5 -36l-55 34l15.5 26c6.33301 10.667 12.5 21.834 18.5 33.501s11.667 23.667 17 36s9.33301 23.5 12 33.5c-11.333 6.66699 -21 15 -29 25s-12 23.667 -12 41z" />
    <glyph glyph-name="Eng" unicode="&#x14a;" horiz-adv-x="709" 
d="M503 351c0 44 -3.16602 81.1641 -9.49902 111.497s-15.5 55 -27.5 74s-26.333 32.833 -43 41.5s-35.334 13 -56.001 13c-27.333 0 -50.666 -6.33301 -69.999 -19s-35.333 -30 -48 -52s-22 -48.333 -28 -79s-9 -64 -9 -100v-341h-138v703h131l4 -87
c5.33301 10 12.5 20.833 21.5 32.5s20.333 22.834 34 33.501s30.167 19.5 49.5 26.5s42 10.5 68 10.5c38.667 0 74.5 -6.66699 107.5 -20s61.333 -34.166 85 -62.499s42.167 -64.333 55.5 -108s20 -95.5 20 -155.5c0 -76 -6 -139.167 -18 -189.5
s-28.833 -90.166 -50.5 -119.499s-47.834 -50 -78.501 -62s-64.334 -18 -101.001 -18c-18 0 -35.5 1.33301 -52.5 4s-32.833 6 -47.5 10l23 113c8 -2.66699 17.167 -5 27.5 -7s19.833 -3 28.5 -3c18.667 0 35.5 3.66699 50.5 11s27.833 20.5 38.5 39.5
s18.834 44.5 24.501 76.5s8.5 73 8.5 123z" />
    <glyph glyph-name="eng" unicode="&#x14b;" horiz-adv-x="573" 
d="M196 0l-133.999 -0.00292969v504h122l5 -67c4.66699 8.66699 11.167 17.667 19.5 27s18.5 18 30.5 26s26 14.5 42 19.5s34 7.5 54 7.5c64 0 109.667 -17.5 137 -52.5s41 -83.167 41 -144.5v-334c0 -72.667 -15.667 -127.167 -47 -163.5s-82.333 -54.5 -153 -54.5
c-16 0 -32.667 1.33301 -50 4s-32.333 6 -45 10l14 108c7.33301 -1.33301 16.333 -3.16602 27 -5.49902s21.667 -3.5 33 -3.5c35.333 0 58.666 11.167 69.999 33.5s17 54.5 17 96.5v301c0 34.667 -7.33301 58.334 -22 71.001s-32.667 19 -54 19c-22 0 -40 -4.33301 -54 -13
s-24.833 -20.667 -32.5 -36s-13 -33.166 -16 -53.499s-4.5 -41.833 -4.5 -64.5v-235z" />
    <glyph glyph-name="Omacron" unicode="&#x14c;" horiz-adv-x="747" 
d="M54 352c0 53.333 6.33301 102.5 19 147.5s32.167 83.667 58.5 116s59.5 57.666 99.5 75.999s87.333 27.5 142 27.5s102.167 -9.16699 142.5 -27.5s73.666 -43.666 99.999 -75.999s45.833 -71 58.5 -116s19 -94.167 19 -147.5s-6.33301 -102.5 -19 -147.5
s-32.167 -83.833 -58.5 -116.5s-59.666 -58.167 -99.999 -76.5s-87.833 -27.5 -142.5 -27.5s-102 9.16699 -142 27.5s-73.167 43.833 -99.5 76.5s-45.833 71.5 -58.5 116.5s-19 94.167 -19 147.5zM200 352c0 -74.667 14.167 -133.334 42.5 -176.001s71.833 -64 130.5 -64
s102.167 21.333 130.5 64s42.5 101.334 42.5 176.001s-14.167 133.167 -42.5 175.5s-71.833 63.5 -130.5 63.5s-102.167 -21.167 -130.5 -63.5s-42.5 -100.833 -42.5 -175.5zM208 803v110h331v-110h-331z" />
    <glyph glyph-name="omacron" unicode="&#x14d;" horiz-adv-x="584" 
d="M292 101c41.333 0 70.667 13.5 88 40.5s26 63.833 26 110.5c0 46 -9.5 82.5 -28.5 109.5s-47.5 40.5 -85.5 40.5s-66.667 -13.5 -86 -40.5s-29 -63.5 -29 -109.5c0 -46.667 8.66699 -83.5 26 -110.5s47 -40.5 89 -40.5zM292.001 517
c38.667 0 73.3291 -6.16699 103.996 -18.5s56.834 -30 78.501 -53s38.167 -50.833 49.5 -83.5s17 -69.334 17 -110.001c0 -86 -22 -151.833 -66 -197.5s-105 -68.5 -183 -68.5s-139.167 23 -183.5 69s-66.5 111.667 -66.5 197c0 40.667 5.83301 77.334 17.5 110.001
s28.334 60.5 50.001 83.5s47.834 40.667 78.501 53s65.334 18.5 104.001 18.5zM137.996 601v106h308v-106h-308z" />
    <glyph glyph-name="Obreve" unicode="&#x14e;" horiz-adv-x="747" 
d="M54 352c0 53.333 6.33301 102.5 19 147.5s32.167 83.667 58.5 116s59.5 57.666 99.5 75.999s87.333 27.5 142 27.5s102.167 -9.16699 142.5 -27.5s73.666 -43.666 99.999 -75.999s45.833 -71 58.5 -116s19 -94.167 19 -147.5s-6.33301 -102.5 -19 -147.5
s-32.167 -83.833 -58.5 -116.5s-59.666 -58.167 -99.999 -76.5s-87.833 -27.5 -142.5 -27.5s-102 9.16699 -142 27.5s-73.167 43.833 -99.5 76.5s-45.833 71.5 -58.5 116.5s-19 94.167 -19 147.5zM200 352c0 -74.667 14.167 -133.334 42.5 -176.001s71.833 -64 130.5 -64
s102.167 21.333 130.5 64s42.5 101.334 42.5 176.001s-14.167 133.167 -42.5 175.5s-71.833 63.5 -130.5 63.5s-102.167 -21.167 -130.5 -63.5s-42.5 -100.833 -42.5 -175.5zM375 861c28 0 49.3291 6.83301 63.9961 20.5s22 31.167 22 52.5h98
c0 -22 -3.66699 -43.667 -11 -65s-18.5 -40.166 -33.5 -56.499s-34.167 -29.5 -57.5 -39.5s-50.666 -15 -81.999 -15s-58.666 5 -81.999 15s-42.666 23.167 -57.999 39.5s-26.666 35.166 -33.999 56.499s-11 43 -11 65h99c0 -21.333 7.33301 -38.833 22 -52.5
s36 -20.5 64 -20.5z" />
    <glyph glyph-name="obreve" unicode="&#x14f;" horiz-adv-x="584" 
d="M292 101c41.333 0 70.667 13.5 88 40.5s26 63.833 26 110.5c0 46 -9.5 82.5 -28.5 109.5s-47.5 40.5 -85.5 40.5s-66.667 -13.5 -86 -40.5s-29 -63.5 -29 -109.5c0 -46.667 8.66699 -83.5 26 -110.5s47 -40.5 89 -40.5zM292.001 517
c38.667 0 73.3291 -6.16699 103.996 -18.5s56.834 -30 78.501 -53s38.167 -50.833 49.5 -83.5s17 -69.334 17 -110.001c0 -86 -22 -151.833 -66 -197.5s-105 -68.5 -183 -68.5s-139.167 23 -183.5 69s-66.5 111.667 -66.5 197c0 40.667 5.83301 77.334 17.5 110.001
s28.334 60.5 50.001 83.5s47.834 40.667 78.501 53s65.334 18.5 104.001 18.5zM292.996 674c28 0 48.333 7.66699 61 23s19 33.666 19 54.999h94c0 -22.667 -3.33301 -44.334 -10 -65.001s-17.167 -39 -31.5 -55s-32.5 -28.833 -54.5 -38.5s-48 -14.5 -78 -14.5
c-30.667 0 -57 4.83301 -79 14.5s-40.167 22.5 -54.5 38.5s-25 34.333 -32 55s-10.5 42.334 -10.5 65.001h95c0 -21.333 6.5 -39.666 19.5 -54.999s33.5 -23 61.5 -23z" />
    <glyph glyph-name="Ohungarumlaut" unicode="&#x150;" horiz-adv-x="747" 
d="M54 352c0 53.333 6.33301 102.5 19 147.5s32.167 83.667 58.5 116s59.5 57.666 99.5 75.999s87.333 27.5 142 27.5s102.167 -9.16699 142.5 -27.5s73.666 -43.666 99.999 -75.999s45.833 -71 58.5 -116s19 -94.167 19 -147.5s-6.33301 -102.5 -19 -147.5
s-32.167 -83.833 -58.5 -116.5s-59.666 -58.167 -99.999 -76.5s-87.833 -27.5 -142.5 -27.5s-102 9.16699 -142 27.5s-73.167 43.833 -99.5 76.5s-45.833 71.5 -58.5 116.5s-19 94.167 -19 147.5zM200 352c0 -74.667 14.167 -133.334 42.5 -176.001s71.833 -64 130.5 -64
s102.167 21.333 130.5 64s42.5 101.334 42.5 176.001s-14.167 133.167 -42.5 175.5s-71.833 63.5 -130.5 63.5s-102.167 -21.167 -130.5 -63.5s-42.5 -100.833 -42.5 -175.5zM171 818l188 177l66 -77l-202 -161zM406 816l204 175l61 -81l-218 -158z" />
    <glyph glyph-name="ohungarumlaut" unicode="&#x151;" horiz-adv-x="584" 
d="M292 101c41.333 0 70.667 13.5 88 40.5s26 63.833 26 110.5c0 46 -9.5 82.5 -28.5 109.5s-47.5 40.5 -85.5 40.5s-66.667 -13.5 -86 -40.5s-29 -63.5 -29 -109.5c0 -46.667 8.66699 -83.5 26 -110.5s47 -40.5 89 -40.5zM292.001 517
c38.667 0 73.3291 -6.16699 103.996 -18.5s56.834 -30 78.501 -53s38.167 -50.833 49.5 -83.5s17 -69.334 17 -110.001c0 -86 -22 -151.833 -66 -197.5s-105 -68.5 -183 -68.5s-139.167 23 -183.5 69s-66.5 111.667 -66.5 197c0 40.667 5.83301 77.334 17.5 110.001
s28.334 60.5 50.001 83.5s47.834 40.667 78.501 53s65.334 18.5 104.001 18.5zM89.9961 616l182 177l69 -78l-195 -162zM324.996 614l181 177l71 -78l-196 -161z" />
    <glyph glyph-name="OE" unicode="&#x152;" horiz-adv-x="917" 
d="M904 703l0.000976562 -123.999h-297v-153h226v-124h-226v-178h307v-124h-520c-58 0 -108.333 8 -151 24s-78 39.167 -106 69.5s-48.833 67.166 -62.5 110.499s-20.5 92.333 -20.5 147c0 53.333 6.66699 101.666 20 144.999s33.666 80.333 60.999 111
s62 54.334 104 71.001s92 25 150 25h515zM468.001 124.001v455.001h-78c-62 0 -109.167 -18.167 -141.5 -54.5s-48.5 -93.833 -48.5 -172.5c0 -70.667 16 -126.334 48 -167.001s79 -61 141 -61h79z" />
    <glyph glyph-name="oe" unicode="&#x153;" horiz-adv-x="904" 
d="M671 99c32.667 0 60.001 2.49805 82.001 7.49805s38.667 9.16699 50 12.5l32 -94c-13.333 -7.33301 -35.166 -15.666 -65.499 -24.999s-68.833 -14 -115.5 -14c-82 0 -144 26.667 -186 80c-42 -53.333 -100.667 -80 -176 -80c-78 0 -139.167 23 -183.5 69
s-66.5 111.667 -66.5 197c0 40.667 5.83301 77.334 17.5 110.001s28.334 60.5 50.001 83.5s47.834 40.667 78.501 53s65.334 18.5 104.001 18.5c36.667 0 69.667 -6.5 99 -19.5s54.666 -31.833 75.999 -56.5c19.333 24.667 43.166 43.5 71.499 56.5s61.5 19.5 99.5 19.5
c35.333 0 66.833 -5.16699 94.5 -15.5s51 -26.5 70 -48.5s33.5 -50.667 43.5 -86s15 -78 15 -128v-27h-333c2 -16 6.16699 -30.833 12.5 -44.5s15.166 -25.667 26.499 -36s25.666 -18.333 42.999 -24s37.666 -8.5 60.999 -8.5zM292.001 100.998
c41.333 0 70.667 13.5 88 40.5s26 63.833 26 110.5c0 46 -9.5 82.5 -28.5 109.5s-47.5 40.5 -85.5 40.5s-66.667 -13.5 -86 -40.5s-29 -63.5 -29 -109.5c0 -46.667 8.66699 -83.5 26 -110.5s47 -40.5 89 -40.5zM735.002 304.998c-2.66699 34.667 -11 60.833 -25 78.5
s-38 26.5 -72 26.5s-59.833 -9.5 -77.5 -28.5s-28.167 -44.5 -31.5 -76.5h206z" />
    <glyph glyph-name="Racute" unicode="&#x154;" horiz-adv-x="628" 
d="M610 0l-160.002 0.00195312l-155 262h-82v-262h-139v703h242c50.667 0 92.334 -6.83301 125.001 -20.5s58.334 -30.834 77.001 -51.501s31.667 -43.334 39 -68.001s11 -48 11 -70c0 -50 -12.667 -91.5 -38 -124.5s-60 -56.833 -104 -71.5zM428.998 483.002
c0 39.333 -11.833 66.167 -35.5 80.5s-58.5 21.5 -104.5 21.5h-76v-205h70c48.667 0 85.167 8.16699 109.5 24.5s36.5 42.5 36.5 78.5zM418.998 960.003l42 -105l-273 -98l-33 84z" />
    <glyph glyph-name="racute" unicode="&#x155;" horiz-adv-x="411" 
d="M334 513c20 0 34.834 -0.999023 44.501 -2.99902s17.167 -4 22.5 -6l-10 -114c-3.33301 1.33301 -10.833 3.16602 -22.5 5.49902s-25.167 3.5 -40.5 3.5c-16 0 -31.667 -2.83301 -47 -8.5s-29.333 -15.667 -42 -30s-22.834 -33.5 -30.501 -57.5s-11.5 -54 -11.5 -90v-213
h-134v504h122l5 -77c4.66699 9.33301 11.667 19 21 29s20.333 19.333 33 28s26.667 15.667 42 21s31.333 8 48 8zM323.001 782.001l50 -101l-246 -111l-40 81z" />
    <glyph glyph-name="Rcommaaccent" unicode="&#x156;" horiz-adv-x="628" 
d="M610 0l-160.002 0.00195312l-155 262h-82v-262h-139v703h242c50.667 0 92.334 -6.83301 125.001 -20.5s58.334 -30.834 77.001 -51.501s31.667 -43.334 39 -68.001s11 -48 11 -70c0 -50 -12.667 -91.5 -38 -124.5s-60 -56.833 -104 -71.5zM428.998 483.002
c0 39.333 -11.833 66.167 -35.5 80.5s-58.5 21.5 -104.5 21.5h-76v-205h70c48.667 0 85.167 8.16699 109.5 24.5s36.5 42.5 36.5 78.5zM390.998 -124.997c0 -19.333 -3.83301 -38.498 -11.5 -57.498s-16.5 -36.5 -26.5 -52.5s-19.667 -29.333 -29 -40
s-16 -17.334 -20 -20.001l-51 32c2 2.66699 5 7.16699 9 13.5s8.16699 13.666 12.5 21.999s8.5 16.833 12.5 25.5s6.66699 16.667 8 24c-11.333 4.66699 -21.5 12.167 -30.5 22.5s-13.5 22.5 -13.5 36.5c0 19.333 6.5 34.833 19.5 46.5s29.833 17.5 50.5 17.5
c20 0 36.667 -6.16699 50 -18.5s20 -29.5 20 -51.5z" />
    <glyph glyph-name="rcommaaccent" unicode="&#x157;" horiz-adv-x="411" 
d="M334 513c20 0 34.834 -0.999023 44.501 -2.99902s17.167 -4 22.5 -6l-10 -114c-3.33301 1.33301 -10.833 3.16602 -22.5 5.49902s-25.167 3.5 -40.5 3.5c-16 0 -31.667 -2.83301 -47 -8.5s-29.333 -15.667 -42 -30s-22.834 -33.5 -30.501 -57.5s-11.5 -54 -11.5 -90v-213
h-134v504h122l5 -77c4.66699 9.33301 11.667 19 21 29s20.333 19.333 33 28s26.667 15.667 42 21s31.333 8 48 8zM200.001 -124.999c0 -19.333 -3.66699 -38.499 -11 -57.499s-15.833 -36.333 -25.5 -52s-19.167 -29 -28.5 -40s-16 -17.833 -20 -20.5l-50 32
c2 2.66699 5 7.16699 9 13.5s8.16699 13.666 12.5 21.999s8.5 16.833 12.5 25.5s6.66699 16.667 8 24c-11.333 4.66699 -21.333 12.167 -30 22.5s-13 22.5 -13 36.5c0 19.333 6.16699 34.833 18.5 46.5s28.833 17.5 49.5 17.5c20 0 36.333 -6.16699 49 -18.5
s19 -29.5 19 -51.5z" />
    <glyph glyph-name="Rcaron" unicode="&#x158;" horiz-adv-x="628" 
d="M610 0l-160.002 0.00195312l-155 262h-82v-262h-139v703h242c50.667 0 92.334 -6.83301 125.001 -20.5s58.334 -30.834 77.001 -51.501s31.667 -43.334 39 -68.001s11 -48 11 -70c0 -50 -12.667 -91.5 -38 -124.5s-60 -56.833 -104 -71.5zM428.998 483.002
c0 39.333 -11.833 66.167 -35.5 80.5s-58.5 21.5 -104.5 21.5h-76v-205h70c48.667 0 85.167 8.16699 109.5 24.5s36.5 42.5 36.5 78.5zM245.998 759.003l-158 138l58 69l145 -96l145 96l58 -69l-158 -138h-90z" />
    <glyph glyph-name="rcaron" unicode="&#x159;" horiz-adv-x="411" 
d="M334 513c20 0 34.834 -0.999023 44.501 -2.99902s17.167 -4 22.5 -6l-10 -114c-3.33301 1.33301 -10.833 3.16602 -22.5 5.49902s-25.167 3.5 -40.5 3.5c-16 0 -31.667 -2.83301 -47 -8.5s-29.333 -15.667 -42 -30s-22.834 -33.5 -30.501 -57.5s-11.5 -54 -11.5 -90v-213
h-134v504h122l5 -77c4.66699 9.33301 11.667 19 21 29s20.333 19.333 33 28s26.667 15.667 42 21s31.333 8 48 8zM222.001 675.001l120 95l65 -63l-144 -139h-81l-145 139l66 63z" />
    <glyph glyph-name="Sacute" unicode="&#x15a;" horiz-adv-x="577" 
d="M226 304c-25.333 7.33301 -49.1631 17 -71.4961 29s-41.833 26.167 -58.5 42.5s-29.834 35.333 -39.501 57s-14.5 45.5 -14.5 71.5c0 70 20.667 123.333 62 160s101.333 55 180 55c22 0 43.667 -1.66699 65 -5s41.333 -7.66602 60 -12.999s35.667 -11.333 51 -18
s28.666 -13.334 39.999 -20.001l-51 -106c-13.333 8 -34.5 17 -63.5 27s-63.5 15 -103.5 15c-11.333 0 -22.833 -1.33301 -34.5 -4s-22.334 -7.16699 -32.001 -13.5s-17.5 -14.666 -23.5 -24.999s-9 -22.833 -9 -37.5c0 -9.33301 1.33301 -18.166 4 -26.499
s7.83398 -16.5 15.501 -24.5s18 -15.5 31 -22.5s29.833 -13.5 50.5 -19.5l64 -18c58 -16 102.833 -40.167 134.5 -72.5s47.5 -76.833 47.5 -133.5c0 -33.333 -6.5 -63.333 -19.5 -90s-30.833 -49.5 -53.5 -68.5s-49.334 -33.667 -80.001 -44s-63.667 -15.5 -99 -15.5
c-32.667 0 -62.834 2.5 -90.501 7.5s-52 10.833 -73 17.5s-38.333 13.334 -52 20.001s-22.834 11.667 -27.501 15l51 111c8 -4.66699 18.5 -9.66699 31.5 -15s27.667 -10.5 44 -15.5s34.5 -9.16699 54.5 -12.5s41 -5 63 -5c12 0 24.5 1.5 37.5 4.5s24.667 8 35 15
s18.833 15.667 25.5 26s10 23.166 10 38.499c0 8.66699 -1.33301 17.5 -4 26.5s-7.66699 17.667 -15 26s-17.166 16.166 -29.499 23.499s-28.5 13.666 -48.5 18.999zM377.003 960l42 -105l-273 -98l-33 84z" />
    <glyph glyph-name="sacute" unicode="&#x15b;" horiz-adv-x="490" 
d="M72 135c18 -10 40.332 -19.834 66.999 -29.501s61.667 -14.5 105 -14.5c30 0 50.667 4.33301 62 13s17 19.667 17 33s-4.83301 24.5 -14.5 33.5s-29.167 16.5 -58.5 22.5l-57 12c-21.333 4.66699 -41.166 10.667 -59.499 18s-34.166 17 -47.499 29
s-23.833 26.667 -31.5 44s-11.5 38.333 -11.5 63c0 22 4.5 42.667 13.5 62s22 36 39 50s37.833 25.167 62.5 33.5s52.667 12.5 84 12.5c42 0 80.167 -4.83301 114.5 -14.5s61.166 -20.834 80.499 -33.501l-39 -92c-14 6.66699 -33.167 14 -57.5 22s-53.833 12 -88.5 12
c-32 0 -54.5 -4.16699 -67.5 -12.5s-19.5 -19.833 -19.5 -34.5c0 -11.333 3.83301 -21 11.5 -29s25.167 -14.667 52.5 -20l60 -12c56.667 -11.333 97.834 -29.166 123.501 -53.499s38.5 -58.5 38.5 -102.5c0 -50 -17 -89.333 -51 -118s-87.333 -43 -160 -43
c-48 0 -90.833 6.33301 -128.5 19s-65.834 26.334 -84.501 41.001zM339.999 781.999l50 -101l-246 -111l-40 81z" />
    <glyph glyph-name="Scircumflex" unicode="&#x15c;" horiz-adv-x="577" 
d="M226 304c-25.333 7.33301 -49.1631 17 -71.4961 29s-41.833 26.167 -58.5 42.5s-29.834 35.333 -39.501 57s-14.5 45.5 -14.5 71.5c0 70 20.667 123.333 62 160s101.333 55 180 55c22 0 43.667 -1.66699 65 -5s41.333 -7.66602 60 -12.999s35.667 -11.333 51 -18
s28.666 -13.334 39.999 -20.001l-51 -106c-13.333 8 -34.5 17 -63.5 27s-63.5 15 -103.5 15c-11.333 0 -22.833 -1.33301 -34.5 -4s-22.334 -7.16699 -32.001 -13.5s-17.5 -14.666 -23.5 -24.999s-9 -22.833 -9 -37.5c0 -9.33301 1.33301 -18.166 4 -26.499
s7.83398 -16.5 15.501 -24.5s18 -15.5 31 -22.5s29.833 -13.5 50.5 -19.5l64 -18c58 -16 102.833 -40.167 134.5 -72.5s47.5 -76.833 47.5 -133.5c0 -33.333 -6.5 -63.333 -19.5 -90s-30.833 -49.5 -53.5 -68.5s-49.334 -33.667 -80.001 -44s-63.667 -15.5 -99 -15.5
c-32.667 0 -62.834 2.5 -90.501 7.5s-52 10.833 -73 17.5s-38.333 13.334 -52 20.001s-22.834 11.667 -27.501 15l51 111c8 -4.66699 18.5 -9.66699 31.5 -15s27.667 -10.5 44 -15.5s34.5 -9.16699 54.5 -12.5s41 -5 63 -5c12 0 24.5 1.5 37.5 4.5s24.667 8 35 15
s18.833 15.667 25.5 26s10 23.166 10 38.499c0 8.66699 -1.33301 17.5 -4 26.5s-7.66699 17.667 -15 26s-17.166 16.166 -29.499 23.499s-28.5 13.666 -48.5 18.999zM436.003 759l-145 96l-145 -96l-58 69l158 138h90l158 -138z" />
    <glyph glyph-name="scircumflex" unicode="&#x15d;" horiz-adv-x="490" 
d="M72 135c18 -10 40.332 -19.834 66.999 -29.501s61.667 -14.5 105 -14.5c30 0 50.667 4.33301 62 13s17 19.667 17 33s-4.83301 24.5 -14.5 33.5s-29.167 16.5 -58.5 22.5l-57 12c-21.333 4.66699 -41.166 10.667 -59.499 18s-34.166 17 -47.499 29
s-23.833 26.667 -31.5 44s-11.5 38.333 -11.5 63c0 22 4.5 42.667 13.5 62s22 36 39 50s37.833 25.167 62.5 33.5s52.667 12.5 84 12.5c42 0 80.167 -4.83301 114.5 -14.5s61.166 -20.834 80.499 -33.501l-39 -92c-14 6.66699 -33.167 14 -57.5 22s-53.833 12 -88.5 12
c-32 0 -54.5 -4.16699 -67.5 -12.5s-19.5 -19.833 -19.5 -34.5c0 -11.333 3.83301 -21 11.5 -29s25.167 -14.667 52.5 -20l60 -12c56.667 -11.333 97.834 -29.166 123.501 -53.499s38.5 -58.5 38.5 -102.5c0 -50 -17 -89.333 -51 -118s-87.333 -43 -160 -43
c-48 0 -90.833 6.33301 -128.5 19s-65.834 26.334 -84.501 41.001zM61.999 635.999l145 139h81l144 -139l-65 -64l-120 96l-119 -96z" />
    <glyph glyph-name="Scedilla" unicode="&#x15e;" horiz-adv-x="577" 
d="M226 304c-25.333 7.33301 -49.1689 17.0029 -71.502 29.0029s-41.833 26.167 -58.5 42.5s-29.834 35.333 -39.501 57s-14.5 45.5 -14.5 71.5c0 70 20.667 123.333 62 160s101.333 55 180 55c22 0 43.667 -1.66699 65 -5s41.333 -7.66602 60 -12.999
s35.667 -11.333 51 -18s28.666 -13.334 39.999 -20.001l-51 -106c-13.333 8 -34.5 17 -63.5 27s-63.5 15 -103.5 15c-11.333 0 -22.833 -1.33301 -34.5 -4s-22.334 -7.16699 -32.001 -13.5s-17.5 -14.666 -23.5 -24.999s-9 -22.833 -9 -37.5
c0 -9.33301 1.33301 -18.166 4 -26.499s7.83398 -16.5 15.501 -24.5s18 -15.5 31 -22.5s29.833 -13.5 50.5 -19.5l64 -18c58 -16 102.833 -40.167 134.5 -72.5s47.5 -76.833 47.5 -133.5c0 -32 -6 -61 -18 -87s-28.5 -48.5 -49.5 -67.5s-45.833 -34 -74.5 -45
s-59.667 -17.167 -93 -18.5l-8 -39c34.667 -4 62.834 -14.333 84.501 -31s32.5 -41 32.5 -73c0 -20 -4 -37.333 -12 -52s-19 -26.834 -33 -36.501s-30.667 -16.834 -50 -21.501s-40.333 -7 -63 -7c-29.333 0 -54.166 2.66699 -74.499 8s-32.166 8.66602 -35.499 9.99902
l22 73c11.333 -3.33301 23.666 -6.33301 36.999 -9s26.666 -4 39.999 -4c23.333 0 40.666 3.5 51.999 10.5s17 16.167 17 27.5c0 8.66699 -4.83301 16.334 -14.5 23.001s-25.5 10 -47.5 10c-10 0 -19 -0.333008 -27 -1s-14.333 -1.66699 -19 -3l27 118
c-25.333 2.66699 -48.666 6.66699 -69.999 12s-40.166 11 -56.499 17s-29.666 11.5 -39.999 16.5s-17.5 8.83301 -21.5 11.5l51 111c8 -4.66699 18.5 -9.66699 31.5 -15s27.667 -10.5 44 -15.5s34.5 -9.16699 54.5 -12.5s41 -5 63 -5c12 0 24.5 1.5 37.5 4.5s24.667 8 35 15
s18.833 15.667 25.5 26s10 23.166 10 38.499c0 8.66699 -1.33301 17.5 -4 26.5s-7.66699 17.667 -15 26s-17.166 16.166 -29.499 23.499s-28.5 13.666 -48.5 18.999z" />
    <glyph glyph-name="scedilla" unicode="&#x15f;" horiz-adv-x="490" 
d="M72 135c18 -10 40.3301 -19.833 66.9971 -29.5s61.667 -14.5 105 -14.5c30 0 50.667 4.33301 62 13s17 19.667 17 33s-4.83301 24.5 -14.5 33.5s-29.167 16.5 -58.5 22.5l-57 12c-21.333 4.66699 -41.166 10.667 -59.499 18s-34.166 17 -47.499 29
s-23.833 26.667 -31.5 44s-11.5 38.333 -11.5 63c0 22 4.5 42.667 13.5 62s22 36 39 50s37.833 25.167 62.5 33.5s52.667 12.5 84 12.5c42 0 80.167 -4.83301 114.5 -14.5s61.166 -20.834 80.499 -33.501l-39 -92c-14 6.66699 -33.167 14 -57.5 22s-53.833 12 -88.5 12
c-32 0 -54.5 -4.16699 -67.5 -12.5s-19.5 -19.833 -19.5 -34.5c0 -11.333 3.83301 -21 11.5 -29s25.167 -14.667 52.5 -20l60 -12c56.667 -11.333 97.834 -29.166 123.501 -53.499s38.5 -58.5 38.5 -102.5c0 -48 -15.167 -86 -45.5 -114s-78.833 -43.333 -145.5 -46l-7 -41
c34 -3.33301 61.167 -13.166 81.5 -29.499s30.5 -40.5 30.5 -72.5c0 -38.667 -14.167 -67.334 -42.5 -86.001s-65.5 -28 -111.5 -28c-28.667 0 -52.667 2.5 -72 7.5s-30.666 8.16699 -33.999 9.5l21 72c11.333 -3.33301 23.333 -6.33301 36 -9s25.667 -4 39 -4
c44 0 66 12.333 66 37c0 8.66699 -4.5 16.334 -13.5 23.001s-24.167 10 -45.5 10c-10 0 -18.833 -0.333008 -26.5 -1s-13.834 -1.66699 -18.501 -3l27 117c-36.667 4 -69.167 11.667 -97.5 23s-50.166 22.666 -65.499 33.999z" />
    <glyph glyph-name="Scaron" unicode="&#x160;" horiz-adv-x="577" 
d="M226 304c-25.333 7.33301 -49.1631 17 -71.4961 29s-41.833 26.167 -58.5 42.5s-29.834 35.333 -39.501 57s-14.5 45.5 -14.5 71.5c0 70 20.667 123.333 62 160s101.333 55 180 55c22 0 43.667 -1.66699 65 -5s41.333 -7.66602 60 -12.999s35.667 -11.333 51 -18
s28.666 -13.334 39.999 -20.001l-51 -106c-13.333 8 -34.5 17 -63.5 27s-63.5 15 -103.5 15c-11.333 0 -22.833 -1.33301 -34.5 -4s-22.334 -7.16699 -32.001 -13.5s-17.5 -14.666 -23.5 -24.999s-9 -22.833 -9 -37.5c0 -9.33301 1.33301 -18.166 4 -26.499
s7.83398 -16.5 15.501 -24.5s18 -15.5 31 -22.5s29.833 -13.5 50.5 -19.5l64 -18c58 -16 102.833 -40.167 134.5 -72.5s47.5 -76.833 47.5 -133.5c0 -33.333 -6.5 -63.333 -19.5 -90s-30.833 -49.5 -53.5 -68.5s-49.334 -33.667 -80.001 -44s-63.667 -15.5 -99 -15.5
c-32.667 0 -62.834 2.5 -90.501 7.5s-52 10.833 -73 17.5s-38.333 13.334 -52 20.001s-22.834 11.667 -27.501 15l51 111c8 -4.66699 18.5 -9.66699 31.5 -15s27.667 -10.5 44 -15.5s34.5 -9.16699 54.5 -12.5s41 -5 63 -5c12 0 24.5 1.5 37.5 4.5s24.667 8 35 15
s18.833 15.667 25.5 26s10 23.166 10 38.499c0 8.66699 -1.33301 17.5 -4 26.5s-7.66699 17.667 -15 26s-17.166 16.166 -29.499 23.499s-28.5 13.666 -48.5 18.999zM246.003 759l-158 138l58 69l145 -96l145 96l58 -69l-158 -138h-90z" />
    <glyph glyph-name="scaron" unicode="&#x161;" horiz-adv-x="490" 
d="M72 135c18 -10 40.332 -19.834 66.999 -29.501s61.667 -14.5 105 -14.5c30 0 50.667 4.33301 62 13s17 19.667 17 33s-4.83301 24.5 -14.5 33.5s-29.167 16.5 -58.5 22.5l-57 12c-21.333 4.66699 -41.166 10.667 -59.499 18s-34.166 17 -47.499 29
s-23.833 26.667 -31.5 44s-11.5 38.333 -11.5 63c0 22 4.5 42.667 13.5 62s22 36 39 50s37.833 25.167 62.5 33.5s52.667 12.5 84 12.5c42 0 80.167 -4.83301 114.5 -14.5s61.166 -20.834 80.499 -33.501l-39 -92c-14 6.66699 -33.167 14 -57.5 22s-53.833 12 -88.5 12
c-32 0 -54.5 -4.16699 -67.5 -12.5s-19.5 -19.833 -19.5 -34.5c0 -11.333 3.83301 -21 11.5 -29s25.167 -14.667 52.5 -20l60 -12c56.667 -11.333 97.834 -29.166 123.501 -53.499s38.5 -58.5 38.5 -102.5c0 -50 -17 -89.333 -51 -118s-87.333 -43 -160 -43
c-48 0 -90.833 6.33301 -128.5 19s-65.834 26.334 -84.501 41.001zM250.999 674.999l120 95l65 -63l-144 -139h-81l-145 139l66 63z" />
    <glyph glyph-name="uni0162" unicode="&#x162;" horiz-adv-x="607" 
d="M234 576l-203 0.00195312v127h545v-127h-201v-576h-37l-11 -55c34.667 -4 62.834 -14.333 84.501 -31s32.5 -41 32.5 -73c0 -20 -4 -37.333 -12 -52s-19 -26.834 -33 -36.501s-30.667 -16.834 -50 -21.501s-40.333 -7 -63 -7c-29.333 0 -54.166 2.66699 -74.499 8
s-32.166 8.66602 -35.499 9.99902l22 73c11.333 -3.33301 23.666 -6.33301 36.999 -9s26.666 -4 39.999 -4c23.333 0 40.666 3.5 51.999 10.5s17 16.167 17 27.5c0 8.66699 -4.83301 16.334 -14.5 23.001s-25.5 10 -47.5 10c-10 0 -19 -0.333008 -27 -1
s-14.333 -1.66699 -19 -3l30 131h-32v576z" />
    <glyph glyph-name="uni0163" unicode="&#x163;" horiz-adv-x="411" 
d="M317 103c14 0 26.167 0.666992 36.5 2s19.166 2.66602 26.499 3.99902l9 -108c-9.33301 -2 -23.166 -4.33301 -41.499 -7s-40.166 -4 -65.499 -4h-9l-8 -44c34 -3.33301 61.167 -13.166 81.5 -29.499s30.5 -40.5 30.5 -72.5c0 -38.667 -14.167 -67.334 -42.5 -86.001
s-65.5 -28 -111.5 -28c-28.667 0 -52.667 2.5 -72 7.5s-30.666 8.16699 -33.999 9.5l21 72c11.333 -3.33301 23.333 -6.33301 36 -9s25.667 -4 39 -4c44 0 66 12.333 66 37c0 8.66699 -4.5 16.334 -13.5 23.001s-24.167 10 -45.5 10c-10 0 -18.833 -0.333008 -26.5 -1
s-13.834 -1.66699 -18.501 -3l29 128c-34 11.333 -58.5 29.833 -73.5 55.5s-22.5 57.5 -22.5 95.5v240h-91v113h91v128l134 30v-158h130v-113h-130v-218c0 -29.333 6.66699 -48.333 20 -57s31.666 -13 54.999 -13z" />
    <glyph glyph-name="Tcaron" unicode="&#x164;" horiz-adv-x="607" 
d="M234 576h-203v127h545v-127h-201v-576h-141v576zM258 759l-158 138l58 69l145 -96l145 96l58 -69l-158 -138h-90z" />
    <glyph glyph-name="tcaron" unicode="&#x165;" horiz-adv-x="411" 
d="M317 103c14 0 26.168 0.667969 36.501 2.00098s19.166 2.66602 26.499 3.99902l9 -108c-9.33301 -2 -23.166 -4.33301 -41.499 -7s-40.166 -4 -65.499 -4c-62.667 0 -107.334 14.5 -134.001 43.5s-40 68.167 -40 117.5v240h-91v113h91v128l134 30v-158h130v-113h-130
v-218c0 -29.333 6.66699 -48.333 20 -57s31.666 -13 54.999 -13zM431.001 706.001c0 -14 -3.33496 -29.502 -10.002 -46.502s-14.167 -33.333 -22.5 -49s-16.5 -29.5 -24.5 -41.5l-16 -24l-50 27l7 14l11 21c4 7.33301 7.83301 15 11.5 23s6.5 15 8.5 21
c-11.333 4.66699 -21.666 12.334 -30.999 23.001s-14 23.334 -14 38.001c0 19.333 5.33301 34.833 16 46.5s26.334 17.5 47.001 17.5s37 -6 49 -18s18 -29.333 18 -52z" />
    <glyph glyph-name="Tbar" unicode="&#x166;" horiz-adv-x="607" 
d="M234 277h-135v116h135v183h-203v127h545v-127h-201v-183h133v-116h-133v-277h-141v277z" />
    <glyph glyph-name="tbar" unicode="&#x167;" horiz-adv-x="411" 
d="M242 206l0.000976562 -32.999c0 -29.333 6.66699 -48.333 20 -57s31.666 -13 54.999 -13c14 0 26.167 0.666992 36.5 2s19.166 2.66602 26.499 3.99902l9 -108c-9.33301 -2 -23.166 -4.33301 -41.499 -7s-40.166 -4 -65.499 -4c-62.667 0 -107.334 14.5 -134.001 43.5
s-40 68.167 -40 117.5v55h-91v96h91v89h-91v113h91v128l134 30v-158h130v-113h-130v-89h130v-96h-130z" />
    <glyph glyph-name="Utilde" unicode="&#x168;" horiz-adv-x="682" 
d="M341 -16c-51.333 0 -94.501 6.50195 -129.501 19.502s-63.333 32.167 -85 57.5s-37.334 56.666 -47.001 93.999s-14.5 80.666 -14.5 129.999v418h141v-404c0 -36 2.33301 -66.333 7 -91s12.334 -44.667 23.001 -60s24.5 -26.333 41.5 -33s38.167 -10 63.5 -10
c24.667 0 45.667 3.33301 63 10s31.333 17.667 42 33s18.334 35.166 23.001 59.499s7 54.5 7 90.5v405h141v-419c0 -49.333 -4.83301 -92.666 -14.5 -129.999s-25.5 -68.5 -47.5 -93.5s-50.5 -44 -85.5 -57s-77.833 -19.5 -128.5 -19.5zM151.999 781.002
c0 48 10.001 85 30.001 111s49 39 87 39c18 0 34.167 -3 48.5 -9s27.833 -12.5 40.5 -19.5s25 -13.333 37 -19s24.333 -8.5 37 -8.5c16.667 0 28.5 4.5 35.5 13.5s10.5 22.167 10.5 39.5h77c0 -48.667 -10 -85.834 -30 -111.501s-49 -38.5 -87 -38.5
c-18 0 -34.167 3 -48.5 9s-27.833 12.5 -40.5 19.5l-36.5 19.5c-11.667 6 -23.834 9 -36.501 9c-17.333 0 -29.5 -4.66699 -36.5 -14s-10.5 -22.666 -10.5 -39.999h-77z" />
    <glyph glyph-name="utilde" unicode="&#x169;" horiz-adv-x="573" 
d="M377 504l134 0.000976562v-504h-122l-5 66c-13.333 -21.333 -32.833 -39.833 -58.5 -55.5s-58.834 -23.5 -99.501 -23.5c-59.333 0 -101.833 17.333 -127.5 52s-38.5 83 -38.5 145v320h134v-312c0 -34.667 7.33301 -58.334 22 -71.001s32.334 -19 53.001 -19
c21.333 0 39 4.33301 53 13s25 20.5 33 35.5s13.667 32.5 17 52.5s5 41.667 5 65v236zM100 580.001c0 48 10.001 85 30.001 111s48.333 39 85 39c18 0 34 -3 48 -9s27.167 -12.5 39.5 -19.5s24.166 -13.333 35.499 -19s23.333 -8.5 36 -8.5c16.667 0 28.5 4.5 35.5 13.5
s10.5 22.167 10.5 39.5h75c0 -48.667 -10 -85.834 -30 -111.501s-48.333 -38.5 -85 -38.5c-18 0 -34 3 -48 9s-27 12.5 -39 19.5l-35 19.5c-11.333 6 -23.333 9 -36 9c-17.333 0 -29.5 -4.66699 -36.5 -14s-10.5 -22.666 -10.5 -39.999h-75z" />
    <glyph glyph-name="Umacron" unicode="&#x16a;" horiz-adv-x="682" 
d="M341 -16c-51.333 0 -94.501 6.50195 -129.501 19.502s-63.333 32.167 -85 57.5s-37.334 56.666 -47.001 93.999s-14.5 80.666 -14.5 129.999v418h141v-404c0 -36 2.33301 -66.333 7 -91s12.334 -44.667 23.001 -60s24.5 -26.333 41.5 -33s38.167 -10 63.5 -10
c24.667 0 45.667 3.33301 63 10s31.333 17.667 42 33s18.334 35.166 23.001 59.499s7 54.5 7 90.5v405h141v-419c0 -49.333 -4.83301 -92.666 -14.5 -129.999s-25.5 -68.5 -47.5 -93.5s-50.5 -44 -85.5 -57s-77.833 -19.5 -128.5 -19.5zM174.999 803.002v110h331v-110h-331z
" />
    <glyph glyph-name="umacron" unicode="&#x16b;" horiz-adv-x="573" 
d="M377 504l134 0.000976562v-504h-122l-5 66c-13.333 -21.333 -32.833 -39.833 -58.5 -55.5s-58.834 -23.5 -99.501 -23.5c-59.333 0 -101.833 17.333 -127.5 52s-38.5 83 -38.5 145v320h134v-312c0 -34.667 7.33301 -58.334 22 -71.001s32.334 -19 53.001 -19
c21.333 0 39 4.33301 53 13s25 20.5 33 35.5s13.667 32.5 17 52.5s5 41.667 5 65v236zM136 601.001v106h308v-106h-308z" />
    <glyph glyph-name="Ubreve" unicode="&#x16c;" horiz-adv-x="682" 
d="M341 -16c-51.333 0 -94.501 6.50195 -129.501 19.502s-63.333 32.167 -85 57.5s-37.334 56.666 -47.001 93.999s-14.5 80.666 -14.5 129.999v418h141v-404c0 -36 2.33301 -66.333 7 -91s12.334 -44.667 23.001 -60s24.5 -26.333 41.5 -33s38.167 -10 63.5 -10
c24.667 0 45.667 3.33301 63 10s31.333 17.667 42 33s18.334 35.166 23.001 59.499s7 54.5 7 90.5v405h141v-419c0 -49.333 -4.83301 -92.666 -14.5 -129.999s-25.5 -68.5 -47.5 -93.5s-50.5 -44 -85.5 -57s-77.833 -19.5 -128.5 -19.5zM341.999 861.002
c28 0 49.3291 6.83301 63.9961 20.5s22 31.167 22 52.5h98c0 -22 -3.66699 -43.667 -11 -65s-18.5 -40.166 -33.5 -56.499s-34.167 -29.5 -57.5 -39.5s-50.666 -15 -81.999 -15s-58.666 5 -81.999 15s-42.666 23.167 -57.999 39.5s-26.666 35.166 -33.999 56.499
s-11 43 -11 65h99c0 -21.333 7.33301 -38.833 22 -52.5s36 -20.5 64 -20.5z" />
    <glyph glyph-name="ubreve" unicode="&#x16d;" horiz-adv-x="573" 
d="M377 504l134 0.000976562v-504h-122l-5 66c-13.333 -21.333 -32.833 -39.833 -58.5 -55.5s-58.834 -23.5 -99.501 -23.5c-59.333 0 -101.833 17.333 -127.5 52s-38.5 83 -38.5 145v320h134v-312c0 -34.667 7.33301 -58.334 22 -71.001s32.334 -19 53.001 -19
c21.333 0 39 4.33301 53 13s25 20.5 33 35.5s13.667 32.5 17 52.5s5 41.667 5 65v236zM298 674.001c28 0 48.333 7.66699 61 23s19 33.666 19 54.999h94c0 -22.667 -3.33301 -44.334 -10 -65.001s-17.167 -39 -31.5 -55s-32.5 -28.833 -54.5 -38.5s-48 -14.5 -78 -14.5
c-30.667 0 -57 4.83301 -79 14.5s-40.167 22.5 -54.5 38.5s-25 34.333 -32 55s-10.5 42.334 -10.5 65.001h95c0 -21.333 6.5 -39.666 19.5 -54.999s33.5 -23 61.5 -23z" />
    <glyph glyph-name="Uring" unicode="&#x16e;" horiz-adv-x="682" 
d="M341 -16c-51.333 0 -94.501 6.50195 -129.501 19.502s-63.333 32.167 -85 57.5s-37.334 56.666 -47.001 93.999s-14.5 80.666 -14.5 129.999v418h141v-404c0 -36 2.33301 -66.333 7 -91s12.334 -44.667 23.001 -60s24.5 -26.333 41.5 -33s38.167 -10 63.5 -10
c24.667 0 45.667 3.33301 63 10s31.333 17.667 42 33s18.334 35.166 23.001 59.499s7 54.5 7 90.5v405h141v-419c0 -49.333 -4.83301 -92.666 -14.5 -129.999s-25.5 -68.5 -47.5 -93.5s-50.5 -44 -85.5 -57s-77.833 -19.5 -128.5 -19.5zM470.999 842.002
c0 -18 -3.5 -34.668 -10.5 -50.001s-16.333 -28.666 -28 -39.999s-25.334 -20.166 -41.001 -26.499s-32.167 -9.5 -49.5 -9.5c-18 0 -34.833 3.16699 -50.5 9.5s-29.5 15.166 -41.5 26.499s-21.5 24.666 -28.5 39.999s-10.5 31.666 -10.5 48.999c0 18 3.5 34.667 10.5 50
s16.5 28.833 28.5 40.5s25.833 20.667 41.5 27s32.167 9.5 49.5 9.5c18 0 34.833 -3.16699 50.5 -9.5s29.334 -15.166 41.001 -26.499s21 -24.666 28 -39.999s10.5 -32 10.5 -50zM395.999 841.001c0 16 -5.33301 29.167 -16 39.5s-23.667 15.5 -39 15.5
s-28.166 -5.16699 -38.499 -15.5s-15.5 -23.5 -15.5 -39.5c0 -15.333 5.16699 -28.333 15.5 -39s23.166 -16 38.499 -16s28.333 5.33301 39 16s16 23.667 16 39z" />
    <glyph glyph-name="uring" unicode="&#x16f;" horiz-adv-x="573" 
d="M377 504l134 0.000976562v-504h-122l-5 66c-13.333 -21.333 -32.833 -39.833 -58.5 -55.5s-58.834 -23.5 -99.501 -23.5c-59.333 0 -101.833 17.333 -127.5 52s-38.5 83 -38.5 145v320h134v-312c0 -34.667 7.33301 -58.334 22 -71.001s32.334 -19 53.001 -19
c21.333 0 39 4.33301 53 13s25 20.5 33 35.5s13.667 32.5 17 52.5s5 41.667 5 65v236zM437 686.001c0 -20 -3.66699 -38.332 -11 -54.999s-17.333 -31 -30 -43s-27.5 -21.333 -44.5 -28s-34.833 -10 -53.5 -10c-19.333 0 -37.5 3.33301 -54.5 10s-32 16 -45 28
s-23.167 26.333 -30.5 43s-11 34.667 -11 54s3.66699 37.333 11 54s17.5 31 30.5 43s27.833 21.5 44.5 28.5s34.667 10.5 54 10.5s37.5 -3.5 54.5 -10.5s31.833 -16.5 44.5 -28.5s22.667 -26.333 30 -43s11 -34.334 11 -53.001zM351 685.002
c0 15.333 -5.16699 28.166 -15.5 38.499s-23.166 15.5 -38.499 15.5c-14.667 0 -27.167 -5.16699 -37.5 -15.5s-15.5 -23.166 -15.5 -38.499s5.16699 -28.333 15.5 -39s22.833 -16 37.5 -16c15.333 0 28.166 5.33301 38.499 16s15.5 23.667 15.5 39z" />
    <glyph glyph-name="Uhungarumlaut" unicode="&#x170;" horiz-adv-x="682" 
d="M341 -16c-51.333 0 -94.501 6.50195 -129.501 19.502s-63.333 32.167 -85 57.5s-37.334 56.666 -47.001 93.999s-14.5 80.666 -14.5 129.999v418h141v-404c0 -36 2.33301 -66.333 7 -91s12.334 -44.667 23.001 -60s24.5 -26.333 41.5 -33s38.167 -10 63.5 -10
c24.667 0 45.667 3.33301 63 10s31.333 17.667 42 33s18.334 35.166 23.001 59.499s7 54.5 7 90.5v405h141v-419c0 -49.333 -4.83301 -92.666 -14.5 -129.999s-25.5 -68.5 -47.5 -93.5s-50.5 -44 -85.5 -57s-77.833 -19.5 -128.5 -19.5zM129.999 818.002l188 177l66 -77
l-202 -161zM364.999 816.002l204 175l61 -81l-218 -158z" />
    <glyph glyph-name="uhungarumlaut" unicode="&#x171;" horiz-adv-x="573" 
d="M377 504l134 0.000976562v-504h-122l-5 66c-13.333 -21.333 -32.833 -39.833 -58.5 -55.5s-58.834 -23.5 -99.501 -23.5c-59.333 0 -101.833 17.333 -127.5 52s-38.5 83 -38.5 145v320h134v-312c0 -34.667 7.33301 -58.334 22 -71.001s32.334 -19 53.001 -19
c21.333 0 39 4.33301 53 13s25 20.5 33 35.5s13.667 32.5 17 52.5s5 41.667 5 65v236zM79 616.001l182 177l69 -78l-195 -162zM314 614.001l181 177l71 -78l-196 -161z" />
    <glyph glyph-name="Uogonek" unicode="&#x172;" horiz-adv-x="682" 
d="M341 -16c-51.333 0 -94.501 6.50488 -129.501 19.5049s-63.333 32.167 -85 57.5s-37.334 56.666 -47.001 93.999s-14.5 80.666 -14.5 129.999v418h141v-404c0 -36 2.33301 -66.333 7 -91s12.334 -44.667 23.001 -60s24.5 -26.333 41.5 -33s38.167 -10 63.5 -10
c24.667 0 45.667 3.33301 63 10s31.333 17.667 42 33s18.334 35.166 23.001 59.499s7 54.5 7 90.5v405h141v-419c0 -72.667 -10.5 -131.834 -31.5 -177.501s-56.5 -78.834 -106.5 -99.501c-23.333 -17.333 -43.333 -34.833 -60 -52.5s-25 -35.167 -25 -52.5
c0 -14 5.16699 -23.833 15.5 -29.5s22.833 -8.5 37.5 -8.5h14c4 0 9.33301 0.333008 16 1v-86c-5.33301 -0.666992 -11.333 -1.16699 -18 -1.5s-13.667 -0.5 -21 -0.5c-57.333 0 -96.833 8.66699 -118.5 26s-32.5 43 -32.5 77c0 36 20 70.667 60 104h-6z" />
    <glyph glyph-name="uogonek" unicode="&#x173;" horiz-adv-x="573" 
d="M517 -215c-5.33301 -0.666992 -11.333 -1.16699 -18 -1.5s-13.667 -0.5 -21 -0.5c-56 0 -94.5 8.33301 -115.5 25s-31.5 41.334 -31.5 74.001c0 19.333 6 38.833 18 58.5s32 39.5 60 59.5h-20l-5 66c-13.333 -21.333 -32.833 -39.833 -58.5 -55.5
s-58.834 -23.5 -99.501 -23.5c-59.333 0 -101.833 17.333 -127.5 52s-38.5 83 -38.5 145v320h134v-312c0 -34.667 7.33301 -58.334 22 -71.001s32.334 -19 53.001 -19c21.333 0 39 4.33301 53 13s25 20.5 33 35.5s13.667 32.5 17 52.5s5 41.667 5 65v236h134v-504
c-25.333 -18.667 -44 -36 -56 -52s-18 -30.667 -18 -44s4.83301 -22.833 14.5 -28.5s21.5 -8.5 35.5 -8.5h14c4 0 9.33301 0.333008 16 1v-83z" />
    <glyph glyph-name="Wcircumflex" unicode="&#x174;" horiz-adv-x="854" 
d="M319 0h-157l-152 703h149l92 -508l104 492h144l103 -492l93 508h149l-153 -703h-157l-107 487zM572 759l-145 96l-145 -96l-58 69l158 138h90l158 -138z" />
    <glyph glyph-name="wcircumflex" unicode="&#x175;" horiz-adv-x="710" 
d="M8 504h139l79 -362l78 341h112l76 -341l78 362h132l-137 -504h-136l-74 307l-75 -307h-134zM170 636l145 139h81l144 -139l-65 -64l-120 96l-119 -96z" />
    <glyph glyph-name="Ycircumflex" unicode="&#x176;" horiz-adv-x="606" 
d="M232 308l-222 395h150l147 -273l146 273h143l-223 -395v-308h-141v308zM452 759l-145 96l-145 -96l-58 69l158 138h90l158 -138z" />
    <glyph glyph-name="ycircumflex" unicode="&#x177;" horiz-adv-x="528" 
d="M8 504h149l110 -318l115 318h138l-305 -724h-128l107 257zM89 636l145 139h81l144 -139l-65 -64l-120 96l-119 -96z" />
    <glyph glyph-name="Ydieresis" unicode="&#x178;" horiz-adv-x="606" 
d="M232 308l-222 395h150l147 -273l146 273h143l-223 -395v-308h-141v308zM263 870c0 -23.333 -6.83301 -42.5 -20.5 -57.5s-31.834 -22.5 -54.501 -22.5s-40.834 7.83301 -54.501 23.5s-20.5 34.5 -20.5 56.5s6.83301 40.833 20.5 56.5s31.834 23.5 54.501 23.5
s40.834 -7.5 54.501 -22.5s20.5 -34.167 20.5 -57.5zM501 870c0 -23.333 -6.83301 -42.5 -20.5 -57.5s-31.834 -22.5 -54.501 -22.5s-40.834 7.83301 -54.501 23.5s-20.5 34.5 -20.5 56.5s6.83301 40.833 20.5 56.5s31.834 23.5 54.501 23.5s40.834 -7.5 54.501 -22.5
s20.5 -34.167 20.5 -57.5z" />
    <glyph glyph-name="Zacute" unicode="&#x179;" horiz-adv-x="615" 
d="M40 108l353 471h-335v124h508v-108l-359 -471h376v-124h-543v108zM433 960l42 -105l-273 -98l-33 84z" />
    <glyph glyph-name="zacute" unicode="&#x17a;" horiz-adv-x="511" 
d="M43 98l262 298h-253v108h416v-99l-267 -297h266v-108h-424v98zM374 782l50 -101l-246 -111l-40 81z" />
    <glyph glyph-name="Zdotaccent" unicode="&#x17b;" horiz-adv-x="615" 
d="M40 108l353 471h-335v124h508v-108l-359 -471h376v-124h-543v108zM392 871c0 -24.667 -7.16699 -44.8301 -21.5 -60.4971s-33.5 -23.5 -57.5 -23.5s-43.167 8.16699 -57.5 24.5s-21.5 36.166 -21.5 59.499s7.16699 43.166 21.5 59.499s33.5 24.5 57.5 24.5
s43.167 -7.83301 57.5 -23.5s21.5 -35.834 21.5 -60.501z" />
    <glyph glyph-name="zdotaccent" unicode="&#x17c;" horiz-adv-x="511" 
d="M43 98l262 298h-253v108h416v-99l-267 -297h266v-108h-424v98zM345 672c0 -23.333 -6.83301 -42.6699 -20.5 -58.0029s-32.167 -23 -55.5 -23s-41.833 7.83301 -55.5 23.5s-20.5 34.834 -20.5 57.501s6.83301 41.834 20.5 57.501s32.167 23.5 55.5 23.5
s41.833 -7.66699 55.5 -23s20.5 -34.666 20.5 -57.999z" />
    <glyph glyph-name="Zcaron" unicode="&#x17d;" horiz-adv-x="615" 
d="M40 108l353 471h-335v124h508v-108l-359 -471h376v-124h-543v108zM268 759l-158 138l58 69l145 -96l145 96l58 -69l-158 -138h-90z" />
    <glyph glyph-name="zcaron" unicode="&#x17e;" horiz-adv-x="511" 
d="M43 98l262 298h-253v108h416v-99l-267 -297h266v-108h-424v98zM267 675l120 95l65 -63l-144 -139h-81l-145 139l66 63z" />
    <glyph glyph-name="longs" unicode="&#x17f;" horiz-adv-x="257" 
d="M62 542c0 28.667 3 56.334 9 83.001s16.333 50.167 31 70.5s34.5 36.5 59.5 48.5s56.833 18 95.5 18c30 0 54.667 -1.5 74 -4.5s33 -5.5 41 -7.5l-12 -105c-7.33301 1.33301 -16.5 2.5 -27.5 3.5s-25.167 1.5 -42.5 1.5c-16 0 -30 -1.83301 -42 -5.5
s-21.667 -9.83398 -29 -18.501s-12.833 -20.5 -16.5 -35.5s-5.5 -33.833 -5.5 -56.5v-534h-135v542z" />
    <glyph glyph-name="florin" unicode="&#x192;" horiz-adv-x="592" 
d="M215 347l-104 -0.00390625v103h114l7 83c6 74.667 28 131.5 66 170.5s94 58.5 168 58.5c14 0 27.5 -0.833008 40.5 -2.5s24.833 -3.5 35.5 -5.5s19.667 -4 27 -6s12.333 -3.33301 15 -4l-26 -104c-7.33301 2 -17.5 4.16699 -30.5 6.5s-28.5 3.5 -46.5 3.5
c-22 0 -40 -3.16699 -54 -9.5s-25 -15.666 -33 -27.999s-13.833 -27.666 -17.5 -45.999s-6.5 -39.166 -8.5 -62.499l-5 -54h145v-103h-154l-33 -375c-6.66699 -70 -30 -121.5 -70 -154.5s-91 -49.5 -153 -49.5c-6 0 -13.833 0.5 -23.5 1.5s-19.667 2.33301 -30 4
s-20.5 3.5 -30.5 5.5s-18.333 4 -25 6l26 105c6 -1.33301 12.833 -2.66602 20.5 -3.99902s15.5 -2.5 23.5 -3.5s15.5 -1.83301 22.5 -2.5s12.833 -1 17.5 -1c30 0 51 12.833 63 38.5s20.333 64.5 25 116.5z" />
    <glyph glyph-name="Ohorn" unicode="&#x1a0;" horiz-adv-x="747" 
d="M712 741c0 -61.333 -31.332 -105.329 -93.999 -131.996c25.333 -32.667 44.166 -70.834 56.499 -114.501s18.5 -91.167 18.5 -142.5c0 -53.333 -6.33301 -102.5 -19 -147.5s-32.167 -83.833 -58.5 -116.5s-59.666 -58.167 -99.999 -76.5s-87.833 -27.5 -142.5 -27.5
s-102 9.16699 -142 27.5s-73.167 43.833 -99.5 76.5s-45.833 71.5 -58.5 116.5s-19 94.167 -19 147.5s6.33301 102.5 19 147.5s32.167 83.667 58.5 116s59.5 57.666 99.5 75.999s87.333 27.5 142 27.5c29.333 0 56.5 -2.83301 81.5 -8.5s48.167 -13.5 69.5 -23.5
c21.333 4 37.666 11.5 48.999 22.5s17 27.167 17 48.5c0 13.333 -1.66699 26 -5 38s-6.66602 21 -9.99902 27h119c3.33301 -6.66699 7.16602 -17.334 11.499 -32.001s6.5 -31.334 6.5 -50.001zM200.001 352.004c0 -74.667 14.167 -133.334 42.5 -176.001
s71.833 -64 130.5 -64s102.167 21.333 130.5 64s42.5 101.334 42.5 176.001s-14.167 133.167 -42.5 175.5s-71.833 63.5 -130.5 63.5s-102.167 -21.167 -130.5 -63.5s-42.5 -100.833 -42.5 -175.5z" />
    <glyph glyph-name="ohorn" unicode="&#x1a1;" horiz-adv-x="597" 
d="M292 517c18.667 0 37.665 -2.00098 56.998 -6.00098s36.666 -9.66699 51.999 -17c18.667 3.33301 34 11 46 23s18 26.667 18 44c0 13.333 -1.5 24.833 -4.5 34.5s-6.16699 17.5 -9.5 23.5h118c2.66699 -8 5.5 -18.667 8.5 -32s4.5 -28.333 4.5 -45
c0 -30 -7.66699 -54.833 -23 -74.5s-37.333 -34.5 -66 -44.5c32 -45.333 48 -102.333 48 -171c0 -86 -22 -151.833 -66 -197.5s-105 -68.5 -183 -68.5s-139.167 23 -183.5 69s-66.5 111.667 -66.5 197c0 40.667 5.83301 77.334 17.5 110.001s28.334 60.5 50.001 83.5
s47.834 40.667 78.501 53s65.334 18.5 104.001 18.5zM291.998 100.999c41.333 0 70.667 13.5 88 40.5s26 63.833 26 110.5c0 46 -9.5 82.5 -28.5 109.5s-47.5 40.5 -85.5 40.5s-66.667 -13.5 -86 -40.5s-29 -63.5 -29 -109.5c0 -46.667 8.66699 -83.5 26 -110.5
s47 -40.5 89 -40.5z" />
    </font>
</defs>
</svg>
